AlegreyaSans-ThinItalic.ufo
<glyph name="quotedbl" format="2">
  <advance width="222.272"/>
  <unicode hex="0022"/>
  <outline>
    <contour>
      <point x="224" y="635" type="line"/>
      <point x="206" y="633" type="line"/>
      <point x="177" y="489" type="line"/>
      <point x="179" y="485" type="line"/>
      <point x="196" y="487" type="line"/>
      <point x="226" y="631" type="line"/>
    </contour>
    <contour>
      <point x="127" y="635" type="line"/>
      <point x="109" y="633" type="line"/>
      <point x="80" y="489" type="line"/>
      <point x="82" y="485" type="line"/>
      <point x="99" y="487" type="line"/>
      <point x="129" y="631" type="line"/>
    </contour>
  </outline>
</glyph>
<glyph name="quotesingle" format="2">
  <advance width="125.272"/>
  <unicode hex="0027"/>
  <outline>
    <contour>
      <point x="127" y="635" type="line"/>
      <point x="109" y="633" type="line"/>
      <point x="80" y="489" type="line"/>
      <point x="82" y="485" type="line"/>
      <point x="99" y="487" type="line"/>
      <point x="129" y="631" type="line"/>
    </contour>
  </outline>
</glyph>
<glyph name="plus" format="2">
  <advance width="478"/>
  <unicode hex="002B"/>
  <outline>
    <contour>
      <point x="276" y="471" type="line"/>
      <point x="259" y="469" type="line"/>
      <point x="236" y="280" type="line"/>
      <point x="47" y="280" type="line"/>
      <point x="43" y="263" type="line"/>
      <point x="46" y="260" type="line"/>
      <point x="233" y="260" type="line"/>
      <point x="210" y="72" type="line"/>
      <point x="213" y="69" type="line"/>
      <point x="230" y="71" type="line"/>
      <point x="253" y="260" type="line"/>
      <point x="442" y="260" type="line"/>
      <point x="446" y="277" type="line"/>
      <point x="443" y="280" type="line"/>
      <point x="256" y="280" type="line"/>
      <point x="279" y="468" type="line"/>
    </contour>
  </outline>
</glyph>
<glyph name="hyphen" format="2">
  <advance width="311.703"/>
  <unicode hex="002D"/>
  <outline>
    <contour>
      <point x="283" y="281" type="line"/>
      <point x="34" y="248" type="line"/>
      <point x="32" y="232" type="line"/>
      <point x="35" y="228" type="line"/>
      <point x="285" y="261" type="line"/>
      <point x="286" y="277" type="line"/>
    </contour>
  </outline>
</glyph>
<glyph name="slash" format="2">
  <advance width="291"/>
  <unicode hex="002F"/>
  <outline>
    <contour>
      <point x="294" y="675" type="line"/>
      <point x="278" y="675" type="line"/>
      <point x="20" y="-106" type="line"/>
      <point x="23" y="-110" type="line"/>
      <point x="39" y="-110" type="line"/>
      <point x="297" y="670" type="line"/>
    </contour>
  </outline>
</glyph>
<glyph name="zero" format="2">
  <advance width="539.27"/>
  <unicode hex="0030"/>
  <outline>
    <contour>
      <point x="301" y="495" type="curve" smooth="yes"/>
      <point x="143" y="495"/>
      <point x="56" y="383"/>
      <point x="56" y="198" type="curve" smooth="yes"/>
      <point x="56" y="69"/>
      <point x="124" y="-4"/>
      <point x="244" y="-4" type="curve" smooth="yes"/>
      <point x="401" y="-4"/>
      <point x="488" y="104"/>
      <point x="488" y="288" type="curve" smooth="yes"/>
      <point x="488" y="421"/>
      <point x="421" y="495"/>
    </contour>
    <contour>
      <point x="299" y="475" type="curve" smooth="yes"/>
      <point x="408" y="475"/>
      <point x="468" y="406"/>
      <point x="468" y="283" type="curve" smooth="yes"/>
      <point x="468" y="115"/>
      <point x="387" y="16"/>
      <point x="246" y="16" type="curve" smooth="yes"/>
      <point x="135" y="16"/>
      <point x="76" y="83"/>
      <point x="76" y="203" type="curve" smooth="yes"/>
      <point x="76" y="373"/>
      <point x="158" y="475"/>
    </contour>
  </outline>
</glyph>
<glyph name="five" format="2">
  <advance width="403"/>
  <unicode hex="0035"/>
  <outline>
    <contour>
      <point x="375" y="492" type="line"/>
      <point x="310" y="491" type="line"/>
      <point x="174" y="491" type="line"/>
      <point x="125" y="492" type="line"/>
      <point x="115" y="484" type="line"/>
      <point x="86" y="252" type="line"/>
      <point x="89" y="247" type="line"/>
      <point x="161" y="230" type="line" smooth="yes"/>
      <point x="264" y="205"/>
      <point x="312" y="164"/>
      <point x="312" y="101" type="curve" smooth="yes"/>
      <point x="312" y="-4"/>
      <point x="221" y="-79"/>
      <point x="90" y="-79" type="curve" smooth="yes"/>
      <point x="70" y="-79"/>
      <point x="44" y="-77"/>
      <point x="16" y="-72" type="curve"/>
      <point x="12" y="-75" type="line"/>
      <point x="14" y="-92" type="line"/>
      <point x="41" y="-97"/>
      <point x="66" y="-99"/>
      <point x="86" y="-99" type="curve" smooth="yes"/>
      <point x="231" y="-99"/>
      <point x="332" y="-15"/>
      <point x="332" y="103" type="curve" smooth="yes"/>
      <point x="332" y="177"/>
      <point x="281" y="224"/>
      <point x="170" y="250" type="curve" smooth="yes"/>
      <point x="106" y="265" type="line"/>
      <point x="133" y="471" type="line"/>
      <point x="328" y="471" type="line"/>
      <point x="369" y="470" type="line"/>
      <point x="373" y="472" type="line"/>
      <point x="377" y="490" type="line"/>
    </contour>
  </outline>
</glyph>
<glyph name="seven" format="2">
  <advance width="400.549"/>
  <unicode hex="0037"/>
  <outline>
    <contour>
      <point x="64" y="492" type="line"/>
      <point x="59" y="475" type="line"/>
      <point x="62" y="470" type="line"/>
      <point x="120" y="471" type="line"/>
      <point x="377" y="471" type="line"/>
      <point x="52" y="-95" type="line"/>
      <point x="52" y="-99" type="line"/>
      <point x="72" y="-105" type="line"/>
      <point x="118" y="-19" type="line"/>
      <point x="401" y="474" type="line"/>
      <point x="403" y="492" type="line"/>
      <point x="366" y="491" type="line"/>
      <point x="128" y="491" type="line"/>
    </contour>
  </outline>
</glyph>
<glyph name="greater" format="2">
  <advance width="501"/>
  <unicode hex="003E"/>
  <outline>
    <contour>
      <point x="105" y="455" type="line"/>
      <point x="96" y="441" type="line"/>
      <point x="98" y="436" type="line"/>
      <point x="448" y="272" type="line"/>
      <point x="448" y="268" type="line"/>
      <point x="55" y="115" type="line"/>
      <point x="59" y="100" type="line"/>
      <point x="63" y="98" type="line"/>
      <point x="472" y="258" type="line"/>
      <point x="475" y="280" type="line"/>
      <point x="473" y="284" type="line"/>
    </contour>
  </outline>
</glyph>
<glyph name="C" format="2">
  <advance width="497"/>
  <unicode hex="0043"/>
  <anchor x="278" y="0" name="bottom"/>
  <anchor x="335" y="637" name="top"/>
  <outline>
    <contour>
      <point x="350" y="641" type="curve" smooth="yes"/>
      <point x="163" y="641"/>
      <point x="55" y="493"/>
      <point x="55" y="251" type="curve" smooth="yes"/>
      <point x="55" y="88"/>
      <point x="126" y="-5"/>
      <point x="260" y="-5" type="curve" smooth="yes"/>
      <point x="319" y="-5"/>
      <point x="385" y="19"/>
      <point x="444" y="62" type="curve"/>
      <point x="448" y="80" type="line"/>
      <point x="441" y="82" type="line"/>
      <point x="386" y="39"/>
      <point x="321" y="15"/>
      <point x="261" y="15" type="curve" smooth="yes"/>
      <point x="139" y="15"/>
      <point x="75" y="101"/>
      <point x="75" y="253" type="curve" smooth="yes"/>
      <point x="75" y="481"/>
      <point x="174" y="621"/>
      <point x="348" y="621" type="curve" smooth="yes"/>
      <point x="406" y="621"/>
      <point x="456" y="601"/>
      <point x="494" y="565" type="curve"/>
      <point x="501" y="565" type="line"/>
      <point x="510" y="582" type="line"/>
      <point x="469" y="620"/>
      <point x="410" y="641"/>
    </contour>
  </outline>
</glyph>
<glyph name="E" format="2">
  <advance width="432"/>
  <unicode hex="0045"/>
  <anchor x="250" y="0" name="bottom"/>
  <anchor x="361" y="10" name="ogonek"/>
  <anchor x="311" y="637" name="top"/>
  <anchor x="70" y="637" name="topleft"/>
  <outline>
    <contour>
      <point x="180" y="637" type="line"/>
      <point x="160" y="637" type="line"/>
      <point x="105" y="195" type="line"/>
      <point x="80" y="0" type="line"/>
      <point x="100" y="0" type="line"/>
      <point x="125" y="195" type="line"/>
    </contour>
    <contour>
      <point x="376" y="20" type="line"/>
      <point x="227" y="20" type="line"/>
      <point x="96" y="20" type="line"/>
      <point x="90" y="4" type="line"/>
      <point x="94" y="0" type="line"/>
      <point x="373" y="0" type="line"/>
      <point x="379" y="16" type="line"/>
    </contour>
    <contour>
      <point x="366" y="340" type="line"/>
      <point x="265" y="340" type="line"/>
      <point x="136" y="340" type="line"/>
      <point x="130" y="324" type="line"/>
      <point x="134" y="320" type="line"/>
      <point x="259" y="320" type="line"/>
      <point x="363" y="320" type="line"/>
      <point x="369" y="336" type="line"/>
    </contour>
    <contour>
      <point x="451" y="637" type="line"/>
      <point x="174" y="637" type="line"/>
      <point x="168" y="621" type="line"/>
      <point x="171" y="617" type="line"/>
      <point x="309" y="617" type="line"/>
      <point x="447" y="617" type="line"/>
      <point x="453" y="633" type="line"/>
    </contour>
  </outline>
</glyph>
<glyph name="G" format="2">
  <advance width="575"/>
  <unicode hex="0047"/>
  <anchor x="320" y="0" name="bottom"/>
  <anchor x="344" y="637" name="top"/>
  <outline>
    <contour>
      <point x="378" y="641" type="curve" smooth="yes"/>
      <point x="175" y="641"/>
      <point x="55" y="496"/>
      <point x="55" y="250" type="curve" smooth="yes"/>
      <point x="55" y="88"/>
      <point x="128" y="-4"/>
      <point x="266" y="-4" type="curve" smooth="yes"/>
      <point x="335" y="-4"/>
      <point x="379" y="5"/>
      <point x="465" y="30" type="curve"/>
      <point x="482" y="158" type="line"/>
      <point x="492" y="249" type="line"/>
      <point x="472" y="247" type="line"/>
      <point x="462" y="158" type="line"/>
      <point x="447" y="45" type="line"/>
      <point x="367" y="22"/>
      <point x="325" y="15"/>
      <point x="266" y="15" type="curve" smooth="yes"/>
      <point x="142" y="15"/>
      <point x="75" y="101"/>
      <point x="75" y="252" type="curve" smooth="yes"/>
      <point x="75" y="483"/>
      <point x="186" y="621"/>
      <point x="375" y="621" type="curve" smooth="yes"/>
      <point x="426" y="621"/>
      <point x="479" y="602"/>
      <point x="527" y="569" type="curve"/>
      <point x="534" y="569" type="line"/>
      <point x="542" y="587" type="line"/>
      <point x="491" y="622"/>
      <point x="432" y="641"/>
    </contour>
  </outline>
</glyph>
<glyph name="H" format="2">
  <advance width="640"/>
  <unicode hex="0048"/>
  <anchor x="292" y="0" name="bottom"/>
  <anchor x="485" y="0" name="bottomright"/>
  <anchor x="337" y="319" name="center"/>
  <anchor x="371" y="637" name="top"/>
  <anchor x="70" y="637" name="topleft"/>
  <outline>
    <contour>
      <point x="585" y="637" type="line"/>
      <point x="565" y="637" type="line"/>
      <point x="510" y="195" type="line"/>
      <point x="485" y="0" type="line"/>
      <point x="505" y="0" type="line"/>
      <point x="530" y="195" type="line"/>
    </contour>
    <contour>
      <point x="180" y="637" type="line"/>
      <point x="160" y="637" type="line"/>
      <point x="105" y="195" type="line"/>
      <point x="80" y="0" type="line"/>
      <point x="100" y="0" type="line"/>
      <point x="125" y="195" type="line"/>
    </contour>
    <contour>
      <point x="536" y="334" type="line"/>
      <point x="332" y="334" type="line"/>
      <point x="136" y="334" type="line"/>
      <point x="133" y="314" type="line"/>
      <point x="325" y="314" type="line"/>
      <point x="532" y="314" type="line"/>
    </contour>
  </outline>
</glyph>
<glyph name="I" format="2">
  <advance width="235"/>
  <unicode hex="0049"/>
  <anchor x="90" y="0" name="bottom"/>
  <anchor x="100" y="0" name="ogonek"/>
  <anchor x="168" y="637" name="top"/>
  <anchor x="70" y="637" name="topleft"/>
  <outline>
    <contour>
      <point x="180" y="637" type="line"/>
      <point x="160" y="637" type="line"/>
      <point x="105" y="195" type="line"/>
      <point x="80" y="0" type="line"/>
      <point x="100" y="0" type="line"/>
      <point x="125" y="195" type="line"/>
    </contour>
  </outline>
</glyph>
<glyph name="M" format="2">
  <advance width="742"/>
  <unicode hex="004D"/>
  <anchor x="343" y="0" name="bottom"/>
  <anchor x="421" y="637" name="top"/>
  <outline>
    <contour>
      <point x="657" y="637" type="line"/>
      <point x="633" y="637" type="line"/>
      <point x="587" y="549" type="line"/>
      <point x="356" y="110" type="line"/>
      <point x="352" y="110" type="line"/>
      <point x="242" y="538" type="line"/>
      <point x="216" y="637" type="line"/>
      <point x="193" y="637" type="line"/>
      <point x="47" y="0" type="line"/>
      <point x="68" y="0" type="line"/>
      <point x="112" y="195" type="line"/>
      <point x="202" y="589" type="line"/>
      <point x="206" y="589" type="line"/>
      <point x="339" y="81" type="line"/>
      <point x="364" y="81" type="line"/>
      <point x="629" y="589" type="line"/>
      <point x="633" y="589" type="line"/>
      <point x="625" y="195" type="line"/>
      <point x="619" y="0" type="line"/>
      <point x="640" y="0" type="line"/>
    </contour>
  </outline>
</glyph>
<glyph name="N" format="2">
  <advance width="640"/>
  <unicode hex="004E"/>
  <anchor x="293" y="0" name="bottom"/>
  <anchor x="371" y="637" name="top"/>
  <outline>
    <contour>
      <point x="585" y="638" type="line"/>
      <point x="565" y="636" type="line"/>
      <point x="488" y="42" type="line"/>
      <point x="484" y="42" type="line"/>
      <point x="180" y="637" type="line"/>
      <point x="161" y="637" type="line"/>
      <point x="104" y="190" type="line"/>
      <point x="80" y="0" type="line"/>
      <point x="100" y="0" type="line"/>
      <point x="125" y="199" type="line"/>
      <point x="176" y="595" type="line"/>
      <point x="180" y="595" type="line"/>
      <point x="484" y="0" type="line"/>
      <point x="503" y="0" type="line"/>
      <point x="526" y="176" type="line"/>
    </contour>
  </outline>
</glyph>
<glyph name="O" format="2">
  <advance width="599"/>
  <unicode hex="004F"/>
  <anchor x="272" y="0" name="bottom"/>
  <anchor x="311" y="319" name="center"/>
  <anchor x="357" y="10" name="ogonek"/>
  <anchor x="350" y="637" name="top"/>
  <anchor x="70" y="637" name="topleft"/>
  <anchor x="629" y="637" name="topright"/>
  <outline>
    <contour>
      <point x="355" y="642" type="curve"/>
      <point x="165" y="642"/>
      <point x="56" y="495"/>
      <point x="56" y="253" type="curve" smooth="yes"/>
      <point x="56" y="89"/>
      <point x="130" y="-5"/>
      <point x="267" y="-5" type="curve" smooth="yes"/>
      <point x="459" y="-5"/>
      <point x="568" y="147"/>
      <point x="568" y="391" type="curve" smooth="yes"/>
      <point x="568" y="551"/>
      <point x="494" y="642"/>
    </contour>
    <contour>
      <point x="354" y="622" type="curve" smooth="yes"/>
      <point x="481" y="622"/>
      <point x="547" y="537"/>
      <point x="547" y="387" type="curve" smooth="yes"/>
      <point x="547" y="159"/>
      <point x="445" y="15"/>
      <point x="268" y="15" type="curve" smooth="yes"/>
      <point x="144" y="15"/>
      <point x="77" y="103"/>
      <point x="77" y="256" type="curve" smooth="yes"/>
      <point x="77" y="483"/>
      <point x="179" y="622"/>
    </contour>
  </outline>
</glyph>
<glyph name="T" format="2">
  <advance width="450"/>
  <unicode hex="0054"/>
  <anchor x="198" y="0" name="bottom"/>
  <anchor x="242" y="319" name="center"/>
  <anchor x="276" y="637" name="top"/>
  <outline>
    <contour>
      <point x="286" y="627" type="line"/>
      <point x="266" y="627" type="line"/>
      <point x="211" y="195" type="line"/>
      <point x="187" y="0" type="line"/>
      <point x="207" y="0" type="line"/>
      <point x="231" y="195" type="line"/>
    </contour>
    <contour>
      <point x="471" y="637" type="line"/>
      <point x="83" y="637" type="line"/>
      <point x="77" y="621" type="line"/>
      <point x="80" y="617" type="line"/>
      <point x="178" y="617" type="line"/>
      <point x="373" y="617" type="line"/>
      <point x="468" y="617" type="line"/>
      <point x="474" y="633" type="line"/>
    </contour>
  </outline>
</glyph>
<glyph name="W" format="2">
  <advance width="834"/>
  <unicode hex="0057"/>
  <anchor x="447" y="637" name="top"/>
  <outline>
    <contour>
      <point x="873" y="637" type="line"/>
      <point x="850" y="637" type="line"/>
      <point x="831" y="594" type="line"/>
      <point x="555" y="34" type="line"/>
      <point x="551" y="34" type="line"/>
      <point x="433" y="594" type="line"/>
      <point x="426" y="637" type="line"/>
      <point x="404" y="637" type="line"/>
      <point x="440" y="471" type="line"/>
      <point x="227" y="34" type="line"/>
      <point x="223" y="34" type="line"/>
      <point x="104" y="594" type="line"/>
      <point x="97" y="637" type="line"/>
      <point x="74" y="637" type="line"/>
      <point x="209" y="0" type="line"/>
      <point x="231" y="0" type="line"/>
      <point x="444" y="438" type="line"/>
      <point x="448" y="438" type="line"/>
      <point x="539" y="0" type="line"/>
      <point x="559" y="0" type="line"/>
    </contour>
  </outline>
</glyph>
<glyph name="Y" format="2">
  <advance width="469"/>
  <unicode hex="0059"/>
  <anchor x="207" y="0" name="bottom"/>
  <anchor x="220" y="183" name="center"/>
  <anchor x="285" y="637" name="top"/>
  <anchor x="70" y="637" name="topleft"/>
  <outline>
    <contour>
      <point x="492" y="637" type="line"/>
      <point x="466" y="637" type="line"/>
      <point x="452" y="611" type="line"/>
      <point x="234" y="277" type="line"/>
      <point x="229" y="277" type="line"/>
      <point x="109" y="611" type="line"/>
      <point x="102" y="637" type="line"/>
      <point x="77" y="637" type="line"/>
      <point x="222" y="234" type="line"/>
      <point x="230" y="234" type="line"/>
    </contour>
    <contour>
      <point x="241" y="267" type="line"/>
      <point x="221" y="267" type="line"/>
      <point x="211" y="195" type="line"/>
      <point x="187" y="0" type="line"/>
      <point x="207" y="0" type="line"/>
      <point x="231" y="195" type="line"/>
    </contour>
  </outline>
</glyph>
<glyph name="Z" format="2">
  <advance width="482"/>
  <unicode hex="005A"/>
  <anchor x="213" y="0" name="bottom"/>
  <anchor x="263" y="637" name="top"/>
  <outline>
    <contour>
      <point x="489" y="638" type="line"/>
      <point x="454" y="637" type="line"/>
      <point x="168" y="637" type="line"/>
      <point x="107" y="638" type="line"/>
      <point x="101" y="621" type="line"/>
      <point x="105" y="616" type="line"/>
      <point x="160" y="617" type="line"/>
      <point x="460" y="617" type="line"/>
      <point x="7" y="17" type="line"/>
      <point x="5" y="-1" type="line"/>
      <point x="39" y="0" type="line"/>
      <point x="338" y="0" type="line"/>
      <point x="407" y="0" type="line"/>
      <point x="413" y="16" type="line"/>
      <point x="409" y="21" type="line"/>
      <point x="344" y="20" type="line"/>
      <point x="34" y="20" type="line"/>
      <point x="487" y="620" type="line"/>
    </contour>
  </outline>
</glyph>
<glyph name="bracketleft" format="2">
  <advance width="281.589"/>
  <unicode hex="005B"/>
  <outline>
    <contour>
      <point x="312" y="646" type="line"/>
      <point x="165" y="636" type="line"/>
      <point x="118" y="257" type="line"/>
      <point x="71" y="-123" type="line"/>
      <point x="216" y="-133" type="line"/>
      <point x="221" y="-129" type="line"/>
      <point x="222" y="-114" type="line"/>
      <point x="94" y="-105" type="line"/>
      <point x="182" y="618" type="line"/>
      <point x="313" y="627" type="line"/>
      <point x="315" y="642" type="line"/>
    </contour>
  </outline>
</glyph>
<glyph name="backslash" format="2">
  <advance width="359.764"/>
  <unicode hex="005C"/>
  <outline>
    <contour>
      <point x="288" y="-110" type="line"/>
      <point x="304" y="-110" type="line"/>
      <point x="307" y="-106" type="line"/>
      <point x="103" y="675" type="line"/>
      <point x="87" y="675" type="line"/>
      <point x="84" y="670" type="line"/>
    </contour>
  </outline>
</glyph>
<glyph name="b" format="2">
  <advance width="423"/>
  <unicode hex="0062"/>
  <anchor x="184" y="0" name="bottom"/>
  <anchor x="240" y="452" name="top"/>
  <outline>
    <contour>
      <point x="325" y="454" type="curve"/>
      <point x="314" y="454" type="line"/>
      <point x="242" y="390"/>
      <point x="169" y="291"/>
      <point x="109" y="179" type="curve"/>
      <point x="94" y="179" type="line"/>
      <point x="86" y="95" type="line"/>
      <point x="188" y="304"/>
      <point x="303" y="426"/>
      <point x="317" y="426" type="curve" smooth="yes"/>
      <point x="329" y="426"/>
      <point x="357" y="399"/>
      <point x="357" y="312" type="curve" smooth="yes"/>
      <point x="357" y="159"/>
      <point x="277" y="16"/>
      <point x="144" y="16" type="curve"/>
      <point x="76" y="33" type="line"/>
      <point x="72" y="13" type="line"/>
      <point x="142" y="-4" type="line"/>
      <point x="146" y="-4" type="line"/>
      <point x="294" y="5"/>
      <point x="377" y="147"/>
      <point x="377" y="317" type="curve" smooth="yes"/>
      <point x="377" y="393"/>
      <point x="360" y="426"/>
    </contour>
    <contour>
      <point x="175" y="702" type="line"/>
      <point x="150" y="698" type="line"/>
      <point x="143" y="608" type="line"/>
      <point x="64" y="14" type="line"/>
      <point x="86" y="11" type="line"/>
      <point x="86" y="20" type="line"/>
      <point x="100" y="141" type="line"/>
    </contour>
  </outline>
</glyph>
<glyph name="d" format="2">
  <advance width="423"/>
  <unicode hex="0064"/>
  <anchor x="184" y="0" name="bottom"/>
  <anchor x="236" y="226" name="center"/>
  <anchor x="324" y="452" name="top"/>
  <anchor x="476" y="452" name="topright"/>
  <outline>
    <contour>
      <point x="280" y="454" type="line"/>
      <point x="276" y="454" type="line"/>
      <point x="128" y="445"/>
      <point x="45" y="303"/>
      <point x="45" y="133" type="curve" smooth="yes"/>
      <point x="45" y="57"/>
      <point x="62" y="21"/>
      <point x="96" y="-4" type="curve"/>
      <point x="107" y="-4" type="line"/>
      <point x="180" y="60"/>
      <point x="253" y="159"/>
      <point x="313" y="271" type="curve"/>
      <point x="318" y="271" type="line"/>
      <point x="336" y="355" type="line"/>
      <point x="234" y="146"/>
      <point x="118" y="24"/>
      <point x="104" y="24" type="curve" smooth="yes"/>
      <point x="93" y="24"/>
      <point x="65" y="51"/>
      <point x="65" y="138" type="curve" smooth="yes"/>
      <point x="65" y="291"/>
      <point x="145" y="434"/>
      <point x="278" y="434" type="curve"/>
      <point x="350" y="431" type="line"/>
      <point x="354" y="451" type="line"/>
    </contour>
    <contour>
      <point x="394" y="702" type="line"/>
      <point x="369" y="698" type="line"/>
      <point x="363" y="608" type="line"/>
      <point x="281" y="-4" type="line"/>
      <point x="306" y="0" type="line"/>
      <point x="315" y="106" type="line"/>
    </contour>
  </outline>
</glyph>
<glyph name="h" format="2">
  <advance width="446"/>
  <unicode hex="0068"/>
  <anchor x="195" y="0" name="bottom"/>
  <anchor x="255" y="226" name="center"/>
  <anchor x="159" y="650" name="top"/>
  <outline>
    <contour>
      <point x="335" y="462" type="curve"/>
      <point x="324" y="462" type="line"/>
      <point x="255" y="416"/>
      <point x="189" y="319"/>
      <point x="111" y="184" type="curve"/>
      <point x="98" y="184" type="line"/>
      <point x="86" y="98" type="line"/>
      <point x="200" y="314"/>
      <point x="297" y="436"/>
      <point x="331" y="436" type="curve" smooth="yes"/>
      <point x="348" y="436"/>
      <point x="366" y="410"/>
      <point x="365" y="376" type="curve"/>
      <point x="364" y="361" type="line"/>
      <point x="305" y="-4" type="line"/>
      <point x="330" y="0" type="line"/>
      <point x="342" y="101" type="line"/>
      <point x="385" y="364" type="line"/>
      <point x="386" y="377" type="line"/>
      <point x="388" y="419"/>
      <point x="366" y="453"/>
    </contour>
    <contour>
      <point x="175" y="702" type="line"/>
      <point x="149" y="698" type="line"/>
      <point x="143" y="608" type="line"/>
      <point x="61" y="-4" type="line"/>
      <point x="87" y="0" type="line"/>
      <point x="96" y="106" type="line"/>
    </contour>
  </outline>
</glyph>
<glyph name="m" format="2">
  <advance width="693"/>
  <unicode hex="006D"/>
  <anchor x="319" y="0" name="bottom"/>
  <anchor x="375" y="452" name="top"/>
  <outline>
    <contour>
      <point x="582" y="462" type="curve"/>
      <point x="571" y="462" type="line"/>
      <point x="502" y="416"/>
      <point x="437" y="319"/>
      <point x="359" y="184" type="curve"/>
      <point x="345" y="184" type="line"/>
      <point x="333" y="98" type="line"/>
      <point x="448" y="314"/>
      <point x="544" y="436"/>
      <point x="578" y="436" type="curve" smooth="yes"/>
      <point x="595" y="436"/>
      <point x="613" y="410"/>
      <point x="612" y="376" type="curve"/>
      <point x="611" y="361" type="line"/>
      <point x="552" y="-4" type="line"/>
      <point x="577" y="0" type="line"/>
      <point x="589" y="101" type="line"/>
      <point x="632" y="364" type="line"/>
      <point x="633" y="377" type="line"/>
      <point x="635" y="419"/>
      <point x="613" y="453"/>
    </contour>
    <contour>
      <point x="141" y="456" type="line"/>
      <point x="116" y="452" type="line"/>
      <point x="109" y="362" type="line"/>
      <point x="61" y="-4" type="line"/>
      <point x="86" y="0" type="line"/>
      <point x="95" y="106" type="line"/>
    </contour>
    <contour>
      <point x="333" y="462" type="curve"/>
      <point x="322" y="462" type="line"/>
      <point x="253" y="416"/>
      <point x="188" y="319"/>
      <point x="110" y="184" type="curve"/>
      <point x="97" y="184" type="line"/>
      <point x="85" y="98" type="line"/>
      <point x="199" y="314"/>
      <point x="295" y="436"/>
      <point x="329" y="436" type="curve" smooth="yes"/>
      <point x="346" y="436"/>
      <point x="364" y="410"/>
      <point x="364" y="376" type="curve"/>
      <point x="363" y="361" type="line"/>
      <point x="303" y="-4" type="line"/>
      <point x="328" y="0" type="line"/>
      <point x="340" y="101" type="line"/>
      <point x="384" y="364" type="line"/>
      <point x="385" y="377" type="line"/>
      <point x="387" y="419"/>
      <point x="364" y="453"/>
    </contour>
  </outline>
</glyph>
<glyph name="r" format="2">
  <advance width="307"/>
  <unicode hex="0072"/>
  <anchor x="74" y="0" name="bottom"/>
  <anchor x="216" y="452" name="top"/>
  <outline>
    <contour>
      <point x="310" y="452" type="line"/>
      <point x="255" y="443"/>
      <point x="182" y="347"/>
      <point x="109" y="181" type="curve"/>
      <point x="96" y="181" type="line"/>
      <point x="86" y="82" type="line"/>
      <point x="175" y="303"/>
      <point x="255" y="421"/>
      <point x="309" y="430" type="curve"/>
      <point x="320" y="428" type="line"/>
      <point x="323" y="430" type="line"/>
      <point x="326" y="450" type="line"/>
    </contour>
    <contour>
      <point x="139" y="456" type="line"/>
      <point x="116" y="452" type="line"/>
      <point x="108" y="362" type="line"/>
      <point x="61" y="-4" type="line"/>
      <point x="85" y="0" type="line"/>
      <point x="95" y="106" type="line"/>
    </contour>
  </outline>
</glyph>
<glyph name="u" format="2">
  <advance width="454"/>
  <unicode hex="0075"/>
  <anchor x="199" y="0" name="bottom"/>
  <anchor x="312" y="-4" name="bottomright"/>
  <anchor x="337" y="0" name="ogonek"/>
  <anchor x="255" y="452" name="top"/>
  <anchor x="462" y="452" name="topright"/>
  <outline>
    <contour>
      <point x="149" y="455" type="line"/>
      <point x="124" y="451" type="line"/>
      <point x="112" y="350" type="line"/>
      <point x="69" y="87" type="line"/>
      <point x="68" y="74" type="line"/>
      <point x="66" y="32"/>
      <point x="88" y="-2"/>
      <point x="119" y="-11" type="curve"/>
      <point x="130" y="-11" type="line"/>
      <point x="200" y="35"/>
      <point x="265" y="132"/>
      <point x="343" y="267" type="curve"/>
      <point x="356" y="267" type="line"/>
      <point x="368" y="353" type="line"/>
      <point x="254" y="137"/>
      <point x="157" y="15"/>
      <point x="123" y="15" type="curve" smooth="yes"/>
      <point x="106" y="15"/>
      <point x="88" y="41"/>
      <point x="89" y="75" type="curve"/>
      <point x="90" y="90" type="line"/>
    </contour>
    <contour>
      <point x="392" y="456" type="line"/>
      <point x="367" y="452" type="line"/>
      <point x="360" y="362" type="line"/>
      <point x="312" y="-4" type="line"/>
      <point x="337" y="0" type="line"/>
      <point x="346" y="106" type="line"/>
    </contour>
  </outline>
</glyph>
<glyph name="bar" format="2">
  <advance width="320.872"/>
  <unicode hex="007C"/>
  <outline>
    <contour>
      <point x="238" y="791" type="line"/>
      <point x="220" y="789" type="line"/>
      <point x="158" y="285" type="line"/>
      <point x="91" y="-261" type="line"/>
      <point x="93" y="-265" type="line"/>
      <point x="110" y="-265" type="line"/>
      <point x="178" y="285" type="line"/>
      <point x="240" y="789" type="line"/>
    </contour>
  </outline>
</glyph>
<glyph name="sterling" format="2">
  <advance width="383.785"/>
  <unicode hex="00A3"/>
  <outline>
    <contour>
      <point x="274" y="591" type="curve" smooth="yes"/>
      <point x="192" y="591"/>
      <point x="144" y="540"/>
      <point x="132" y="447" type="curve" smooth="yes"/>
      <point x="93" y="130" type="line" smooth="yes"/>
      <point x="85" y="64"/>
      <point x="55" y="24"/>
      <point x="10" y="18" type="curve"/>
      <point x="5" y="4" type="line"/>
      <point x="8" y="0" type="line"/>
      <point x="243" y="0" type="line"/>
      <point x="315" y="0" type="line"/>
      <point x="320" y="16" type="line"/>
      <point x="317" y="21" type="line"/>
      <point x="248" y="20" type="line"/>
      <point x="60" y="20" type="line"/>
      <point x="60" y="22" type="line"/>
      <point x="90" y="45"/>
      <point x="107" y="79"/>
      <point x="113" y="130" type="curve" smooth="yes"/>
      <point x="152" y="447" type="line" smooth="yes"/>
      <point x="162" y="527"/>
      <point x="200" y="571"/>
      <point x="274" y="571" type="curve" smooth="yes"/>
      <point x="302" y="571"/>
      <point x="336" y="565"/>
      <point x="363" y="551" type="curve"/>
      <point x="366" y="553" type="line"/>
      <point x="371" y="572" type="line"/>
      <point x="335" y="585"/>
      <point x="302" y="591"/>
    </contour>
    <contour>
      <point x="263" y="328" type="line"/>
      <point x="50" y="328" type="line"/>
      <point x="45" y="312" type="line"/>
      <point x="48" y="308" type="line"/>
      <point x="260" y="308" type="line"/>
      <point x="265" y="324" type="line"/>
    </contour>
  </outline>
</glyph>
<glyph name="brokenbar" format="2">
  <advance width="320.872"/>
  <unicode hex="00A6"/>
  <outline>
    <contour>
      <point x="238" y="791" type="line"/>
      <point x="220" y="789" type="line"/>
      <point x="168" y="369" type="line"/>
      <point x="171" y="366" type="line"/>
      <point x="188" y="368" type="line"/>
      <point x="240" y="789" type="line"/>
    </contour>
    <contour>
      <point x="159" y="160" type="line"/>
      <point x="142" y="157" type="line"/>
      <point x="91" y="-261" type="line"/>
      <point x="93" y="-265" type="line"/>
      <point x="110" y="-265" type="line"/>
      <point x="162" y="155" type="line"/>
    </contour>
  </outline>
</glyph>
<glyph name="section" format="2">
  <advance width="383"/>
  <unicode hex="00A7"/>
  <outline>
    <contour>
      <point x="170" y="441" type="line"/>
      <point x="101" y="408"/>
      <point x="52" y="357"/>
      <point x="52" y="299" type="curve" smooth="yes"/>
      <point x="52" y="183"/>
      <point x="244" y="126"/>
      <point x="244" y="22" type="curve" smooth="yes"/>
      <point x="244" y="-31"/>
      <point x="193" y="-85"/>
      <point x="111" y="-85" type="curve" smooth="yes"/>
      <point x="73" y="-85"/>
      <point x="37" y="-73"/>
      <point x="9" y="-50" type="curve"/>
      <point x="3" y="-53" type="line"/>
      <point x="-2" y="-70" type="line"/>
      <point x="27" y="-92"/>
      <point x="68" y="-105"/>
      <point x="108" y="-105" type="curve" smooth="yes"/>
      <point x="197" y="-105"/>
      <point x="265" y="-44"/>
      <point x="265" y="25" type="curve" smooth="yes"/>
      <point x="265" y="140"/>
      <point x="72" y="199"/>
      <point x="72" y="301" type="curve" smooth="yes"/>
      <point x="72" y="346"/>
      <point x="112" y="394"/>
      <point x="181" y="426" type="curve"/>
    </contour>
    <contour>
      <point x="274" y="640" type="curve" smooth="yes"/>
      <point x="190" y="640"/>
      <point x="125" y="582"/>
      <point x="125" y="515" type="curve" smooth="yes"/>
      <point x="125" y="402"/>
      <point x="317" y="346"/>
      <point x="317" y="238" type="curve" smooth="yes"/>
      <point x="317" y="192"/>
      <point x="283" y="150"/>
      <point x="208" y="117" type="curve"/>
      <point x="220" y="102" type="line"/>
      <point x="296" y="137"/>
      <point x="337" y="184"/>
      <point x="337" y="240" type="curve" smooth="yes"/>
      <point x="337" y="359"/>
      <point x="146" y="418"/>
      <point x="146" y="516" type="curve" smooth="yes"/>
      <point x="146" y="565"/>
      <point x="192" y="620"/>
      <point x="269" y="620" type="curve" smooth="yes"/>
      <point x="292" y="620"/>
      <point x="320" y="615"/>
      <point x="351" y="600" type="curve"/>
      <point x="357" y="601" type="line"/>
      <point x="363" y="620" type="line"/>
      <point x="329" y="635"/>
      <point x="298" y="640"/>
    </contour>
  </outline>
</glyph>
<glyph name="copyright" format="2">
  <advance width="687.854"/>
  <unicode hex="00A9"/>
  <outline>
    <contour>
      <point x="351" y="598" type="curve" smooth="yes"/>
      <point x="176" y="598"/>
      <point x="60" y="476"/>
      <point x="60" y="293" type="curve" smooth="yes"/>
      <point x="60" y="110"/>
      <point x="176" y="-12"/>
      <point x="351" y="-12" type="curve" smooth="yes"/>
      <point x="526" y="-12"/>
      <point x="643" y="110"/>
      <point x="643" y="293" type="curve" smooth="yes"/>
      <point x="643" y="476"/>
      <point x="526" y="598"/>
    </contour>
    <contour>
      <point x="360" y="465" type="curve" smooth="yes"/>
      <point x="263" y="465"/>
      <point x="210" y="404"/>
      <point x="210" y="295" type="curve" smooth="yes"/>
      <point x="210" y="186"/>
      <point x="260" y="125"/>
      <point x="354" y="125" type="curve" smooth="yes"/>
      <point x="388" y="125"/>
      <point x="425" y="138"/>
      <point x="456" y="157" type="curve"/>
      <point x="458" y="176" type="line"/>
      <point x="454" y="177" type="line"/>
      <point x="425" y="156"/>
      <point x="388" y="145"/>
      <point x="355" y="145" type="curve" smooth="yes"/>
      <point x="275" y="145"/>
      <point x="230" y="198"/>
      <point x="230" y="295" type="curve" smooth="yes"/>
      <point x="230" y="392"/>
      <point x="276" y="445"/>
      <point x="360" y="445" type="curve" smooth="yes"/>
      <point x="392" y="445"/>
      <point x="424" y="436"/>
      <point x="448" y="418" type="curve"/>
      <point x="453" y="418" type="line"/>
      <point x="458" y="436" type="line"/>
      <point x="430" y="454"/>
      <point x="395" y="465"/>
    </contour>
    <contour>
      <point x="351" y="578" type="curve" smooth="yes"/>
      <point x="514" y="578"/>
      <point x="623" y="464"/>
      <point x="623" y="293" type="curve" smooth="yes"/>
      <point x="623" y="122"/>
      <point x="514" y="8"/>
      <point x="351" y="8" type="curve" smooth="yes"/>
      <point x="188" y="8"/>
      <point x="80" y="122"/>
      <point x="80" y="293" type="curve" smooth="yes"/>
      <point x="80" y="464"/>
      <point x="188" y="578"/>
    </contour>
  </outline>
</glyph>
<glyph name="paragraph" format="2">
  <advance width="448.027"/>
  <unicode hex="00B6"/>
  <outline>
    <contour>
      <point x="459" y="637" type="line"/>
      <point x="295" y="637" type="line" smooth="yes"/>
      <point x="158" y="637"/>
      <point x="79" y="558"/>
      <point x="79" y="428" type="curve" smooth="yes"/>
      <point x="79" y="327"/>
      <point x="142" y="267"/>
      <point x="249" y="249" type="curve"/>
      <point x="255" y="269" type="line"/>
      <point x="154" y="287"/>
      <point x="99" y="344"/>
      <point x="99" y="432" type="curve" smooth="yes"/>
      <point x="99" y="543"/>
      <point x="168" y="611"/>
      <point x="285" y="617" type="curve"/>
      <point x="356" y="617" type="line"/>
      <point x="300" y="158" type="line"/>
      <point x="295" y="118" type="line" smooth="yes"/>
      <point x="287" y="54"/>
      <point x="244" y="0"/>
      <point x="160" y="-51" type="curve"/>
      <point x="159" y="-57" type="line"/>
      <point x="168" y="-68" type="line"/>
      <point x="260" y="-12"/>
      <point x="306" y="48"/>
      <point x="315" y="122" type="curve" smooth="yes"/>
      <point x="321" y="168" type="line"/>
      <point x="376" y="617" type="line"/>
      <point x="457" y="617" type="line"/>
      <point x="462" y="633" type="line"/>
    </contour>
  </outline>
</glyph>
<glyph name="Eth" format="2">
  <advance width="630"/>
  <unicode hex="00D0"/>
  <outline>
    <contour>
      <point x="370" y="642" type="curve"/>
      <point x="180" y="637" type="line"/>
      <point x="190" y="617" type="line"/>
      <point x="216" y="618"/>
      <point x="346" y="622"/>
      <point x="368" y="622" type="curve" smooth="yes"/>
      <point x="505" y="622"/>
      <point x="578" y="538"/>
      <point x="578" y="390" type="curve" smooth="yes"/>
      <point x="578" y="162"/>
      <point x="470" y="15"/>
      <point x="283" y="15" type="curve" smooth="yes"/>
      <point x="258" y="15"/>
      <point x="146" y="18"/>
      <point x="113" y="20" type="curve"/>
      <point x="100" y="0" type="line"/>
      <point x="142" y="-2"/>
      <point x="256" y="-5"/>
      <point x="280" y="-5" type="curve"/>
      <point x="483" y="-5"/>
      <point x="599" y="151"/>
      <point x="599" y="393" type="curve" smooth="yes"/>
      <point x="599" y="552"/>
      <point x="518" y="642"/>
    </contour>
    <contour>
      <point x="200" y="637" type="line"/>
      <point x="180" y="637" type="line"/>
      <point x="125" y="195" type="line"/>
      <point x="100" y="0" type="line"/>
      <point x="120" y="0" type="line"/>
      <point x="145" y="195" type="line"/>
    </contour>
    <contour>
      <point x="343.4" y="339" type="line"/>
      <point x="33.2" y="339" type="line"/>
      <point x="30.8" y="322" type="line"/>
      <point x="32.0" y="319" type="line"/>
      <point x="342.2" y="319" type="line"/>
      <point x="344.59999999999997" y="336" type="line"/>
    </contour>
  </outline>
</glyph>
<glyph name="divide" format="2">
  <advance width="479"/>
  <unicode hex="00F7"/>
  <outline>
    <contour>
      <point x="442" y="280" type="line"/>
      <point x="45" y="280" type="line"/>
      <point x="43" y="263" type="line"/>
      <point x="46" y="260" type="line"/>
      <point x="443" y="260" type="line"/>
      <point x="445" y="277" type="line"/>
    </contour>
    <contour>
      <point x="223" y="108" type="curve" smooth="yes"/>
      <point x="211" y="108"/>
      <point x="203" y="100"/>
      <point x="203" y="88" type="curve" smooth="yes"/>
      <point x="203" y="76"/>
      <point x="211" y="68"/>
      <point x="223" y="68" type="curve" smooth="yes"/>
      <point x="235" y="68"/>
      <point x="243" y="76"/>
      <point x="243" y="88" type="curve" smooth="yes"/>
      <point x="243" y="100"/>
      <point x="235" y="108"/>
    </contour>
    <contour>
      <point x="267" y="471" type="curve" smooth="yes"/>
      <point x="255" y="471"/>
      <point x="247" y="463"/>
      <point x="247" y="451" type="curve" smooth="yes"/>
      <point x="247" y="439"/>
      <point x="255" y="431"/>
      <point x="267" y="431" type="curve" smooth="yes"/>
      <point x="279" y="431"/>
      <point x="287" y="439"/>
      <point x="287" y="451" type="curve" smooth="yes"/>
      <point x="287" y="463"/>
      <point x="279" y="471"/>
    </contour>
  </outline>
</glyph>
<glyph name="gcommaaccent" format="2">
  <advance width="415"/>
  <unicode hex="0123"/>
  <outline>
    <contour>
      <point x="347" y="459" type="line"/>
      <point x="328" y="448" type="line"/>
      <point x="322" y="370" type="line"/>
      <point x="278" y="31" type="line" smooth="yes"/>
      <point x="259" y="-108"/>
      <point x="184" y="-177"/>
      <point x="82" y="-177" type="curve" smooth="yes"/>
      <point x="3" y="-177"/>
      <point x="-30" y="-121"/>
      <point x="-33" y="-96" type="curve"/>
      <point x="-33" y="-91"/>
      <point x="-32" y="-90"/>
      <point x="-27" y="-86" type="curve" smooth="yes"/>
      <point x="117" y="31" type="line"/>
      <point x="94" y="47" type="line"/>
      <point x="94" y="37" type="line"/>
      <point x="-56" y="-85" type="line"/>
      <point x="-58" y="-92" type="line"/>
      <point x="-40" y="-156"/>
      <point x="6" y="-197"/>
      <point x="82" y="-197" type="curve" smooth="yes"/>
      <point x="196" y="-197"/>
      <point x="279" y="-124"/>
      <point x="299" y="35" type="curve" smooth="yes"/>
      <point x="311" y="133" type="line"/>
      <point x="352" y="456" type="line"/>
    </contour>
    <contour>
      <point x="277" y="455" type="line"/>
      <point x="273" y="455" type="line"/>
      <point x="136" y="447"/>
      <point x="59" y="315"/>
      <point x="59" y="158" type="curve" smooth="yes"/>
      <point x="59" y="88"/>
      <point x="75" y="55"/>
      <point x="106" y="31" type="curve"/>
      <point x="117" y="31" type="line"/>
      <point x="183" y="91"/>
      <point x="241" y="182"/>
      <point x="307" y="286" type="curve"/>
      <point x="312" y="286" type="line"/>
      <point x="329" y="363" type="line"/>
      <point x="224" y="170"/>
      <point x="127" y="57"/>
      <point x="114" y="57" type="curve" smooth="yes"/>
      <point x="104" y="57"/>
      <point x="78" y="82"/>
      <point x="78" y="162" type="curve" smooth="yes"/>
      <point x="78" y="304"/>
      <point x="152" y="436"/>
      <point x="274" y="436" type="curve"/>
      <point x="341" y="434" type="line"/>
      <point x="344" y="452" type="line"/>
    </contour>
    <contour>
      <point x="316" y="520" type="curve"/>
      <point x="321" y="527"/>
      <point x="325" y="532"/>
      <point x="326" y="536" type="curve"/>
      <point x="326" y="540" type="line"/>
      <point x="300" y="546"/>
      <point x="288" y="560"/>
      <point x="288" y="579" type="curve" smooth="yes"/>
      <point x="288" y="602"/>
      <point x="302" y="630"/>
      <point x="332" y="662" type="curve"/>
      <point x="332" y="666" type="line"/>
      <point x="319" y="677" type="line"/>
      <point x="283" y="639"/>
      <point x="266" y="604"/>
      <point x="266" y="575" type="curve" smooth="yes"/>
      <point x="266" y="547"/>
      <point x="282" y="528"/>
    </contour>
  </outline>
</glyph>
<glyph name="Hbar" format="2">
  <advance width="661"/>
  <unicode hex="0126"/>
  <anchor x="301" y="0" name="bottom"/>
  <anchor x="346" y="319" name="center"/>
  <anchor x="380" y="637" name="top"/>
  <anchor x="79" y="637" name="topleft"/>
  <outline>
    <contour>
      <point x="637" y="504" type="line"/>
      <point x="86" y="504" type="line"/>
      <point x="84" y="487" type="line"/>
      <point x="87" y="484" type="line"/>
      <point x="638" y="484" type="line"/>
      <point x="640" y="501" type="line"/>
    </contour>
    <contour>
      <point x="594" y="637" type="line"/>
      <point x="574" y="637" type="line"/>
      <point x="519" y="195" type="line"/>
      <point x="494" y="0" type="line"/>
      <point x="514" y="0" type="line"/>
      <point x="539" y="195" type="line"/>
    </contour>
    <contour>
      <point x="189" y="637" type="line"/>
      <point x="169" y="637" type="line"/>
      <point x="114" y="195" type="line"/>
      <point x="89" y="0" type="line"/>
      <point x="109" y="0" type="line"/>
      <point x="134" y="195" type="line"/>
    </contour>
    <contour>
      <point x="545" y="334" type="line"/>
      <point x="341" y="334" type="line"/>
      <point x="145" y="334" type="line"/>
      <point x="142" y="314" type="line"/>
      <point x="334" y="314" type="line"/>
      <point x="541" y="314" type="line"/>
    </contour>
  </outline>
</glyph>
<glyph name="hbar" format="2">
  <advance width="515.04"/>
  <unicode hex="0127"/>
  <anchor x="236" y="0" name="bottom"/>
  <anchor x="296" y="226" name="center"/>
  <anchor x="202" y="700" name="top"/>
  <outline>
    <contour>
      <point x="329" y="581" type="line"/>
      <point x="99" y="581" type="line"/>
      <point x="97" y="564" type="line"/>
      <point x="100" y="561" type="line"/>
      <point x="330" y="561" type="line"/>
      <point x="332" y="578" type="line"/>
    </contour>
    <contour>
      <point x="376" y="462" type="curve"/>
      <point x="365" y="462" type="line"/>
      <point x="296" y="416"/>
      <point x="230" y="319"/>
      <point x="152" y="184" type="curve"/>
      <point x="139" y="184" type="line"/>
      <point x="127" y="98" type="line"/>
      <point x="241" y="314"/>
      <point x="338" y="436"/>
      <point x="372" y="436" type="curve" smooth="yes"/>
      <point x="389" y="436"/>
      <point x="407" y="410"/>
      <point x="406" y="376" type="curve"/>
      <point x="405" y="361" type="line"/>
      <point x="346" y="-4" type="line"/>
      <point x="371" y="0" type="line"/>
      <point x="383" y="101" type="line"/>
      <point x="426" y="364" type="line"/>
      <point x="427" y="377" type="line"/>
      <point x="429" y="419"/>
      <point x="407" y="453"/>
    </contour>
    <contour>
      <point x="216" y="702" type="line"/>
      <point x="190" y="698" type="line"/>
      <point x="184" y="608" type="line"/>
      <point x="102" y="-4" type="line"/>
      <point x="128" y="0" type="line"/>
      <point x="137" y="106" type="line"/>
    </contour>
  </outline>
</glyph>
<glyph name="kgreenlandic" format="2">
  <advance width="428"/>
  <unicode hex="0138"/>
  <anchor x="155" y="10" name="ogonek"/>
  <anchor x="129" y="452" name="top"/>
  <outline>
    <contour>
      <point x="338" y="458" type="curve"/>
      <point x="322" y="457" type="line"/>
      <point x="251" y="423"/>
      <point x="189" y="324"/>
      <point x="111" y="189" type="curve"/>
      <point x="98" y="189" type="line"/>
      <point x="85" y="98" type="line"/>
      <point x="202" y="319"/>
      <point x="287" y="436"/>
      <point x="335" y="436" type="curve" smooth="yes"/>
      <point x="351" y="436"/>
      <point x="377" y="421"/>
      <point x="377" y="379" type="curve" smooth="yes"/>
      <point x="377" y="314"/>
      <point x="314" y="251"/>
      <point x="203" y="190" type="curve"/>
      <point x="202" y="181" type="line"/>
      <point x="248" y="117"/>
      <point x="295" y="53"/>
      <point x="345" y="-9" type="curve"/>
      <point x="349" y="-11" type="line"/>
      <point x="365" y="-3" type="line"/>
      <point x="365" y="0" type="line"/>
      <point x="316" y="60"/>
      <point x="270" y="121"/>
      <point x="227" y="183" type="curve"/>
      <point x="339" y="246"/>
      <point x="397" y="312"/>
      <point x="397" y="382" type="curve" smooth="yes"/>
      <point x="397" y="428"/>
      <point x="372" y="452"/>
    </contour>
    <contour>
      <point x="141" y="456" type="line"/>
      <point x="116" y="452" type="line"/>
      <point x="110" y="362" type="line"/>
      <point x="61" y="-4" type="line"/>
      <point x="88" y="0" type="line"/>
      <point x="95" y="106" type="line"/>
    </contour>
  </outline>
</glyph>
<glyph name="ldot" format="2">
  <advance width="238"/>
  <unicode hex="0140"/>
  <anchor x="90" y="0" name="bottom"/>
  <anchor x="178" y="700" name="top"/>
  <anchor x="272" y="452" name="topright"/>
  <outline>
    <contour>
      <point x="186" y="-78" type="move"/>
    </contour>
    <contour>
      <point x="191" y="702" type="line"/>
      <point x="165" y="698" type="line"/>
      <point x="159" y="608" type="line"/>
      <point x="77" y="-4" type="line"/>
      <point x="103" y="0" type="line"/>
      <point x="112" y="106" type="line"/>
    </contour>
    <contour>
      <point x="242" y="290" type="curve" smooth="yes"/>
      <point x="230" y="290"/>
      <point x="222" y="282"/>
      <point x="222" y="270" type="curve" smooth="yes"/>
      <point x="222" y="258"/>
      <point x="230" y="250"/>
      <point x="242" y="250" type="curve" smooth="yes"/>
      <point x="254" y="250"/>
      <point x="262" y="258"/>
      <point x="262" y="270" type="curve" smooth="yes"/>
      <point x="262" y="282"/>
      <point x="254" y="290"/>
    </contour>
  </outline>
</glyph>
<glyph name="Lslash" format="2">
  <advance width="387"/>
  <unicode hex="0141"/>
  <anchor x="208" y="0" name="bottom"/>
  <anchor x="208.419" y="319" name="center"/>
  <anchor x="179" y="637" name="top"/>
  <anchor x="375" y="387" name="topright"/>
  <outline>
    <contour>
      <point x="311" y="454" type="line"/>
      <point x="31" y="304" type="line"/>
      <point x="34" y="289" type="line"/>
      <point x="39" y="286" type="line"/>
      <point x="320" y="437" type="line"/>
      <point x="316" y="452" type="line"/>
    </contour>
    <contour>
      <point x="187" y="637" type="line"/>
      <point x="167" y="637" type="line"/>
      <point x="112" y="195" type="line"/>
      <point x="87" y="0" type="line"/>
      <point x="107" y="0" type="line"/>
      <point x="132" y="195" type="line"/>
    </contour>
    <contour>
      <point x="354" y="20" type="line"/>
      <point x="100" y="20" type="line"/>
      <point x="95" y="4" type="line"/>
      <point x="98" y="0" type="line"/>
      <point x="351" y="0" type="line"/>
      <point x="357" y="16" type="line"/>
    </contour>
  </outline>
</glyph>
<glyph name="lslash" format="2">
  <advance width="212"/>
  <unicode hex="0142"/>
  <anchor x="89" y="0" name="bottom"/>
  <anchor x="177" y="700" name="top"/>
  <anchor x="227" y="452" name="topright"/>
  <outline>
    <contour>
      <point x="235" y="456" type="line"/>
      <point x="132" y="404" type="line"/>
      <point x="120" y="399" type="line"/>
      <point x="8" y="343" type="line"/>
      <point x="11" y="328" type="line"/>
      <point x="16" y="325" type="line"/>
      <point x="117" y="376" type="line"/>
      <point x="129" y="381" type="line"/>
      <point x="243" y="439" type="line"/>
      <point x="240" y="454" type="line"/>
    </contour>
    <contour>
      <point x="176" y="702" type="line"/>
      <point x="150" y="698" type="line"/>
      <point x="144" y="608" type="line"/>
      <point x="62" y="-4" type="line"/>
      <point x="88" y="0" type="line"/>
      <point x="97" y="106" type="line"/>
    </contour>
  </outline>
</glyph>
<glyph name="Eng" format="2">
  <advance width="648"/>
  <unicode hex="014A"/>
  <outline>
    <contour>
      <point x="589" y="638" type="line"/>
      <point x="569" y="636" type="line"/>
      <point x="494" y="42" type="line"/>
      <point x="490" y="42" type="line"/>
      <point x="179" y="637" type="line"/>
      <point x="160" y="637" type="line"/>
      <point x="104" y="190" type="line"/>
      <point x="81" y="0" type="line"/>
      <point x="101" y="0" type="line"/>
      <point x="125" y="199" type="line"/>
      <point x="174" y="595" type="line"/>
      <point x="178" y="595" type="line"/>
      <point x="487" y="5" type="line"/>
      <point x="471" y="-47"/>
      <point x="434" y="-83"/>
      <point x="358" y="-127" type="curve"/>
      <point x="357" y="-133" type="line"/>
      <point x="367" y="-144" type="line"/>
      <point x="465" y="-88"/>
      <point x="504" y="-40"/>
      <point x="513" y="39" type="curve" smooth="yes"/>
      <point x="531" y="176" type="line"/>
    </contour>
  </outline>
</glyph>
<glyph name="Ohorn" format="2">
  <advance width="635"/>
  <unicode hex="01A0"/>
  <anchor x="351" y="637" name="top"/>
  <outline>
    <contour>
      <point x="269" y="-5" type="curve" smooth="yes"/>
      <point x="451" y="-5"/>
      <point x="568" y="146"/>
      <point x="568" y="382" type="curve" smooth="yes"/>
      <point x="568" y="488"/>
      <point x="546" y="552"/>
      <point x="494" y="595" type="curve"/>
      <point x="498" y="588" type="line"/>
      <point x="554" y="580"/>
      <point x="596" y="614"/>
      <point x="596" y="668" type="curve" smooth="yes"/>
      <point x="596" y="700"/>
      <point x="581" y="735"/>
      <point x="567" y="735" type="curve" smooth="yes"/>
      <point x="564" y="735"/>
      <point x="560" y="733"/>
      <point x="554" y="730" type="curve"/>
      <point x="552" y="725" type="line"/>
      <point x="567" y="705"/>
      <point x="575" y="682"/>
      <point x="575" y="661" type="curve" smooth="yes"/>
      <point x="575" y="629"/>
      <point x="549" y="606"/>
      <point x="515" y="606" type="curve" smooth="yes"/>
      <point x="469" y="606"/>
      <point x="452" y="642"/>
      <point x="359" y="642" type="curve" smooth="yes"/>
      <point x="173" y="642"/>
      <point x="57" y="498"/>
      <point x="57" y="265" type="curve" smooth="yes"/>
      <point x="57" y="85"/>
      <point x="128" y="-5"/>
    </contour>
    <contour>
      <point x="271" y="15" type="curve" smooth="yes"/>
      <point x="142" y="15"/>
      <point x="77" y="99"/>
      <point x="77" y="266" type="curve" smooth="yes"/>
      <point x="77" y="483"/>
      <point x="184" y="622"/>
      <point x="353" y="622" type="curve" smooth="yes"/>
      <point x="483" y="622"/>
      <point x="548" y="540"/>
      <point x="548" y="375" type="curve" smooth="yes"/>
      <point x="548" y="157"/>
      <point x="438" y="15"/>
    </contour>
  </outline>
</glyph>
<glyph name="Ezh" format="2">
  <advance width="475"/>
  <unicode hex="01B7"/>
  <anchor x="198" y="0" name="bottom"/>
  <anchor x="271" y="637" name="top"/>
  <outline>
    <contour>
      <point x="182" y="-7" type="curve" smooth="yes"/>
      <point x="309" y="-7"/>
      <point x="410" y="80"/>
      <point x="410" y="192" type="curve" smooth="yes"/>
      <point x="410" y="287"/>
      <point x="328" y="342"/>
      <point x="196" y="342" type="curve"/>
      <point x="185" y="337" type="line"/>
      <point x="183" y="325" type="line"/>
      <point x="186" y="322" type="line"/>
      <point x="195" y="322" type="line" smooth="yes"/>
      <point x="318" y="322"/>
      <point x="390" y="273"/>
      <point x="390" y="190" type="curve" smooth="yes"/>
      <point x="390" y="90"/>
      <point x="299" y="13"/>
      <point x="183" y="13" type="curve" smooth="yes"/>
      <point x="123" y="13"/>
      <point x="68" y="34"/>
      <point x="35" y="71" type="curve"/>
      <point x="30" y="70" type="line"/>
      <point x="21" y="55" type="line"/>
      <point x="56" y="16"/>
      <point x="117" y="-7"/>
    </contour>
    <contour>
      <point x="185" y="337" type="line"/>
      <point x="209" y="337" type="line"/>
      <point x="454" y="620" type="line"/>
      <point x="457" y="638" type="line"/>
      <point x="420" y="637" type="line"/>
      <point x="161" y="637" type="line"/>
      <point x="98" y="638" type="line"/>
      <point x="92" y="621" type="line"/>
      <point x="96" y="616" type="line"/>
      <point x="153" y="617" type="line"/>
      <point x="437" y="617" type="line"/>
      <point x="434" y="624" type="line"/>
    </contour>
  </outline>
</glyph>
<glyph name="Gstroke" format="2">
  <advance width="589"/>
  <unicode hex="01E4"/>
  <anchor x="270" y="0" name="bottom"/>
  <anchor x="361" y="637" name="top"/>
  <outline>
    <contour>
      <point x="268" y="-4" type="curve" smooth="yes"/>
      <point x="336" y="-3"/>
      <point x="381" y="5"/>
      <point x="467" y="30" type="curve"/>
      <point x="483" y="158" type="line"/>
      <point x="494" y="248" type="line"/>
      <point x="473" y="246" type="line"/>
      <point x="463" y="158" type="line"/>
      <point x="449" y="45" type="line"/>
      <point x="368" y="22"/>
      <point x="327" y="15"/>
      <point x="268" y="15" type="curve" smooth="yes"/>
      <point x="143" y="15"/>
      <point x="75" y="101"/>
      <point x="75" y="254" type="curve" smooth="yes"/>
      <point x="75" y="485"/>
      <point x="186" y="621"/>
      <point x="375" y="621" type="curve" smooth="yes"/>
      <point x="425" y="621"/>
      <point x="479" y="602"/>
      <point x="527" y="569" type="curve"/>
      <point x="534" y="569" type="line"/>
      <point x="542" y="587" type="line"/>
      <point x="490" y="622"/>
      <point x="432" y="641"/>
      <point x="378" y="641" type="curve" smooth="yes"/>
      <point x="174" y="641"/>
      <point x="55" y="496"/>
      <point x="55" y="252" type="curve" smooth="yes"/>
      <point x="55" y="88"/>
      <point x="130" y="-5"/>
    </contour>
    <contour>
      <point x="321" y="142" type="line"/>
      <point x="541" y="142" type="line"/>
      <point x="544" y="159" type="line"/>
      <point x="542" y="162" type="line"/>
      <point x="322" y="162" type="line"/>
      <point x="318" y="145" type="line"/>
    </contour>
  </outline>
</glyph>
<glyph name="Aringacute" format="2">
  <advance width="524"/>
  <unicode hex="01FA"/>
  <anchor x="308" y="540" name="_top"/>
  <anchor x="335" y="756" name="top"/>
  <outline>
    <contour>
      <point x="333" y="634" type="line"/>
      <point x="311" y="634" type="line"/>
      <point x="-8" y="0" type="line" smooth="yes"/>
      <point x="16" y="0" type="line"/>
      <point x="35" y="43" type="line"/>
      <point x="315" y="603" type="line"/>
      <point x="318" y="603" type="line"/>
      <point x="440" y="43" type="line"/>
      <point x="447" y="0" type="line"/>
      <point x="470" y="0" type="line"/>
    </contour>
    <contour>
      <point x="411" y="233" type="line"/>
      <point x="261" y="233" type="line"/>
      <point x="117" y="233" type="line"/>
      <point x="109" y="213" type="line"/>
      <point x="254" y="213" type="line"/>
      <point x="413" y="213" type="line"/>
    </contour>
    <contour>
      <point x="300" y="297" type="move"/>
    </contour>
    <contour>
      <point x="325" y="756" type="curve" smooth="yes"/>
      <point x="283" y="756"/>
      <point x="255" y="726"/>
      <point x="255" y="687" type="curve" smooth="yes"/>
      <point x="255" y="643"/>
      <point x="290" y="617"/>
      <point x="325" y="617" type="curve" smooth="yes"/>
      <point x="360" y="617"/>
      <point x="396" y="642"/>
      <point x="396" y="686" type="curve" smooth="yes"/>
      <point x="396" y="721"/>
      <point x="371" y="756"/>
    </contour>
    <contour>
      <point x="325" y="736" type="curve" smooth="yes"/>
      <point x="359" y="736"/>
      <point x="376" y="713"/>
      <point x="376" y="686" type="curve" smooth="yes"/>
      <point x="376" y="654"/>
      <point x="352" y="637"/>
      <point x="325" y="637" type="curve" smooth="yes"/>
      <point x="298" y="637"/>
      <point x="275" y="655"/>
      <point x="275" y="687" type="curve" smooth="yes"/>
      <point x="275" y="716"/>
      <point x="294" y="736"/>
    </contour>
    <contour>
      <point x="436.964" y="865.231" type="line"/>
      <point x="366.705" y="834.569"/>
      <point x="307.59" y="812.613"/>
      <point x="250.826" y="793.391" type="curve"/>
      <point x="255.945" y="777.65" type="line"/>
      <point x="260.542" y="774.063" type="line"/>
      <point x="322.756" y="796.646"/>
      <point x="381.871" y="818.602"/>
      <point x="444.573" y="845.155" type="curve"/>
      <point x="447.168" y="849.874" type="line"/>
      <point x="441.683" y="862.637" type="line"/>
    </contour>
  </outline>
</glyph>
<glyph name="ezh" format="2">
  <advance width="370"/>
  <unicode hex="0292"/>
  <anchor x="155" y="0" name="bottom"/>
  <anchor x="211" y="452" name="top"/>
  <outline>
    <contour>
      <point x="47" y="-191" type="curve" smooth="yes"/>
      <point x="193" y="-191"/>
      <point x="297" y="-106"/>
      <point x="297" y="14" type="curve" smooth="yes"/>
      <point x="297" y="86"/>
      <point x="245" y="134"/>
      <point x="137" y="158" type="curve" smooth="yes"/>
      <point x="92" y="168" type="line"/>
      <point x="89" y="166" type="line"/>
      <point x="85" y="151" type="line"/>
      <point x="87" y="148" type="line"/>
      <point x="127" y="138" type="line" smooth="yes"/>
      <point x="228" y="113"/>
      <point x="276" y="73"/>
      <point x="276" y="12" type="curve" smooth="yes"/>
      <point x="276" y="-95"/>
      <point x="183" y="-171"/>
      <point x="51" y="-171" type="curve" smooth="yes"/>
      <point x="31" y="-171"/>
      <point x="5" y="-169"/>
      <point x="-24" y="-164" type="curve"/>
      <point x="-27" y="-167" type="line"/>
      <point x="-25" y="-184" type="line"/>
      <point x="1" y="-189"/>
      <point x="27" y="-191"/>
    </contour>
    <contour>
      <point x="107" y="158" type="line"/>
      <point x="360" y="455" type="line"/>
      <point x="349" y="464" type="line"/>
      <point x="332" y="452" type="line"/>
      <point x="88" y="452" type="line"/>
      <point x="42" y="454" type="line"/>
      <point x="40" y="452" type="line"/>
      <point x="36" y="435" type="line"/>
      <point x="38" y="431" type="line"/>
      <point x="80" y="432" type="line"/>
      <point x="316" y="432" type="line"/>
      <point x="89" y="166" type="line"/>
    </contour>
  </outline>
</glyph>
<glyph name="ringhalfright" format="2">
  <advance width="250"/>
  <unicode hex="02BE"/>
  <outline>
    <contour>
      <point x="117" y="489" type="line"/>
      <point x="165" y="489"/>
      <point x="201" y="522"/>
      <point x="201" y="566" type="curve" smooth="yes"/>
      <point x="201" y="603"/>
      <point x="175" y="628"/>
      <point x="134" y="628" type="curve"/>
      <point x="132" y="608" type="line"/>
      <point x="163" y="608"/>
      <point x="181" y="591"/>
      <point x="181" y="565" type="curve" smooth="yes"/>
      <point x="181" y="531"/>
      <point x="157" y="509"/>
      <point x="119" y="509" type="curve"/>
    </contour>
  </outline>
</glyph>
<glyph name="ringhalfleft" format="2">
  <advance width="249"/>
  <unicode hex="02BF"/>
  <outline>
    <contour>
      <point x="214" y="628" type="line"/>
      <point x="167" y="628"/>
      <point x="130" y="595"/>
      <point x="130" y="551" type="curve" smooth="yes"/>
      <point x="130" y="514"/>
      <point x="156" y="489"/>
      <point x="197" y="489" type="curve"/>
      <point x="199" y="509" type="line"/>
      <point x="168" y="509"/>
      <point x="150" y="526"/>
      <point x="150" y="552" type="curve" smooth="yes"/>
      <point x="150" y="586"/>
      <point x="175" y="608"/>
      <point x="212" y="608" type="curve"/>
    </contour>
  </outline>
</glyph>
<glyph name="gravecomb" format="2">
  <unicode hex="0300"/>
  <anchor x="269" y="452" name="_top"/>
  <anchor x="258" y="669" name="top"/>
  <outline>
    <contour>
      <point x="183" y="669" type="curve"/>
      <point x="178" y="668" type="line"/>
      <point x="168" y="658" type="line"/>
      <point x="169" y="653" type="line"/>
      <point x="217" y="605"/>
      <point x="263" y="562"/>
      <point x="313" y="518" type="curve"/>
      <point x="318" y="519" type="line"/>
      <point x="329" y="532" type="line"/>
      <point x="283" y="571"/>
      <point x="237" y="614"/>
    </contour>
  </outline>
</glyph>
<glyph name="acutecomb" format="2">
  <unicode hex="0301"/>
  <anchor x="213" y="452" name="_top"/>
  <anchor x="243" y="669" name="top"/>
  <outline>
    <contour>
      <point x="299" y="669" type="line"/>
      <point x="245" y="614"/>
      <point x="199" y="571"/>
      <point x="153" y="532" type="curve"/>
      <point x="164" y="519" type="line"/>
      <point x="169" y="518" type="line"/>
      <point x="219" y="562"/>
      <point x="265" y="605"/>
      <point x="313" y="653" type="curve"/>
      <point x="314" y="658" type="line"/>
      <point x="304" y="668" type="line"/>
    </contour>
  </outline>
</glyph>
<glyph name="brevecomb" format="2">
  <unicode hex="0306"/>
  <anchor x="227" y="452" name="_top"/>
  <anchor x="251" y="640" name="top"/>
  <outline>
    <contour>
      <point x="333" y="640" type="line"/>
      <point x="328" y="640" type="line"/>
      <point x="311" y="573"/>
      <point x="281" y="542"/>
      <point x="234" y="542" type="curve" smooth="yes"/>
      <point x="186" y="542"/>
      <point x="164" y="573"/>
      <point x="163" y="640" type="curve"/>
      <point x="158" y="640" type="line"/>
      <point x="143" y="627" type="line"/>
      <point x="148" y="555"/>
      <point x="175" y="522"/>
      <point x="231" y="522" type="curve" smooth="yes"/>
      <point x="287" y="522"/>
      <point x="323" y="555"/>
      <point x="345" y="627" type="curve"/>
    </contour>
  </outline>
</glyph>
<glyph name="hookabovecomb" format="2">
  <unicode hex="0309"/>
  <anchor x="161" y="511" name="_custom1"/>
  <anchor x="159" y="452" name="_top"/>
  <anchor x="165" y="677" name="top"/>
  <outline>
    <contour>
      <point x="161" y="511" type="line"/>
      <point x="178" y="518" type="line"/>
      <point x="162" y="547" type="line"/>
      <point x="193" y="570"/>
      <point x="210" y="592"/>
      <point x="210" y="612" type="curve" smooth="yes"/>
      <point x="210" y="633"/>
      <point x="192" y="650"/>
      <point x="166" y="650" type="curve" smooth="yes"/>
      <point x="147" y="650"/>
      <point x="124" y="640"/>
      <point x="102" y="621" type="curve"/>
      <point x="110" y="607" type="line"/>
      <point x="128" y="622"/>
      <point x="148" y="630"/>
      <point x="164" y="630" type="curve" smooth="yes"/>
      <point x="180" y="630"/>
      <point x="190" y="622"/>
      <point x="190" y="610" type="curve" smooth="yes"/>
      <point x="190" y="595"/>
      <point x="172" y="574"/>
      <point x="139" y="552" type="curve"/>
    </contour>
  </outline>
</glyph>
<glyph name="ringcomb" format="2">
  <unicode hex="030A"/>
  <anchor x="222" y="452" name="_top"/>
  <anchor x="248" y="588" name="top"/>
  <outline>
    <contour>
      <point x="239" y="668" type="curve" smooth="yes"/>
      <point x="197" y="668"/>
      <point x="169" y="638"/>
      <point x="169" y="599" type="curve" smooth="yes"/>
      <point x="169" y="555"/>
      <point x="204" y="529"/>
      <point x="239" y="529" type="curve" smooth="yes"/>
      <point x="274" y="529"/>
      <point x="310" y="554"/>
      <point x="310" y="598" type="curve" smooth="yes"/>
      <point x="310" y="633"/>
      <point x="285" y="668"/>
    </contour>
    <contour>
      <point x="239" y="648" type="curve" smooth="yes"/>
      <point x="273" y="648"/>
      <point x="290" y="625"/>
      <point x="290" y="598" type="curve" smooth="yes"/>
      <point x="290" y="566"/>
      <point x="266" y="549"/>
      <point x="239" y="549" type="curve" smooth="yes"/>
      <point x="212" y="549"/>
      <point x="189" y="567"/>
      <point x="189" y="599" type="curve" smooth="yes"/>
      <point x="189" y="628"/>
      <point x="208" y="648"/>
    </contour>
  </outline>
</glyph>
<glyph name="caroncomb" format="2">
  <unicode hex="030C"/>
  <anchor x="230" y="452" name="_top"/>
  <anchor x="255" y="658" name="top"/>
  <outline>
    <contour>
      <point x="349" y="658" type="line"/>
      <point x="344" y="658" type="line"/>
      <point x="304" y="619"/>
      <point x="270" y="582"/>
      <point x="234" y="541" type="curve"/>
      <point x="208" y="582"/>
      <point x="183" y="619"/>
      <point x="153" y="658" type="curve"/>
      <point x="148" y="658" type="line"/>
      <point x="137" y="646" type="line"/>
      <point x="166" y="609"/>
      <point x="193" y="569"/>
      <point x="224" y="520" type="curve"/>
      <point x="242" y="520" type="line"/>
      <point x="284" y="569"/>
      <point x="319" y="609"/>
      <point x="357" y="646" type="curve"/>
    </contour>
  </outline>
</glyph>
<glyph name="dblgravecomb" format="2">
  <unicode hex="030F"/>
  <anchor x="256" y="452" name="_top"/>
  <anchor x="200" y="667" name="top"/>
  <outline>
    <contour>
      <point x="374" y="517" type="line"/>
      <point x="385" y="530" type="line"/>
      <point x="334" y="575"/>
      <point x="286" y="620"/>
      <point x="239" y="667" type="curve"/>
      <point x="234" y="666" type="line"/>
      <point x="224" y="656" type="line"/>
      <point x="225" y="651" type="line"/>
      <point x="272" y="605"/>
      <point x="320" y="560"/>
      <point x="369" y="516" type="curve"/>
    </contour>
    <contour>
      <point x="244" y="517" type="line"/>
      <point x="255" y="530" type="line"/>
      <point x="204" y="575"/>
      <point x="156" y="620"/>
      <point x="109" y="667" type="curve"/>
      <point x="104" y="666" type="line"/>
      <point x="94" y="656" type="line"/>
      <point x="95" y="651" type="line"/>
      <point x="142" y="605"/>
      <point x="190" y="560"/>
      <point x="239" y="516" type="curve"/>
    </contour>
  </outline>
</glyph>
<glyph name="horncomb" format="2">
  <unicode hex="031B"/>
  <anchor x="134" y="452" name="_topright"/>
  <anchor x="134" y="452" name="topright"/>
  <outline>
    <contour>
      <point x="82" y="434" type="line"/>
      <point x="142" y="435"/>
      <point x="186" y="465"/>
      <point x="186" y="522" type="curve" smooth="yes"/>
      <point x="186" y="567"/>
      <point x="159" y="600"/>
      <point x="147" y="600" type="curve" smooth="yes"/>
      <point x="144" y="600"/>
      <point x="140" y="599"/>
      <point x="134" y="595" type="curve"/>
      <point x="132" y="590" type="line"/>
      <point x="154" y="567"/>
      <point x="166" y="542"/>
      <point x="166" y="518" type="curve" smooth="yes"/>
      <point x="166" y="475"/>
      <point x="124" y="452"/>
      <point x="82" y="452" type="curve"/>
    </contour>
  </outline>
</glyph>
<glyph name="lowernumeral-greek" format="2">
  <advance width="125"/>
  <unicode hex="0375"/>
  <outline>
    <contour>
      <point x="5" y="-135" type="line"/>
      <point x="22" y="-133" type="line"/>
      <point x="51" y="11" type="line"/>
      <point x="49" y="15" type="line"/>
      <point x="32" y="13" type="line"/>
      <point x="2" y="-131" type="line"/>
    </contour>
  </outline>
</glyph>
<glyph name="tonos" format="2">
  <advance width="177"/>
  <unicode hex="0384"/>
  <anchor x="94" y="452" name="top"/>
  <anchor x="171" y="661" name="topleft"/>
  <outline>
    <contour>
      <point x="163" y="674" type="line"/>
      <point x="135" y="616"/>
      <point x="111" y="569"/>
      <point x="87" y="526" type="curve"/>
      <point x="99" y="520" type="line"/>
      <point x="104" y="521" type="line"/>
      <point x="131" y="570"/>
      <point x="156" y="615"/>
      <point x="182" y="665" type="curve"/>
      <point x="181" y="671" type="line"/>
      <point x="168" y="675" type="line"/>
    </contour>
  </outline>
</glyph>
<glyph name="dieresistonos" format="2">
  <advance width="262"/>
  <unicode hex="0385"/>
  <anchor x="158" y="452" name="top"/>
  <outline>
    <contour>
      <point x="163" y="540" type="line"/>
      <point x="168" y="541" type="line"/>
      <point x="214" y="650" type="line"/>
      <point x="212" y="656" type="line"/>
      <point x="199" y="660" type="line"/>
      <point x="194" y="659" type="line"/>
      <point x="178" y="615"/>
      <point x="164" y="579"/>
      <point x="149" y="546" type="curve"/>
    </contour>
    <contour>
      <point x="103" y="554" type="curve" smooth="yes"/>
      <point x="115" y="554"/>
      <point x="123" y="562"/>
      <point x="123" y="574" type="curve" smooth="yes"/>
      <point x="123" y="586"/>
      <point x="115" y="594"/>
      <point x="103" y="594" type="curve" smooth="yes"/>
      <point x="91" y="594"/>
      <point x="83" y="586"/>
      <point x="83" y="574" type="curve" smooth="yes"/>
      <point x="83" y="562"/>
      <point x="91" y="554"/>
    </contour>
    <contour>
      <point x="243" y="554" type="curve" smooth="yes"/>
      <point x="255" y="554"/>
      <point x="263" y="562"/>
      <point x="263" y="574" type="curve" smooth="yes"/>
      <point x="263" y="586"/>
      <point x="255" y="594"/>
      <point x="243" y="594" type="curve" smooth="yes"/>
      <point x="231" y="594"/>
      <point x="223" y="586"/>
      <point x="223" y="574" type="curve" smooth="yes"/>
      <point x="223" y="562"/>
      <point x="231" y="554"/>
    </contour>
  </outline>
</glyph>
<glyph name="Gamma" format="2">
  <advance width="394"/>
  <unicode hex="0393"/>
  <anchor x="80" y="0" name="bottomright"/>
  <anchor x="162" y="319" name="center"/>
  <outline>
    <contour>
      <point x="178" y="637" type="line"/>
      <point x="158" y="637" type="line"/>
      <point x="104" y="195" type="line"/>
      <point x="80" y="0" type="line"/>
      <point x="100" y="0" type="line"/>
      <point x="124" y="195" type="line"/>
    </contour>
    <contour>
      <point x="436" y="637" type="line"/>
      <point x="170" y="637" type="line"/>
      <point x="164" y="621" type="line"/>
      <point x="168" y="617" type="line"/>
      <point x="302" y="617" type="line"/>
      <point x="433" y="617" type="line"/>
      <point x="439" y="633" type="line"/>
    </contour>
  </outline>
</glyph>
<glyph name="Theta" format="2">
  <advance width="630"/>
  <unicode hex="0398"/>
  <outline>
    <contour>
      <point x="176" y="303" type="line"/>
      <point x="474" y="313" type="line"/>
      <point x="478" y="330" type="line"/>
      <point x="476" y="333" type="line"/>
      <point x="177" y="323" type="line"/>
      <point x="173" y="306" type="line"/>
    </contour>
    <contour>
      <point x="371" y="642" type="curve"/>
      <point x="171" y="642"/>
      <point x="56" y="498"/>
      <point x="56" y="258" type="curve" smooth="yes"/>
      <point x="56" y="90"/>
      <point x="135" y="-5"/>
      <point x="281" y="-5" type="curve" smooth="yes"/>
      <point x="482" y="-5"/>
      <point x="598" y="144"/>
      <point x="598" y="385" type="curve" smooth="yes"/>
      <point x="598" y="549"/>
      <point x="518" y="642"/>
    </contour>
    <contour>
      <point x="368" y="622" type="curve" smooth="yes"/>
      <point x="504" y="622"/>
      <point x="577" y="535"/>
      <point x="577" y="382" type="curve" smooth="yes"/>
      <point x="577" y="155"/>
      <point x="469" y="15"/>
      <point x="284" y="15" type="curve" smooth="yes"/>
      <point x="149" y="15"/>
      <point x="76" y="104"/>
      <point x="76" y="261" type="curve" smooth="yes"/>
      <point x="76" y="486"/>
      <point x="183" y="622"/>
    </contour>
  </outline>
</glyph>
<glyph name="Lambda" format="2">
  <advance width="524"/>
  <unicode hex="039B"/>
  <outline>
    <contour>
      <point x="-8" y="0" type="line"/>
      <point x="17" y="0" type="line"/>
      <point x="35" y="43" type="line"/>
      <point x="315" y="603" type="line"/>
      <point x="319" y="603" type="line"/>
      <point x="441" y="43" type="line"/>
      <point x="448" y="0" type="line"/>
      <point x="470" y="0" type="line"/>
      <point x="331" y="637" type="line"/>
      <point x="309" y="637" type="line"/>
    </contour>
  </outline>
</glyph>
<glyph name="Xi" format="2">
  <advance width="562"/>
  <unicode hex="039E"/>
  <outline>
    <contour>
      <point x="70" y="0" type="line"/>
      <point x="437" y="0" type="line"/>
      <point x="444" y="18" type="line"/>
      <point x="440" y="22" type="line"/>
      <point x="249" y="22" type="line"/>
      <point x="71" y="22" type="line"/>
      <point x="68" y="18" type="line"/>
    </contour>
    <contour>
      <point x="145" y="319" type="line"/>
      <point x="274" y="320" type="line"/>
      <point x="435" y="319" type="line"/>
      <point x="441" y="337" type="line"/>
      <point x="439" y="341" type="line"/>
      <point x="289" y="341" type="line"/>
      <point x="149" y="341" type="line"/>
      <point x="142" y="323" type="line"/>
    </contour>
    <contour>
      <point x="147" y="615" type="line"/>
      <point x="318" y="615" type="line"/>
      <point x="509" y="615" type="line"/>
      <point x="516" y="633" type="line"/>
      <point x="513" y="637" type="line"/>
      <point x="152" y="637" type="line"/>
      <point x="146" y="619" type="line"/>
    </contour>
  </outline>
</glyph>
<glyph name="Pi" format="2">
  <advance width="624"/>
  <unicode hex="03A0"/>
  <anchor x="470" y="0" name="bottomright"/>
  <outline>
    <contour>
      <point x="470" y="0" type="line"/>
      <point x="490" y="0" type="line"/>
      <point x="514" y="195" type="line"/>
      <point x="569" y="637" type="line"/>
      <point x="548" y="637" type="line"/>
      <point x="494" y="195" type="line"/>
    </contour>
    <contour>
      <point x="80" y="0" type="line"/>
      <point x="100" y="0" type="line"/>
      <point x="124" y="195" type="line"/>
      <point x="178" y="637" type="line"/>
      <point x="158" y="637" type="line"/>
      <point x="104" y="195" type="line"/>
    </contour>
    <contour>
      <point x="170" y="617" type="line"/>
      <point x="350" y="617" type="line"/>
      <point x="555" y="617" type="line"/>
      <point x="557" y="637" type="line"/>
      <point x="172" y="637" type="line"/>
    </contour>
  </outline>
</glyph>
<glyph name="Psi" format="2">
  <advance width="637"/>
  <unicode hex="03A8"/>
  <outline>
    <contour>
      <point x="307" y="131" type="curve" smooth="yes"/>
      <point x="461" y="131"/>
      <point x="561" y="212"/>
      <point x="576" y="359" type="curve"/>
      <point x="586" y="442" type="line"/>
      <point x="610" y="637" type="line"/>
      <point x="590" y="637" type="line"/>
      <point x="556" y="359" type="line" smooth="yes"/>
      <point x="539" y="222"/>
      <point x="451" y="151"/>
      <point x="309" y="151" type="curve" smooth="yes"/>
      <point x="165" y="151"/>
      <point x="96" y="222"/>
      <point x="113" y="359" type="curve" smooth="yes"/>
      <point x="147" y="637" type="line"/>
      <point x="127" y="637" type="line"/>
      <point x="104" y="452" type="line"/>
      <point x="93" y="359" type="line" smooth="yes"/>
      <point x="75" y="209"/>
      <point x="150" y="131"/>
    </contour>
    <contour>
      <point x="281" y="0" type="line"/>
      <point x="300" y="0" type="line"/>
      <point x="324" y="195" type="line"/>
      <point x="378" y="637" type="line"/>
      <point x="359" y="637" type="line"/>
      <point x="305" y="195" type="line"/>
    </contour>
  </outline>
</glyph>
<glyph name="delta" format="2">
  <advance width="386"/>
  <unicode hex="03B4"/>
  <outline>
    <contour>
      <point x="155" y="-5" type="curve" smooth="yes"/>
      <point x="260" y="-5"/>
      <point x="338" y="113"/>
      <point x="338" y="274" type="curve" smooth="yes"/>
      <point x="338" y="488"/>
      <point x="166" y="486"/>
      <point x="166" y="592" type="curve" smooth="yes"/>
      <point x="166" y="647"/>
      <point x="212" y="685"/>
      <point x="282" y="685" type="curve" smooth="yes"/>
      <point x="304" y="685"/>
      <point x="327" y="679"/>
      <point x="351" y="665" type="curve"/>
      <point x="357" y="666" type="line"/>
      <point x="364" y="685" type="line"/>
      <point x="345" y="695"/>
      <point x="321" y="702"/>
      <point x="292" y="705" type="curve"/>
      <point x="202" y="705"/>
      <point x="147" y="658"/>
      <point x="147" y="590" type="curve" smooth="yes"/>
      <point x="147" y="470"/>
      <point x="318" y="479"/>
      <point x="318" y="271" type="curve" smooth="yes"/>
      <point x="318" y="124"/>
      <point x="249" y="15"/>
      <point x="157" y="15" type="curve" smooth="yes"/>
      <point x="97" y="15"/>
      <point x="65" y="64"/>
      <point x="65" y="154" type="curve" smooth="yes"/>
      <point x="65" y="323"/>
      <point x="136" y="426"/>
      <point x="270" y="446" type="curve"/>
      <point x="239" y="472" type="line"/>
      <point x="233" y="457" type="line"/>
      <point x="115" y="430"/>
      <point x="45" y="317"/>
      <point x="45" y="154" type="curve" smooth="yes"/>
      <point x="45" y="51"/>
      <point x="83" y="-5"/>
    </contour>
  </outline>
</glyph>
<glyph name="eta" format="2">
  <advance width="442"/>
  <unicode hex="03B7"/>
  <anchor x="72" y="0" name="bottom"/>
  <anchor x="272" y="452" name="top"/>
  <outline>
    <contour>
      <point x="331" y="462" type="curve"/>
      <point x="320" y="462" type="line"/>
      <point x="250" y="416"/>
      <point x="185" y="319"/>
      <point x="107" y="184" type="curve"/>
      <point x="94" y="184" type="line"/>
      <point x="82" y="98" type="line"/>
      <point x="196" y="314"/>
      <point x="293" y="436"/>
      <point x="327" y="436" type="curve" smooth="yes"/>
      <point x="344" y="436"/>
      <point x="362" y="410"/>
      <point x="361" y="376" type="curve"/>
      <point x="360" y="361" type="line"/>
      <point x="271" y="-189" type="line"/>
      <point x="296" y="-185" type="line"/>
      <point x="308" y="-84" type="line"/>
      <point x="381" y="364" type="line"/>
      <point x="382" y="377" type="line"/>
      <point x="384" y="419"/>
      <point x="362" y="453"/>
    </contour>
    <contour>
      <point x="138" y="456" type="line"/>
      <point x="113" y="452" type="line"/>
      <point x="106" y="362" type="line"/>
      <point x="58" y="-4" type="line"/>
      <point x="83" y="0" type="line"/>
      <point x="92" y="106" type="line"/>
    </contour>
  </outline>
</glyph>
<glyph name="lambda" format="2">
  <advance width="365"/>
  <unicode hex="03BB"/>
  <outline>
    <contour>
      <point x="288" y="-2" type="curve" smooth="yes"/>
      <point x="297" y="-2"/>
      <point x="308" y="0"/>
      <point x="320" y="6" type="curve"/>
      <point x="327" y="24" type="line"/>
      <point x="323" y="27" type="line"/>
      <point x="292" y="10"/>
      <point x="280" y="16"/>
      <point x="276" y="49" type="curve" smooth="yes"/>
      <point x="211" y="531" type="line" smooth="yes"/>
      <point x="190" y="689"/>
      <point x="173" y="714"/>
      <point x="109" y="698" type="curve"/>
      <point x="104" y="681" type="line"/>
      <point x="104" y="677" type="line"/>
      <point x="159" y="691"/>
      <point x="173" y="669"/>
      <point x="192" y="527" type="curve" smooth="yes"/>
      <point x="256" y="42" type="line" smooth="yes"/>
      <point x="260" y="13"/>
      <point x="269" y="-2"/>
    </contour>
    <contour>
      <point x="21" y="-2" type="line"/>
      <point x="39" y="44" type="line"/>
      <point x="205" y="413" type="line"/>
      <point x="218" y="413" type="line"/>
      <point x="208" y="467" type="line"/>
      <point x="-3" y="2" type="line"/>
    </contour>
  </outline>
</glyph>
<glyph name="sigmafinal" format="2">
  <advance width="332"/>
  <unicode hex="03C2"/>
  <outline>
    <contour>
      <point x="132" y="-174" type="line"/>
      <point x="221" y="-122"/>
      <point x="274" y="-65"/>
      <point x="274" y="-20" type="curve" smooth="yes"/>
      <point x="274" y="13"/>
      <point x="258" y="29"/>
      <point x="225" y="29" type="curve" smooth="yes"/>
      <point x="198" y="29"/>
      <point x="153" y="17"/>
      <point x="129" y="17" type="curve" smooth="yes"/>
      <point x="86" y="17"/>
      <point x="68" y="54"/>
      <point x="68" y="141" type="curve" smooth="yes"/>
      <point x="68" y="318"/>
      <point x="139" y="436"/>
      <point x="247" y="436" type="curve"/>
      <point x="262" y="436"/>
      <point x="287" y="427"/>
      <point x="310" y="413" type="curve"/>
      <point x="315" y="416" type="line"/>
      <point x="321" y="430" type="line"/>
      <point x="316" y="437" type="line"/>
      <point x="261" y="456" type="line"/>
      <point x="131" y="456"/>
      <point x="48" y="335"/>
      <point x="48" y="144" type="curve" smooth="yes"/>
      <point x="48" y="43"/>
      <point x="72" y="-3"/>
      <point x="126" y="-3" type="curve" smooth="yes"/>
      <point x="154" y="-3"/>
      <point x="199" y="9"/>
      <point x="225" y="9" type="curve" smooth="yes"/>
      <point x="245" y="9"/>
      <point x="254" y="0"/>
      <point x="254" y="-21" type="curve" smooth="yes"/>
      <point x="254" y="-58"/>
      <point x="203" y="-111"/>
      <point x="124" y="-156" type="curve"/>
      <point x="123" y="-160" type="line"/>
    </contour>
  </outline>
</glyph>
<glyph name="tau" format="2">
  <advance width="356"/>
  <unicode hex="03C4"/>
  <outline>
    <contour>
      <point x="185" y="-5" type="curve"/>
      <point x="222" y="3"/>
      <point x="245" y="25"/>
      <point x="288" y="90" type="curve"/>
      <point x="280" y="101" type="line"/>
      <point x="273" y="101" type="line"/>
      <point x="240" y="47"/>
      <point x="206" y="15"/>
      <point x="181" y="15" type="curve" smooth="yes"/>
      <point x="156" y="15"/>
      <point x="141" y="34"/>
      <point x="141" y="67" type="curve"/>
      <point x="143" y="87" type="line"/>
      <point x="202" y="439" type="line"/>
      <point x="183" y="439" type="line"/>
      <point x="123" y="86" type="line"/>
      <point x="121" y="64" type="line"/>
      <point x="121" y="19"/>
      <point x="143" y="-5"/>
    </contour>
    <contour>
      <point x="38" y="432" type="line"/>
      <point x="359" y="432" type="line"/>
      <point x="362" y="448" type="line"/>
      <point x="359" y="452" type="line"/>
      <point x="37" y="452" type="line"/>
      <point x="34" y="436" type="line"/>
    </contour>
  </outline>
</glyph>
<glyph name="upsilon" format="2">
  <advance width="415"/>
  <unicode hex="03C5"/>
  <anchor x="235" y="452" name="top"/>
  <outline>
    <contour>
      <point x="182" y="-3" type="curve" smooth="yes"/>
      <point x="269" y="-3"/>
      <point x="316" y="46"/>
      <point x="330" y="152" type="curve" smooth="yes"/>
      <point x="370" y="456" type="line"/>
      <point x="345" y="452" type="line"/>
      <point x="339" y="362" type="line"/>
      <point x="311" y="152" type="line" smooth="yes"/>
      <point x="299" y="59"/>
      <point x="259" y="17"/>
      <point x="183" y="17" type="curve" smooth="yes"/>
      <point x="105" y="17"/>
      <point x="72" y="62"/>
      <point x="84" y="153" type="curve" smooth="yes"/>
      <point x="124" y="456" type="line"/>
      <point x="99" y="452" type="line"/>
      <point x="93" y="362" type="line"/>
      <point x="65" y="152" type="line" smooth="yes"/>
      <point x="51" y="51"/>
      <point x="92" y="-3"/>
    </contour>
  </outline>
</glyph>
<glyph name="psi" format="2">
  <advance width="536"/>
  <unicode hex="03C8"/>
  <outline>
    <contour>
      <point x="219" y="-3" type="curve" smooth="yes"/>
      <point x="256" y="-3" type="line" smooth="yes"/>
      <point x="354" y="-3"/>
      <point x="446" y="65"/>
      <point x="463" y="196" type="curve" smooth="yes"/>
      <point x="497" y="456" type="line"/>
      <point x="472" y="452" type="line"/>
      <point x="466" y="362" type="line"/>
      <point x="444" y="196" type="line" smooth="yes"/>
      <point x="428" y="78"/>
      <point x="345" y="17"/>
      <point x="257" y="17" type="curve" smooth="yes"/>
      <point x="220" y="17" type="line" smooth="yes"/>
      <point x="135" y="17"/>
      <point x="68" y="78"/>
      <point x="84" y="197" type="curve" smooth="yes"/>
      <point x="118" y="456" type="line"/>
      <point x="93" y="452" type="line"/>
      <point x="87" y="362" type="line"/>
      <point x="65" y="196" type="line" smooth="yes"/>
      <point x="48" y="66"/>
      <point x="122" y="-3"/>
    </contour>
    <contour>
      <point x="203" y="-189" type="line"/>
      <point x="227" y="-185" type="line"/>
      <point x="237" y="-79" type="line"/>
      <point x="316" y="543" type="line"/>
      <point x="292" y="539" type="line"/>
      <point x="285" y="449" type="line"/>
    </contour>
  </outline>
</glyph>
<glyph name="omega" format="2">
  <advance width="538"/>
  <unicode hex="03C9"/>
  <anchor x="242" y="0" name="bottom"/>
  <anchor x="300" y="452" name="top"/>
  <outline>
    <contour>
      <point x="136" y="-11" type="curve" smooth="yes"/>
      <point x="194" y="-11"/>
      <point x="233" y="35"/>
      <point x="259" y="133" type="curve"/>
      <point x="252" y="133" type="line"/>
      <point x="250" y="41"/>
      <point x="283" y="-11"/>
      <point x="343" y="-11" type="curve" smooth="yes"/>
      <point x="430" y="-11"/>
      <point x="484" y="85"/>
      <point x="484" y="242" type="curve" smooth="yes"/>
      <point x="484" y="329"/>
      <point x="459" y="396"/>
      <point x="404" y="453" type="curve"/>
      <point x="393" y="442" type="line"/>
      <point x="394" y="436" type="line"/>
      <point x="441" y="382"/>
      <point x="464" y="317"/>
      <point x="464" y="239" type="curve" smooth="yes"/>
      <point x="464" y="101"/>
      <point x="416" y="9"/>
      <point x="345" y="9" type="curve" smooth="yes"/>
      <point x="282" y="9"/>
      <point x="258" y="82"/>
      <point x="276" y="212" type="curve" smooth="yes"/>
      <point x="288" y="298" type="line"/>
      <point x="285" y="300" type="line"/>
      <point x="266" y="297" type="line"/>
      <point x="256" y="223" type="line" smooth="yes"/>
      <point x="237" y="79"/>
      <point x="199" y="9"/>
      <point x="139" y="9" type="curve" smooth="yes"/>
      <point x="90" y="9"/>
      <point x="66" y="56"/>
      <point x="66" y="144" type="curve" smooth="yes"/>
      <point x="66" y="275"/>
      <point x="104" y="363"/>
      <point x="197" y="435" type="curve"/>
      <point x="199" y="441" type="line"/>
      <point x="189" y="453" type="line"/>
      <point x="86" y="374"/>
      <point x="46" y="284"/>
      <point x="46" y="140" type="curve" smooth="yes"/>
      <point x="46" y="40"/>
      <point x="75" y="-11"/>
    </contour>
  </outline>
</glyph>
<glyph name="KaiSymbol" format="2">
  <advance width="551"/>
  <unicode hex="03CF"/>
  <outline>
    <contour>
      <point x="418" y="-2" type="line"/>
      <point x="440" y="1" type="line"/>
      <point x="440" y="5" type="line"/>
      <point x="345" y="108"/>
      <point x="250" y="225"/>
      <point x="169" y="340" type="curve"/>
      <point x="502" y="637" type="line"/>
      <point x="471" y="637" type="line"/>
      <point x="422" y="590" type="line"/>
      <point x="142" y="341" type="line"/>
      <point x="143" y="338" type="line"/>
      <point x="225" y="221"/>
      <point x="319" y="106"/>
      <point x="414" y="-1" type="curve"/>
    </contour>
    <contour>
      <point x="170" y="-198" type="curve"/>
      <point x="286" y="-227"/>
      <point x="358" y="-174"/>
      <point x="440" y="1" type="curve"/>
      <point x="417" y="-2" type="line"/>
      <point x="338" y="-163"/>
      <point x="276" y="-206"/>
      <point x="169" y="-176" type="curve"/>
      <point x="167" y="-178" type="line"/>
      <point x="166" y="-186"/>
      <point x="167" y="-193"/>
    </contour>
    <contour>
      <point x="52" y="0" type="line"/>
      <point x="72" y="0" type="line"/>
      <point x="96" y="195" type="line"/>
      <point x="150" y="637" type="line"/>
      <point x="130" y="637" type="line"/>
      <point x="76" y="195" type="line"/>
    </contour>
  </outline>
</glyph>
<glyph name="thetaSymbol" format="2">
  <advance width="420"/>
  <unicode hex="03D1"/>
  <outline>
    <contour>
      <point x="172" y="-8" type="curve" smooth="yes"/>
      <point x="289" y="-8"/>
      <point x="378" y="211"/>
      <point x="378" y="482" type="curve" smooth="yes"/>
      <point x="378" y="620"/>
      <point x="345" y="707"/>
      <point x="281" y="707" type="curve" smooth="yes"/>
      <point x="165" y="707"/>
      <point x="74" y="491"/>
      <point x="74" y="219" type="curve" smooth="yes"/>
      <point x="74" y="79"/>
      <point x="108" y="-8"/>
    </contour>
    <contour>
      <point x="174" y="12" type="curve" smooth="yes"/>
      <point x="122" y="12"/>
      <point x="94" y="92"/>
      <point x="94" y="219" type="curve" smooth="yes"/>
      <point x="94" y="474"/>
      <point x="177" y="687"/>
      <point x="279" y="687" type="curve" smooth="yes"/>
      <point x="331" y="687"/>
      <point x="358" y="606"/>
      <point x="358" y="480" type="curve" smooth="yes"/>
      <point x="358" y="227"/>
      <point x="277" y="12"/>
    </contour>
    <contour>
      <point x="94" y="332" type="line"/>
      <point x="354" y="343" type="line"/>
      <point x="357" y="363" type="line"/>
      <point x="96" y="352" type="line"/>
    </contour>
  </outline>
</glyph>
<glyph name="phiSymbol" format="2">
  <advance width="529"/>
  <unicode hex="03D5"/>
  <outline>
    <contour>
      <point x="194" y="-189" type="line"/>
      <point x="218" y="-185" type="line"/>
      <point x="228" y="-79" type="line"/>
      <point x="281" y="326" type="line" smooth="yes"/>
      <point x="290" y="398"/>
      <point x="322" y="437"/>
      <point x="373" y="437" type="curve" smooth="yes"/>
      <point x="426" y="437"/>
      <point x="463" y="373"/>
      <point x="463" y="276" type="curve" smooth="yes"/>
      <point x="463" y="105"/>
      <point x="384" y="15"/>
      <point x="233" y="15" type="curve" smooth="yes"/>
      <point x="121" y="15"/>
      <point x="63" y="75"/>
      <point x="63" y="188" type="curve" smooth="yes"/>
      <point x="63" y="310"/>
      <point x="104" y="380"/>
      <point x="208" y="436" type="curve"/>
      <point x="209" y="439" type="line"/>
      <point x="200" y="453" type="line"/>
      <point x="90" y="395"/>
      <point x="43" y="315"/>
      <point x="43" y="185" type="curve" smooth="yes"/>
      <point x="43" y="60"/>
      <point x="108" y="-5"/>
      <point x="232" y="-5" type="curve" smooth="yes"/>
      <point x="396" y="-5"/>
      <point x="484" y="95"/>
      <point x="484" y="281" type="curve" smooth="yes"/>
      <point x="484" y="388"/>
      <point x="440" y="457"/>
      <point x="374" y="457" type="curve" smooth="yes"/>
      <point x="312" y="457"/>
      <point x="273" y="411"/>
      <point x="262" y="328" type="curve" smooth="yes"/>
    </contour>
  </outline>
</glyph>
<glyph name="piSymbol" format="2">
  <advance width="451"/>
  <unicode hex="03D6"/>
  <outline>
    <contour>
      <point x="282" y="-4" type="line"/>
      <point x="307" y="0" type="line"/>
      <point x="319" y="101" type="line"/>
      <point x="374" y="439" type="line"/>
      <point x="355" y="439" type="line"/>
    </contour>
    <contour>
      <point x="74" y="-4" type="line"/>
      <point x="101" y="0" type="line"/>
      <point x="110" y="106" type="line"/>
      <point x="159" y="442" type="line"/>
      <point x="141" y="439" type="line"/>
    </contour>
    <contour>
      <point x="53" y="432" type="line"/>
      <point x="463" y="432" type="line"/>
      <point x="466" y="448" type="line"/>
      <point x="463" y="452" type="line"/>
      <point x="52" y="452" type="line"/>
      <point x="49" y="436" type="line"/>
    </contour>
  </outline>
</glyph>
<glyph name="Dje-cy" format="2">
  <advance width="615"/>
  <unicode hex="0402"/>
  <outline>
    <contour>
      <point x="165" y="0" type="line"/>
      <point x="185" y="0" type="line"/>
      <point x="209" y="195" type="line"/>
      <point x="263" y="637" type="line"/>
      <point x="244" y="637" type="line"/>
      <point x="189" y="195" type="line"/>
    </contour>
    <contour>
      <point x="422" y="414" type="curve" smooth="yes"/>
      <point x="354" y="414"/>
      <point x="293" y="389"/>
      <point x="229" y="335" type="curve"/>
      <point x="216" y="335" type="line"/>
      <point x="212" y="298" type="line"/>
      <point x="282" y="363"/>
      <point x="349" y="394"/>
      <point x="419" y="394" type="curve" smooth="yes"/>
      <point x="515" y="394"/>
      <point x="540" y="336"/>
      <point x="520" y="170" type="curve" smooth="yes"/>
      <point x="499" y="1"/>
      <point x="453" y="-101"/>
      <point x="366" y="-176" type="curve"/>
      <point x="366" y="-182" type="line"/>
      <point x="376" y="-189" type="line"/>
      <point x="469" y="-115"/>
      <point x="517" y="-8"/>
      <point x="539" y="167" type="curve" smooth="yes"/>
      <point x="561" y="350"/>
      <point x="531" y="414"/>
    </contour>
    <contour>
      <point x="79" y="617" type="line"/>
      <point x="180" y="617" type="line"/>
      <point x="375" y="617" type="line"/>
      <point x="483" y="617" type="line"/>
      <point x="488" y="633" type="line"/>
      <point x="486" y="637" type="line"/>
      <point x="82" y="637" type="line"/>
      <point x="77" y="621" type="line"/>
    </contour>
  </outline>
</glyph>
<glyph name="Nje-cy" format="2">
  <advance width="893"/>
  <unicode hex="040A"/>
  <outline>
    <contour>
      <point x="507" y="0" type="line"/>
      <point x="603" y="0" type="line"/>
      <point x="745" y="0"/>
      <point x="829" y="62"/>
      <point x="843" y="182" type="curve" smooth="yes"/>
      <point x="856" y="289"/>
      <point x="804" y="345"/>
      <point x="692" y="345" type="curve" smooth="yes"/>
      <point x="549" y="345" type="line"/>
      <point x="547" y="325" type="line"/>
      <point x="688" y="325" type="line" smooth="yes"/>
      <point x="790" y="325"/>
      <point x="836" y="276"/>
      <point x="824" y="183" type="curve" smooth="yes"/>
      <point x="812" y="83"/>
      <point x="747" y="29"/>
      <point x="634" y="20" type="curve"/>
      <point x="509" y="20" type="line"/>
    </contour>
    <contour>
      <point x="80" y="0" type="line"/>
      <point x="99" y="0" type="line"/>
      <point x="123" y="195" type="line"/>
      <point x="178" y="637" type="line"/>
      <point x="158" y="637" type="line"/>
      <point x="104" y="195" type="line"/>
    </contour>
    <contour>
      <point x="133" y="324" type="line"/>
      <point x="331" y="324" type="line"/>
      <point x="546" y="324" type="line"/>
      <point x="548" y="344" type="line"/>
      <point x="338" y="344" type="line"/>
      <point x="136" y="344" type="line"/>
    </contour>
    <contour>
      <point x="497" y="0" type="line"/>
      <point x="516" y="0" type="line"/>
      <point x="540" y="195" type="line"/>
      <point x="595" y="637" type="line"/>
      <point x="575" y="637" type="line"/>
      <point x="521" y="195" type="line"/>
    </contour>
  </outline>
</glyph>
<glyph name="Be-cy" format="2">
  <advance width="545"/>
  <unicode hex="0411"/>
  <outline>
    <contour>
      <point x="113" y="0" type="line"/>
      <point x="216" y="0" type="line"/>
      <point x="383" y="0"/>
      <point x="475" y="75"/>
      <point x="475" y="210" type="curve" smooth="yes"/>
      <point x="475" y="300"/>
      <point x="419" y="351"/>
      <point x="310" y="351" type="curve" smooth="yes"/>
      <point x="156" y="351" type="line"/>
      <point x="154" y="331" type="line"/>
      <point x="305" y="331" type="line" smooth="yes"/>
      <point x="404" y="331"/>
      <point x="454" y="286"/>
      <point x="454" y="206" type="curve" smooth="yes"/>
      <point x="454" y="95"/>
      <point x="383" y="30"/>
      <point x="249" y="20" type="curve"/>
      <point x="115" y="20" type="line"/>
    </contour>
    <contour>
      <point x="103" y="0" type="line"/>
      <point x="123" y="0" type="line"/>
      <point x="147" y="195" type="line"/>
      <point x="201" y="637" type="line"/>
      <point x="181" y="637" type="line"/>
      <point x="127" y="195" type="line"/>
    </contour>
    <contour>
      <point x="191" y="617" type="line"/>
      <point x="350" y="617" type="line"/>
      <point x="500" y="617" type="line"/>
      <point x="506" y="633" type="line"/>
      <point x="503" y="637" type="line"/>
      <point x="193" y="637" type="line"/>
    </contour>
  </outline>
</glyph>
<glyph name="Ii-cy" format="2">
  <advance width="640"/>
  <unicode hex="0418"/>
  <anchor x="593" y="0" name="bottomright"/>
  <anchor x="372" y="637" name="top"/>
  <outline>
    <contour>
      <point x="80" y="0" type="line"/>
      <point x="99" y="0" type="line"/>
      <point x="555" y="595" type="line"/>
      <point x="560" y="595" type="line"/>
      <point x="511" y="195" type="line"/>
      <point x="487" y="0" type="line"/>
      <point x="507" y="0" type="line"/>
      <point x="531" y="195" type="line"/>
      <point x="585" y="637" type="line"/>
      <point x="566" y="637" type="line"/>
      <point x="110" y="42" type="line"/>
      <point x="105" y="42" type="line"/>
      <point x="179" y="638" type="line"/>
      <point x="158" y="636" type="line"/>
      <point x="104" y="195" type="line"/>
    </contour>
  </outline>
</glyph>
<glyph name="U-cy" format="2">
  <advance width="532"/>
  <unicode hex="0423"/>
  <anchor x="313" y="637" name="top"/>
  <outline>
    <contour>
      <point x="68" y="10" type="line"/>
      <point x="68" y="3"/>
      <point x="68" y="0"/>
      <point x="70" y="-6" type="curve"/>
      <point x="76" y="-6" type="line"/>
      <point x="187" y="13"/>
      <point x="211" y="35"/>
      <point x="295" y="183" type="curve" smooth="yes"/>
      <point x="548" y="636" type="line"/>
      <point x="525" y="636" type="line"/>
      <point x="502" y="593" type="line"/>
      <point x="276" y="189" type="line" smooth="yes"/>
      <point x="200" y="52"/>
      <point x="178" y="34"/>
      <point x="69" y="13" type="curve"/>
    </contour>
    <contour>
      <point x="270" y="154" type="line"/>
      <point x="289" y="197" type="line"/>
      <point x="276" y="197" type="line"/>
      <point x="122" y="593" type="line"/>
      <point x="109" y="637" type="line"/>
      <point x="85" y="636" type="line"/>
    </contour>
  </outline>
</glyph>
<glyph name="Hardsign-cy" format="2">
  <advance width="576"/>
  <unicode hex="042A"/>
  <outline>
    <contour>
      <point x="187" y="0" type="line"/>
      <point x="284" y="0" type="line"/>
      <point x="441" y="0"/>
      <point x="527" y="76"/>
      <point x="527" y="211" type="curve" smooth="yes"/>
      <point x="527" y="300"/>
      <point x="474" y="351"/>
      <point x="374" y="351" type="curve" smooth="yes"/>
      <point x="230" y="351" type="line"/>
      <point x="227" y="331" type="line"/>
      <point x="368" y="331" type="line" smooth="yes"/>
      <point x="459" y="331"/>
      <point x="506" y="286"/>
      <point x="506" y="207" type="curve" smooth="yes"/>
      <point x="506" y="96"/>
      <point x="439" y="30"/>
      <point x="314" y="20" type="curve"/>
      <point x="189" y="20" type="line"/>
    </contour>
    <contour>
      <point x="177" y="0" type="line"/>
      <point x="197" y="0" type="line"/>
      <point x="221" y="195" type="line"/>
      <point x="275" y="637" type="line"/>
      <point x="255" y="637" type="line"/>
      <point x="201" y="195" type="line"/>
    </contour>
    <contour>
      <point x="63" y="617" type="line"/>
      <point x="164" y="617" type="line"/>
      <point x="263" y="617" type="line"/>
      <point x="265" y="637" type="line"/>
      <point x="66" y="637" type="line"/>
      <point x="60" y="621" type="line"/>
    </contour>
  </outline>
</glyph>
<glyph name="Softsign-cy" format="2">
  <advance width="511"/>
  <unicode hex="042C"/>
  <outline>
    <contour>
      <point x="113" y="0" type="line"/>
      <point x="212" y="0" type="line"/>
      <point x="373" y="0"/>
      <point x="462" y="76"/>
      <point x="462" y="210" type="curve" smooth="yes"/>
      <point x="462" y="300"/>
      <point x="408" y="351"/>
      <point x="304" y="351" type="curve" smooth="yes"/>
      <point x="156" y="351" type="line"/>
      <point x="154" y="331" type="line"/>
      <point x="299" y="331" type="line" smooth="yes"/>
      <point x="393" y="331"/>
      <point x="441" y="286"/>
      <point x="441" y="207" type="curve" smooth="yes"/>
      <point x="441" y="96"/>
      <point x="373" y="30"/>
      <point x="244" y="20" type="curve"/>
      <point x="115" y="20" type="line"/>
    </contour>
    <contour>
      <point x="103" y="0" type="line"/>
      <point x="123" y="0" type="line"/>
      <point x="147" y="195" type="line"/>
      <point x="201" y="637" type="line"/>
      <point x="181" y="637" type="line"/>
      <point x="127" y="195" type="line"/>
    </contour>
  </outline>
</glyph>
<glyph name="Ereversed-cy" format="2">
  <advance width="530"/>
  <unicode hex="042D"/>
  <outline>
    <contour>
      <point x="202" y="-5" type="curve" smooth="yes"/>
      <point x="366" y="-5"/>
      <point x="471" y="117"/>
      <point x="496" y="324" type="curve" smooth="yes"/>
      <point x="521" y="532"/>
      <point x="448" y="641"/>
      <point x="290" y="641" type="curve" smooth="yes"/>
      <point x="230" y="641"/>
      <point x="162" y="617"/>
      <point x="102" y="574" type="curve"/>
      <point x="99" y="556" type="line"/>
      <point x="106" y="554" type="line"/>
      <point x="161" y="597"/>
      <point x="229" y="621"/>
      <point x="289" y="621" type="curve" smooth="yes"/>
      <point x="433" y="621"/>
      <point x="500" y="520"/>
      <point x="476" y="327" type="curve" smooth="yes"/>
      <point x="451" y="130"/>
      <point x="356" y="15"/>
      <point x="202" y="15" type="curve" smooth="yes"/>
      <point x="146" y="15"/>
      <point x="93" y="35"/>
      <point x="56" y="71" type="curve"/>
      <point x="48" y="71" type="line"/>
      <point x="39" y="54" type="line"/>
      <point x="82" y="16"/>
      <point x="141" y="-5"/>
    </contour>
    <contour>
      <point x="148" y="322" type="line"/>
      <point x="345" y="322" type="line"/>
      <point x="482" y="322" type="line"/>
      <point x="487" y="338" type="line"/>
      <point x="482" y="342" type="line"/>
      <point x="348" y="342" type="line"/>
      <point x="148" y="342" type="line"/>
      <point x="144" y="326" type="line"/>
    </contour>
  </outline>
</glyph>
<glyph name="Iu-cy" format="2">
  <advance width="785"/>
  <unicode hex="042E"/>
  <outline>
    <contour>
      <point x="178" y="637" type="line"/>
      <point x="158" y="637" type="line"/>
      <point x="104" y="195" type="line"/>
      <point x="80" y="0" type="line"/>
      <point x="100" y="0" type="line"/>
      <point x="124" y="195" type="line"/>
    </contour>
    <contour>
      <point x="132" y="334" type="line"/>
      <point x="130" y="314" type="line"/>
      <point x="205" y="314" type="line"/>
      <point x="282" y="314" type="line"/>
      <point x="284" y="334" type="line"/>
      <point x="209" y="334" type="line"/>
    </contour>
    <contour>
      <point x="554" y="642" type="curve"/>
      <point x="400" y="642"/>
      <point x="300" y="526"/>
      <point x="274" y="318" type="curve" smooth="yes"/>
      <point x="248" y="110"/>
      <point x="318" y="-5"/>
      <point x="469" y="-5" type="curve" smooth="yes"/>
      <point x="624" y="-5"/>
      <point x="726" y="114"/>
      <point x="752" y="328" type="curve" smooth="yes"/>
      <point x="776" y="530"/>
      <point x="706" y="642"/>
    </contour>
    <contour>
      <point x="554" y="622" type="curve" smooth="yes"/>
      <point x="691" y="622"/>
      <point x="755" y="517"/>
      <point x="732" y="330" type="curve" smooth="yes"/>
      <point x="707" y="127"/>
      <point x="613" y="15"/>
      <point x="470" y="15" type="curve" smooth="yes"/>
      <point x="334" y="15"/>
      <point x="269" y="123"/>
      <point x="293" y="316" type="curve" smooth="yes"/>
      <point x="317" y="513"/>
      <point x="411" y="622"/>
    </contour>
  </outline>
</glyph>
<glyph name="Ia-cy" format="2">
  <advance width="497"/>
  <unicode hex="042F"/>
  <outline>
    <contour>
      <point x="239" y="263" type="curve"/>
      <point x="383" y="263" type="line"/>
      <point x="385" y="283" type="line"/>
      <point x="241" y="283" type="line"/>
      <point x="159" y="299"/>
      <point x="120" y="360"/>
      <point x="131" y="449" type="curve" smooth="yes"/>
      <point x="143" y="551"/>
      <point x="214" y="618"/>
      <point x="306" y="618" type="curve"/>
      <point x="430" y="617" type="line"/>
      <point x="439" y="637" type="line"/>
      <point x="313" y="639" type="line"/>
      <point x="203" y="639"/>
      <point x="125" y="566"/>
      <point x="111" y="451" type="curve" smooth="yes"/>
      <point x="98" y="350"/>
      <point x="144" y="282"/>
    </contour>
    <contour>
      <point x="35" y="-7" type="curve"/>
      <point x="40" y="-5" type="line"/>
      <point x="124" y="94"/>
      <point x="195" y="187"/>
      <point x="257" y="277" type="curve"/>
      <point x="234" y="277" type="line"/>
      <point x="179" y="197"/>
      <point x="111" y="109"/>
      <point x="23" y="5" type="curve"/>
      <point x="23" y="1" type="line"/>
      <point x="26" y="-3"/>
      <point x="29" y="-5"/>
    </contour>
    <contour>
      <point x="340" y="0" type="line"/>
      <point x="360" y="0" type="line"/>
      <point x="384" y="195" type="line"/>
      <point x="438" y="637" type="line"/>
      <point x="418" y="637" type="line"/>
      <point x="364" y="195" type="line"/>
    </contour>
  </outline>
</glyph>
<glyph name="be-cy" format="2">
  <advance width="407"/>
  <unicode hex="0431"/>
  <outline>
    <contour>
      <point x="167" y="-5" type="curve"/>
      <point x="283" y="3"/>
      <point x="362" y="133"/>
      <point x="362" y="317" type="curve" smooth="yes"/>
      <point x="362" y="385"/>
      <point x="349" y="421"/>
      <point x="312" y="452" type="curve"/>
      <point x="300" y="452" type="line"/>
      <point x="223" y="390"/>
      <point x="147" y="301"/>
      <point x="94" y="209" type="curve"/>
      <point x="79" y="209" type="line"/>
      <point x="79" y="151" type="line"/>
      <point x="138" y="258"/>
      <point x="275" y="424"/>
      <point x="304" y="424" type="curve" smooth="yes"/>
      <point x="324" y="424"/>
      <point x="342" y="370"/>
      <point x="342" y="311" type="curve" smooth="yes"/>
      <point x="342" y="141"/>
      <point x="268" y="15"/>
      <point x="169" y="15" type="curve" smooth="yes"/>
      <point x="113" y="15"/>
      <point x="87" y="59"/>
      <point x="87" y="155" type="curve"/>
      <point x="92" y="230" type="line" smooth="yes"/>
      <point x="103" y="398"/>
      <point x="154" y="531"/>
      <point x="238" y="574" type="curve" smooth="yes"/>
      <point x="327" y="620" type="line" smooth="yes"/>
      <point x="373" y="644"/>
      <point x="384" y="654"/>
      <point x="404" y="702" type="curve"/>
      <point x="386" y="710" type="line"/>
      <point x="370" y="668"/>
      <point x="359" y="659"/>
      <point x="316" y="637" type="curve" smooth="yes"/>
      <point x="229" y="592" type="line" smooth="yes"/>
      <point x="125" y="538"/>
      <point x="68" y="371"/>
      <point x="68" y="156" type="curve" smooth="yes"/>
      <point x="68" y="44"/>
      <point x="98" y="-5"/>
    </contour>
  </outline>
</glyph>
<glyph name="ve-cy" format="2">
  <advance width="357"/>
  <unicode hex="0432"/>
  <outline>
    <contour>
      <point x="154" y="-4" type="curve" smooth="yes"/>
      <point x="219" y="-4"/>
      <point x="274" y="42"/>
      <point x="294" y="110" type="curve"/>
      <point x="294" y="122" type="line"/>
      <point x="281" y="164"/>
      <point x="249" y="214"/>
      <point x="208" y="255" type="curve"/>
      <point x="194" y="241" type="line"/>
      <point x="235" y="203"/>
      <point x="272" y="144"/>
      <point x="272" y="116" type="curve" smooth="yes"/>
      <point x="272" y="68"/>
      <point x="213" y="16"/>
      <point x="157" y="16" type="curve" smooth="yes"/>
      <point x="92" y="16"/>
      <point x="64" y="57"/>
      <point x="64" y="151" type="curve" smooth="yes"/>
      <point x="64" y="309"/>
      <point x="143" y="436"/>
      <point x="240" y="436" type="curve" smooth="yes"/>
      <point x="277" y="436"/>
      <point x="298" y="418"/>
      <point x="298" y="385" type="curve" smooth="yes"/>
      <point x="298" y="319"/>
      <point x="210" y="249"/>
      <point x="58" y="195" type="curve"/>
      <point x="58" y="174" type="line"/>
      <point x="229" y="236"/>
      <point x="319" y="310"/>
      <point x="319" y="388" type="curve" smooth="yes"/>
      <point x="319" y="429"/>
      <point x="293" y="453"/>
      <point x="244" y="457" type="curve"/>
      <point x="239" y="457" type="line"/>
      <point x="132" y="457"/>
      <point x="44" y="318"/>
      <point x="44" y="150" type="curve" smooth="yes"/>
      <point x="44" y="44"/>
      <point x="78" y="-4"/>
    </contour>
  </outline>
</glyph>
<glyph name="de-cy" format="2">
  <advance width="391"/>
  <unicode hex="0434"/>
  <outline>
    <contour>
      <point x="142" y="-6" type="curve" smooth="yes"/>
      <point x="270" y="-6"/>
      <point x="343" y="170"/>
      <point x="343" y="477" type="curve" smooth="yes"/>
      <point x="343" y="680"/>
      <point x="270" y="742"/>
      <point x="118" y="689" type="curve"/>
      <point x="113" y="670" type="line"/>
      <point x="115" y="668" type="line"/>
      <point x="256" y="720"/>
      <point x="323" y="668"/>
      <point x="323" y="484" type="curve" smooth="yes"/>
      <point x="323" y="185"/>
      <point x="258" y="14"/>
      <point x="144" y="14" type="curve" smooth="yes"/>
      <point x="89" y="14"/>
      <point x="66" y="53"/>
      <point x="66" y="144" type="curve" smooth="yes"/>
      <point x="66" y="311"/>
      <point x="139" y="434"/>
      <point x="238" y="435" type="curve"/>
      <point x="325" y="422" type="line"/>
      <point x="327" y="442" type="line"/>
      <point x="310" y="446"/>
      <point x="255" y="455"/>
      <point x="240" y="455" type="curve"/>
      <point x="128" y="455"/>
      <point x="46" y="323"/>
      <point x="46" y="145" type="curve" smooth="yes"/>
      <point x="46" y="40"/>
      <point x="75" y="-6"/>
    </contour>
  </outline>
</glyph>
<glyph name="zhe-cy" format="2">
  <advance width="545"/>
  <unicode hex="0436"/>
  <anchor x="496" y="0" name="bottomright"/>
  <anchor x="301" y="452" name="top"/>
  <outline>
    <contour>
      <point x="9" y="-7" type="curve"/>
      <point x="12" y="-6" type="line"/>
      <point x="89" y="72"/>
      <point x="166" y="154"/>
      <point x="242" y="238" type="curve"/>
      <point x="241" y="244" type="line"/>
      <point x="112" y="418" type="line"/>
      <point x="90" y="452" type="line"/>
      <point x="64" y="452" type="line"/>
      <point x="226" y="233" type="line"/>
      <point x="222" y="245" type="line"/>
      <point x="149" y="161"/>
      <point x="70" y="81"/>
      <point x="-5" y="7" type="curve"/>
      <point x="-5" y="4" type="line"/>
      <point x="-3" y="0"/>
      <point x="3" y="-5"/>
    </contour>
    <contour>
      <point x="232" y="-4" type="line"/>
      <point x="258" y="0" type="line"/>
      <point x="266" y="106" type="line"/>
      <point x="312" y="456" type="line"/>
      <point x="287" y="452" type="line"/>
      <point x="281" y="362" type="line"/>
    </contour>
    <contour>
      <point x="479" y="-7" type="line"/>
      <point x="485" y="-5"/>
      <point x="490" y="-2"/>
      <point x="495" y="2" type="curve"/>
      <point x="495" y="5" type="line"/>
      <point x="438" y="78"/>
      <point x="382" y="158"/>
      <point x="331" y="240" type="curve"/>
      <point x="537" y="452" type="line"/>
      <point x="508" y="452" type="line"/>
      <point x="478" y="418" type="line"/>
      <point x="308" y="244" type="line"/>
      <point x="307" y="238" type="line"/>
      <point x="361" y="154"/>
      <point x="417" y="72"/>
      <point x="476" y="-6" type="curve"/>
    </contour>
  </outline>
</glyph>
<glyph name="ka-cy" format="2">
  <advance width="379"/>
  <unicode hex="043A"/>
  <anchor x="331" y="0" name="bottomright"/>
  <anchor x="218" y="452" name="top"/>
  <outline>
    <contour>
      <point x="371" y="452" type="line"/>
      <point x="342" y="452" type="line"/>
      <point x="311" y="418" type="line"/>
      <point x="134" y="244" type="line"/>
      <point x="133" y="238" type="line"/>
      <point x="190" y="154"/>
      <point x="249" y="72"/>
      <point x="311" y="-6" type="curve"/>
      <point x="314" y="-7" type="line"/>
      <point x="320" y="-5"/>
      <point x="325" y="-2"/>
      <point x="329" y="2" type="curve"/>
      <point x="329" y="5" type="line"/>
      <point x="270" y="78"/>
      <point x="211" y="158"/>
      <point x="158" y="240" type="curve"/>
    </contour>
    <contour>
      <point x="57" y="-4" type="line"/>
      <point x="83" y="0" type="line"/>
      <point x="91" y="106" type="line"/>
      <point x="137" y="456" type="line"/>
      <point x="112" y="452" type="line"/>
      <point x="106" y="362" type="line"/>
    </contour>
  </outline>
</glyph>
<glyph name="el-cy" format="2">
  <advance width="376"/>
  <unicode hex="043B"/>
  <outline>
    <contour>
      <point x="237" y="452" type="line"/>
      <point x="86" y="127" type="line" smooth="yes"/>
      <point x="48" y="44"/>
      <point x="26" y="20"/>
      <point x="-14" y="12" type="curve"/>
      <point x="-18" y="8" type="line"/>
      <point x="-13" y="-10" type="line"/>
      <point x="40" y="1"/>
      <point x="62" y="24"/>
      <point x="105" y="119" type="curve" smooth="yes"/>
      <point x="256" y="452" type="line"/>
    </contour>
    <contour>
      <point x="242" y="452" type="line"/>
      <point x="237" y="422" type="line"/>
      <point x="245" y="422" type="line"/>
      <point x="281" y="70" type="line"/>
      <point x="287" y="-4" type="line"/>
      <point x="310" y="2" type="line"/>
      <point x="261" y="452" type="line"/>
    </contour>
  </outline>
</glyph>
<glyph name="ef-cy" format="2">
  <advance width="552"/>
  <unicode hex="0444"/>
  <outline>
    <contour>
      <point x="211" y="-191" type="line"/>
      <point x="236" y="-187" type="line"/>
      <point x="245" y="-81" type="line"/>
      <point x="347" y="702" type="line"/>
      <point x="322" y="698" type="line"/>
      <point x="316" y="608" type="line"/>
    </contour>
    <contour>
      <point x="125" y="-6" type="curve"/>
      <point x="139" y="-6" type="line"/>
      <point x="175" y="5"/>
      <point x="206" y="23"/>
      <point x="237" y="49" type="curve"/>
      <point x="252" y="49" type="line"/>
      <point x="252" y="88" type="line"/>
      <point x="203" y="41"/>
      <point x="164" y="18"/>
      <point x="132" y="18" type="curve" smooth="yes"/>
      <point x="94" y="18"/>
      <point x="67" y="73"/>
      <point x="67" y="145" type="curve" smooth="yes"/>
      <point x="67" y="314"/>
      <point x="133" y="435"/>
      <point x="229" y="435" type="curve"/>
      <point x="300" y="414" type="line"/>
      <point x="303" y="434" type="line"/>
      <point x="228" y="455" type="line"/>
      <point x="121" y="455"/>
      <point x="47" y="326"/>
      <point x="47" y="145" type="curve" smooth="yes"/>
      <point x="47" y="67"/>
      <point x="81" y="9"/>
    </contour>
    <contour>
      <point x="328" y="-3" type="line"/>
      <point x="435" y="-3"/>
      <point x="505" y="126"/>
      <point x="505" y="306" type="curve" smooth="yes"/>
      <point x="505" y="385"/>
      <point x="472" y="443"/>
      <point x="429" y="458" type="curve"/>
      <point x="417" y="458" type="line"/>
      <point x="382" y="447"/>
      <point x="346" y="429"/>
      <point x="315" y="403" type="curve"/>
      <point x="300" y="403" type="line"/>
      <point x="299" y="364" type="line"/>
      <point x="349" y="411"/>
      <point x="388" y="434"/>
      <point x="420" y="434" type="curve" smooth="yes"/>
      <point x="458" y="434"/>
      <point x="485" y="379"/>
      <point x="485" y="307" type="curve" smooth="yes"/>
      <point x="485" y="138"/>
      <point x="423" y="17"/>
      <point x="328" y="17" type="curve"/>
      <point x="251" y="38" type="line"/>
      <point x="248" y="18" type="line"/>
    </contour>
  </outline>
</glyph>
<glyph name="che-cy" format="2">
  <advance width="395"/>
  <unicode hex="0447"/>
  <anchor x="166" y="0" name="bottom"/>
  <anchor x="257" y="-4" name="bottomright"/>
  <anchor x="226" y="452" name="top"/>
  <outline>
    <contour>
      <point x="107" y="456" type="line"/>
      <point x="82" y="452" type="line"/>
      <point x="75" y="362" type="line"/>
      <point x="54" y="206" type="line"/>
      <point x="53" y="197" type="line"/>
      <point x="52" y="167"/>
      <point x="72" y="140"/>
      <point x="104" y="134" type="curve"/>
      <point x="115" y="134" type="line"/>
      <point x="161" y="150"/>
      <point x="202" y="178"/>
      <point x="286" y="250" type="curve"/>
      <point x="299" y="250" type="line"/>
      <point x="304" y="294" type="line"/>
      <point x="221" y="213"/>
      <point x="144" y="159"/>
      <point x="109" y="159" type="curve" smooth="yes"/>
      <point x="90" y="159"/>
      <point x="74" y="179"/>
      <point x="74" y="198" type="curve"/>
      <point x="74" y="209" type="line"/>
    </contour>
    <contour>
      <point x="337" y="456" type="line"/>
      <point x="312" y="452" type="line"/>
      <point x="306" y="362" type="line"/>
      <point x="257" y="-4" type="line"/>
      <point x="284" y="0" type="line"/>
      <point x="291" y="106" type="line"/>
    </contour>
  </outline>
</glyph>
<glyph name="sha-cy" format="2">
  <advance width="686"/>
  <unicode hex="0448"/>
  <anchor x="549" y="-4" name="bottomright"/>
  <outline>
    <contour>
      <point x="137" y="455" type="line"/>
      <point x="112" y="451" type="line"/>
      <point x="100" y="350" type="line"/>
      <point x="57" y="87" type="line"/>
      <point x="56" y="74" type="line"/>
      <point x="54" y="32"/>
      <point x="76" y="-2"/>
      <point x="107" y="-11" type="curve"/>
      <point x="118" y="-11" type="line"/>
      <point x="188" y="35"/>
      <point x="253" y="132"/>
      <point x="331" y="267" type="curve"/>
      <point x="344" y="267" type="line"/>
      <point x="356" y="353" type="line"/>
      <point x="242" y="137"/>
      <point x="145" y="15"/>
      <point x="111" y="15" type="curve" smooth="yes"/>
      <point x="94" y="15"/>
      <point x="76" y="41"/>
      <point x="77" y="75" type="curve"/>
      <point x="78" y="90" type="line"/>
    </contour>
    <contour>
      <point x="386" y="455" type="line"/>
      <point x="361" y="451" type="line"/>
      <point x="349" y="350" type="line"/>
      <point x="306" y="87" type="line"/>
      <point x="305" y="74" type="line"/>
      <point x="303" y="32"/>
      <point x="325" y="-2"/>
      <point x="356" y="-11" type="curve"/>
      <point x="367" y="-11" type="line"/>
      <point x="437" y="35"/>
      <point x="502" y="132"/>
      <point x="580" y="267" type="curve"/>
      <point x="593" y="267" type="line"/>
      <point x="605" y="353" type="line"/>
      <point x="491" y="137"/>
      <point x="394" y="15"/>
      <point x="360" y="15" type="curve" smooth="yes"/>
      <point x="343" y="15"/>
      <point x="325" y="41"/>
      <point x="326" y="75" type="curve"/>
      <point x="327" y="90" type="line"/>
    </contour>
    <contour>
      <point x="629" y="456" type="line"/>
      <point x="604" y="452" type="line"/>
      <point x="597" y="362" type="line"/>
      <point x="549" y="-4" type="line"/>
      <point x="574" y="0" type="line"/>
      <point x="583" y="106" type="line"/>
    </contour>
  </outline>
</glyph>
<glyph name="hardsign-cy" format="2">
  <advance width="388"/>
  <unicode hex="044A"/>
  <outline>
    <contour>
      <point x="146" y="-3" type="line"/>
      <point x="150" y="-3" type="line"/>
      <point x="266" y="-3"/>
      <point x="351" y="88"/>
      <point x="351" y="206" type="curve" smooth="yes"/>
      <point x="351" y="259"/>
      <point x="335" y="288"/>
      <point x="298" y="314" type="curve"/>
      <point x="286" y="314" type="line"/>
      <point x="227" y="276"/>
      <point x="196" y="240"/>
      <point x="126" y="158" type="curve"/>
      <point x="111" y="158" type="line"/>
      <point x="90" y="84" type="line"/>
      <point x="188" y="208"/>
      <point x="265" y="286"/>
      <point x="289" y="286" type="curve" smooth="yes"/>
      <point x="312" y="286"/>
      <point x="331" y="250"/>
      <point x="331" y="198" type="curve" smooth="yes"/>
      <point x="331" y="95"/>
      <point x="255" y="17"/>
      <point x="154" y="17" type="curve"/>
      <point x="63" y="34" type="line"/>
      <point x="53" y="15" type="line"/>
    </contour>
    <contour>
      <point x="53" y="15" type="line"/>
      <point x="75" y="19" type="line"/>
      <point x="218" y="452" type="line"/>
      <point x="199" y="452" type="line"/>
    </contour>
    <contour>
      <point x="46" y="433" type="line"/>
      <point x="115" y="433" type="line"/>
      <point x="202" y="433" type="line"/>
      <point x="218" y="452" type="line"/>
      <point x="49" y="452" type="line"/>
      <point x="44" y="436" type="line"/>
    </contour>
  </outline>
</glyph>
<glyph name="ia-cy" format="2">
  <advance width="391"/>
  <unicode hex="044F"/>
  <anchor x="245" y="452" name="top"/>
  <outline>
    <contour>
      <point x="42" y="-5" type="curve"/>
      <point x="47" y="-3" type="line"/>
      <point x="113" y="66"/>
      <point x="176" y="140"/>
      <point x="235" y="220" type="curve"/>
      <point x="230" y="236" type="line"/>
      <point x="224" y="238" type="line"/>
      <point x="141" y="173"/>
      <point x="77" y="172"/>
      <point x="77" y="266" type="curve" smooth="yes"/>
      <point x="77" y="362"/>
      <point x="148" y="437"/>
      <point x="241" y="437" type="curve"/>
      <point x="321" y="431" type="line"/>
      <point x="329" y="451" type="line"/>
      <point x="243" y="457" type="line"/>
      <point x="138" y="458"/>
      <point x="57" y="374"/>
      <point x="57" y="266" type="curve" smooth="yes"/>
      <point x="57" y="175"/>
      <point x="119" y="144"/>
      <point x="202" y="203" type="curve"/>
      <point x="203" y="201" type="line"/>
      <point x="148" y="134"/>
      <point x="87" y="66"/>
      <point x="28" y="6" type="curve"/>
      <point x="28" y="2" type="line"/>
      <point x="32" y="-2"/>
      <point x="36" y="-4"/>
    </contour>
    <contour>
      <point x="329" y="456" type="line"/>
      <point x="312" y="449" type="line"/>
      <point x="254" y="-4" type="line"/>
      <point x="279" y="0" type="line"/>
      <point x="288" y="106" type="line"/>
      <point x="334" y="453" type="line"/>
    </contour>
  </outline>
</glyph>
<glyph name="dje-cy" format="2">
  <advance width="445"/>
  <unicode hex="0452"/>
  <outline>
    <contour>
      <point x="207" y="-192" type="line"/>
      <point x="286" y="-138"/>
      <point x="316" y="-90"/>
      <point x="330" y="18" type="curve" smooth="yes"/>
      <point x="345" y="124" type="line"/>
      <point x="384" y="364" type="line"/>
      <point x="385" y="377" type="line" smooth="yes"/>
      <point x="387" y="419"/>
      <point x="365" y="453"/>
      <point x="334" y="462" type="curve"/>
      <point x="323" y="462" type="line"/>
      <point x="254" y="416"/>
      <point x="188" y="319"/>
      <point x="110" y="184" type="curve"/>
      <point x="97" y="184" type="line"/>
      <point x="85" y="98" type="line"/>
      <point x="199" y="314"/>
      <point x="296" y="436"/>
      <point x="330" y="436" type="curve" smooth="yes"/>
      <point x="347" y="436"/>
      <point x="365" y="410"/>
      <point x="364" y="376" type="curve"/>
      <point x="363" y="361" type="line"/>
      <point x="307" y="8" type="line" smooth="yes"/>
      <point x="293" y="-83"/>
      <point x="270" y="-125"/>
      <point x="197" y="-175" type="curve"/>
      <point x="196" y="-181" type="line"/>
    </contour>
    <contour>
      <point x="60" y="-4" type="line"/>
      <point x="86" y="0" type="line"/>
      <point x="95" y="106" type="line"/>
      <point x="174" y="702" type="line"/>
      <point x="148" y="698" type="line"/>
      <point x="142" y="608" type="line"/>
    </contour>
    <contour>
      <point x="58" y="561" type="line"/>
      <point x="288" y="561" type="line"/>
      <point x="290" y="578" type="line"/>
      <point x="287" y="581" type="line"/>
      <point x="57" y="581" type="line"/>
      <point x="55" y="564" type="line"/>
    </contour>
  </outline>
</glyph>
<glyph name="e-cy" format="2">
  <advance width="335"/>
  <unicode hex="0454"/>
  <outline>
    <contour>
      <point x="265" y="456" type="line"/>
      <point x="129" y="456"/>
      <point x="47" y="340"/>
      <point x="47" y="149" type="curve" smooth="yes"/>
      <point x="47" y="46"/>
      <point x="69" y="7"/>
      <point x="135" y="-5" type="curve"/>
      <point x="143" y="-5" type="line"/>
      <point x="201" y="2"/>
      <point x="241" y="30"/>
      <point x="279" y="89" type="curve"/>
      <point x="270" y="101" type="line"/>
      <point x="264" y="101" type="line"/>
      <point x="231" y="46"/>
      <point x="188" y="16"/>
      <point x="142" y="16" type="curve" smooth="yes"/>
      <point x="89" y="16"/>
      <point x="67" y="56"/>
      <point x="67" y="151" type="curve" smooth="yes"/>
      <point x="67" y="320"/>
      <point x="139" y="436"/>
      <point x="245" y="436" type="curve" smooth="yes"/>
      <point x="269" y="436"/>
      <point x="288" y="430"/>
      <point x="316" y="413" type="curve"/>
      <point x="321" y="416" type="line"/>
      <point x="327" y="430" type="line"/>
      <point x="322" y="437" type="line"/>
    </contour>
    <contour>
      <point x="241" y="230" type="line"/>
      <point x="244" y="247" type="line"/>
      <point x="240" y="250" type="line"/>
      <point x="140" y="250" type="line"/>
      <point x="66" y="250" type="line"/>
      <point x="63" y="230" type="line"/>
      <point x="139" y="230" type="line"/>
    </contour>
  </outline>
</glyph>
<glyph name="nje-cy" format="2">
  <advance width="616"/>
  <unicode hex="045A"/>
  <outline>
    <contour>
      <point x="137" y="456" type="line"/>
      <point x="112" y="452" type="line"/>
      <point x="106" y="362" type="line"/>
      <point x="57" y="-4" type="line"/>
      <point x="84" y="0" type="line"/>
      <point x="91" y="106" type="line"/>
    </contour>
    <contour>
      <point x="99" y="239" type="line"/>
      <point x="97" y="220" type="line"/>
      <point x="217" y="220" type="line"/>
      <point x="343" y="220" type="line"/>
      <point x="345" y="239" type="line"/>
      <point x="219" y="239" type="line"/>
    </contour>
    <contour>
      <point x="390" y="-3" type="line"/>
      <point x="394" y="-3" type="line"/>
      <point x="502" y="-3"/>
      <point x="578" y="83"/>
      <point x="578" y="208" type="curve" smooth="yes"/>
      <point x="578" y="259"/>
      <point x="565" y="288"/>
      <point x="527" y="314" type="curve"/>
      <point x="515" y="314" type="line"/>
      <point x="457" y="276"/>
      <point x="417" y="237"/>
      <point x="347" y="155" type="curve"/>
      <point x="333" y="155" type="line"/>
      <point x="326" y="99" type="line"/>
      <point x="409" y="205"/>
      <point x="492" y="286"/>
      <point x="518" y="286" type="curve" smooth="yes"/>
      <point x="540" y="286"/>
      <point x="558" y="251"/>
      <point x="558" y="199" type="curve" smooth="yes"/>
      <point x="558" y="91"/>
      <point x="492" y="17"/>
      <point x="397" y="17" type="curve"/>
      <point x="315" y="30" type="line"/>
      <point x="305" y="11" type="line"/>
    </contour>
    <contour>
      <point x="305" y="11" type="line"/>
      <point x="326" y="19" type="line"/>
      <point x="383" y="456" type="line"/>
      <point x="358" y="452" type="line"/>
      <point x="352" y="362" type="line"/>
    </contour>
  </outline>
</glyph>
<glyph name="yat-cy" format="2">
  <advance width="621"/>
  <unicode hex="0463"/>
  <outline>
    <contour>
      <point x="303" y="11" type="line"/>
      <point x="324" y="11" type="line"/>
      <point x="381" y="364" type="line"/>
      <point x="382" y="377" type="line"/>
      <point x="384" y="418"/>
      <point x="363" y="453"/>
      <point x="331" y="462" type="curve"/>
      <point x="320" y="462" type="line"/>
      <point x="259" y="422"/>
      <point x="199" y="343"/>
      <point x="107" y="184" type="curve"/>
      <point x="94" y="184" type="line"/>
      <point x="82" y="98" type="line"/>
      <point x="185" y="293"/>
      <point x="289" y="436"/>
      <point x="328" y="436" type="curve" smooth="yes"/>
      <point x="346" y="436"/>
      <point x="362" y="407"/>
      <point x="361" y="376" type="curve"/>
      <point x="360" y="361" type="line"/>
    </contour>
    <contour>
      <point x="58" y="-4" type="line"/>
      <point x="83" y="0" type="line"/>
      <point x="92" y="106" type="line"/>
      <point x="138" y="456" type="line"/>
      <point x="113" y="452" type="line"/>
      <point x="106" y="362" type="line"/>
    </contour>
    <contour>
      <point x="391" y="-3" type="line"/>
      <point x="395" y="-3" type="line"/>
      <point x="504" y="-3"/>
      <point x="581" y="84"/>
      <point x="583" y="208" type="curve" smooth="yes"/>
      <point x="584" y="259"/>
      <point x="571" y="288"/>
      <point x="534" y="314" type="curve"/>
      <point x="522" y="314" type="line"/>
      <point x="465" y="277"/>
      <point x="424" y="239"/>
      <point x="351" y="155" type="curve"/>
      <point x="337" y="155" type="line"/>
      <point x="329" y="99" type="line"/>
      <point x="422" y="213"/>
      <point x="499" y="286"/>
      <point x="526" y="286" type="curve" smooth="yes"/>
      <point x="547" y="286"/>
      <point x="563" y="248"/>
      <point x="563" y="198" type="curve" smooth="yes"/>
      <point x="563" y="93"/>
      <point x="494" y="17"/>
      <point x="398" y="17" type="curve"/>
      <point x="317" y="30" type="line"/>
      <point x="303" y="11" type="line"/>
    </contour>
  </outline>
</glyph>
<glyph name="Izhitsa-cy" format="2">
  <advance width="563"/>
  <unicode hex="0474"/>
  <outline>
    <contour>
      <point x="218" y="0" type="line"/>
      <point x="237" y="0" type="line"/>
      <point x="500" y="531" type="line" smooth="yes"/>
      <point x="534" y="599"/>
      <point x="550" y="616"/>
      <point x="579" y="615" type="curve"/>
      <point x="582" y="619" type="line"/>
      <point x="582" y="637" type="line"/>
      <point x="546" y="640"/>
      <point x="524" y="617"/>
      <point x="484" y="537" type="curve" smooth="yes"/>
      <point x="233" y="34" type="line"/>
      <point x="230" y="34" type="line"/>
      <point x="100" y="594" type="line"/>
      <point x="93" y="637" type="line"/>
      <point x="71" y="637" type="line"/>
    </contour>
  </outline>
</glyph>
<glyph name="Gheupturn-cy" format="2">
  <advance width="428"/>
  <unicode hex="0490"/>
  <outline>
    <contour>
      <point x="80" y="0" type="line"/>
      <point x="100" y="0" type="line"/>
      <point x="124" y="195" type="line"/>
      <point x="178" y="637" type="line"/>
      <point x="159" y="637" type="line"/>
      <point x="104" y="195" type="line"/>
    </contour>
    <contour>
      <point x="168" y="617" type="line"/>
      <point x="307" y="617" type="line"/>
      <point x="444" y="617" type="line"/>
      <point x="445" y="637" type="line"/>
      <point x="170" y="637" type="line"/>
    </contour>
    <contour>
      <point x="444" y="617" type="line"/>
      <point x="465" y="736" type="line"/>
      <point x="446" y="735" type="line"/>
      <point x="426" y="619" type="line"/>
    </contour>
  </outline>
</glyph>
<glyph name="gheupturn-cy" format="2">
  <advance width="266"/>
  <unicode hex="0491"/>
  <outline>
    <contour>
      <point x="116" y="452" type="line"/>
      <point x="110" y="362" type="line"/>
      <point x="62" y="8" type="line" smooth="yes"/>
      <point x="50" y="-83"/>
      <point x="25" y="-125"/>
      <point x="-48" y="-175" type="curve"/>
      <point x="-49" y="-181" type="line"/>
      <point x="-38" y="-192" type="line"/>
      <point x="41" y="-138"/>
      <point x="73" y="-90"/>
      <point x="85" y="18" type="curve" smooth="yes"/>
      <point x="95" y="106" type="line"/>
      <point x="140" y="452" type="line"/>
    </contour>
    <contour>
      <point x="276" y="432" type="line"/>
      <point x="276" y="452" type="line"/>
      <point x="129" y="452" type="line"/>
      <point x="127" y="433" type="line"/>
      <point x="200" y="433" type="line"/>
    </contour>
    <contour>
      <point x="276" y="432" type="line"/>
      <point x="296" y="549" type="line"/>
      <point x="277" y="548" type="line"/>
      <point x="257" y="434" type="line"/>
    </contour>
  </outline>
</glyph>
<glyph name="Ghestroke-cy" format="2">
  <advance width="423"/>
  <unicode hex="0492"/>
  <outline>
    <contour>
      <point x="193.54" y="637" type="line"/>
      <point x="174.14" y="637" type="line"/>
      <point x="121.75999999999999" y="195" type="line"/>
      <point x="98.47999999999999" y="0" type="line"/>
      <point x="117.88" y="0" type="line"/>
      <point x="141.16" y="195" type="line"/>
    </contour>
    <contour>
      <point x="443.8" y="637" type="line"/>
      <point x="185.78" y="637" type="line"/>
      <point x="179.95999999999998" y="621" type="line"/>
      <point x="183.84" y="617" type="line"/>
      <point x="313.82" y="617" type="line"/>
      <point x="440.89" y="617" type="line"/>
      <point x="446.71" y="633" type="line"/>
    </contour>
    <contour>
      <point x="301.1152" y="329" type="line"/>
      <point x="55.6744" y="329" type="line"/>
      <point x="52.3688" y="312" type="line"/>
      <point x="54.0216" y="309" type="line"/>
      <point x="299.4624" y="309" type="line"/>
      <point x="302.76800000000003" y="326" type="line"/>
    </contour>
  </outline>
</glyph>
<glyph name="Kaverticalstroke-cy" format="2">
  <advance width="539"/>
  <unicode hex="049C"/>
  <anchor x="227" y="184" name="center"/>
  <outline>
    <contour>
      <point x="461" y="-7" type="line"/>
      <point x="465" y="-5"/>
      <point x="471" y="-3"/>
      <point x="474" y="1" type="curve"/>
      <point x="474" y="5" type="line"/>
      <point x="399" y="108"/>
      <point x="327" y="226"/>
      <point x="264" y="341" type="curve"/>
      <point x="538" y="637" type="line"/>
      <point x="509" y="637" type="line"/>
      <point x="470" y="590" type="line"/>
      <point x="239" y="341" type="line"/>
      <point x="239" y="338" type="line"/>
      <point x="305" y="219"/>
      <point x="380" y="102"/>
      <point x="457" y="-6" type="curve"/>
    </contour>
    <contour>
      <point x="80" y="0" type="line"/>
      <point x="99" y="0" type="line"/>
      <point x="123" y="195" type="line"/>
      <point x="178" y="637" type="line"/>
      <point x="158" y="637" type="line"/>
      <point x="104" y="195" type="line"/>
    </contour>
    <contour>
      <point x="130" y="329" type="line"/>
      <point x="255" y="329" type="line"/>
      <point x="258" y="349" type="line"/>
      <point x="133" y="349" type="line"/>
    </contour>
    <contour>
      <point x="178" y="173" type="line"/>
      <point x="195" y="175" type="line"/>
      <point x="233" y="492" type="line"/>
      <point x="231" y="495" type="line"/>
      <point x="214" y="493" type="line"/>
      <point x="175" y="176" type="line"/>
    </contour>
  </outline>
</glyph>
<glyph name="kaverticalstroke-cy" format="2">
  <advance width="413"/>
  <unicode hex="049D"/>
  <outline>
    <contour>
      <point x="345" y="-7" type="line"/>
      <point x="351" y="-5"/>
      <point x="356" y="-2"/>
      <point x="360" y="2" type="curve"/>
      <point x="360" y="5" type="line"/>
      <point x="311" y="78"/>
      <point x="263" y="158"/>
      <point x="219" y="240" type="curve"/>
      <point x="402" y="452" type="line"/>
      <point x="373" y="452" type="line"/>
      <point x="342" y="418" type="line"/>
      <point x="195" y="244" type="line"/>
      <point x="194" y="238" type="line"/>
      <point x="242" y="154"/>
      <point x="290" y="72"/>
      <point x="342" y="-6" type="curve"/>
    </contour>
    <contour>
      <point x="57" y="-4" type="line"/>
      <point x="83" y="0" type="line"/>
      <point x="91" y="106" type="line"/>
      <point x="137" y="456" type="line"/>
      <point x="112" y="452" type="line"/>
      <point x="106" y="362" type="line"/>
    </contour>
    <contour>
      <point x="97" y="230" type="line"/>
      <point x="206" y="230" type="line"/>
      <point x="209" y="250" type="line"/>
      <point x="100" y="250" type="line"/>
    </contour>
    <contour>
      <point x="137" y="117" type="line"/>
      <point x="155" y="118" type="line"/>
      <point x="183" y="353" type="line"/>
      <point x="181" y="355" type="line"/>
      <point x="164" y="354" type="line"/>
      <point x="135" y="119" type="line"/>
    </contour>
  </outline>
</glyph>
<glyph name="Kabashkir-cy" format="2">
  <advance width="592"/>
  <unicode hex="04A0"/>
  <outline>
    <contour>
      <point x="618" y="637" type="line"/>
      <point x="587" y="637" type="line"/>
      <point x="540" y="590" type="line"/>
      <point x="268" y="341" type="line"/>
      <point x="268" y="338" type="line"/>
      <point x="349" y="219"/>
      <point x="443" y="102"/>
      <point x="537" y="-6" type="curve"/>
      <point x="541" y="-7" type="line"/>
      <point x="546" y="-5"/>
      <point x="552" y="-3"/>
      <point x="555" y="1" type="curve"/>
      <point x="555" y="5" type="line"/>
      <point x="463" y="108"/>
      <point x="372" y="225"/>
      <point x="294" y="340" type="curve"/>
    </contour>
    <contour>
      <point x="276" y="637" type="line"/>
      <point x="257" y="637" type="line"/>
      <point x="202" y="195" type="line"/>
      <point x="178" y="0" type="line"/>
      <point x="198" y="0" type="line"/>
      <point x="222" y="195" type="line"/>
    </contour>
    <contour>
      <point x="265" y="617" type="line"/>
      <point x="267" y="637" type="line"/>
      <point x="66" y="637" type="line"/>
      <point x="61" y="621" type="line"/>
      <point x="63" y="617" type="line"/>
      <point x="164" y="617" type="line"/>
    </contour>
  </outline>
</glyph>
<glyph name="endescender-cy" format="2">
  <advance width="459"/>
  <unicode hex="04A3"/>
  <outline>
    <contour>
      <point x="137" y="456" type="line"/>
      <point x="112" y="452" type="line"/>
      <point x="106" y="362" type="line"/>
      <point x="57" y="-4" type="line"/>
      <point x="84" y="0" type="line"/>
      <point x="91" y="106" type="line"/>
    </contour>
    <contour>
      <point x="99" y="239" type="line"/>
      <point x="97" y="220" type="line"/>
      <point x="217" y="220" type="line"/>
      <point x="343" y="220" type="line"/>
      <point x="345" y="239" type="line"/>
      <point x="219" y="239" type="line"/>
    </contour>
    <component base="_part.stemDescender-cy" xOffset="232"/>
  </outline>
</glyph>
<glyph name="enghe-cy" format="2">
  <advance width="559"/>
  <unicode hex="04A5"/>
  <outline>
    <contour>
      <point x="137" y="456" type="line"/>
      <point x="112" y="452" type="line"/>
      <point x="106" y="362" type="line"/>
      <point x="57" y="-4" type="line"/>
      <point x="84" y="0" type="line"/>
      <point x="91" y="106" type="line"/>
    </contour>
    <contour>
      <point x="99" y="239" type="line"/>
      <point x="97" y="220" type="line"/>
      <point x="217" y="220" type="line"/>
      <point x="343" y="220" type="line"/>
      <point x="345" y="239" type="line"/>
      <point x="219" y="239" type="line"/>
    </contour>
    <contour>
      <point x="303" y="-4" type="line"/>
      <point x="330" y="0" type="line"/>
      <point x="337" y="106" type="line"/>
      <point x="382" y="452" type="line"/>
      <point x="358" y="452" type="line"/>
      <point x="352" y="362" type="line"/>
    </contour>
    <contour>
      <point x="574" y="432" type="line"/>
      <point x="579" y="449" type="line"/>
      <point x="576" y="452" type="line"/>
      <point x="371" y="452" type="line"/>
      <point x="369" y="433" type="line"/>
      <point x="498" y="433" type="line"/>
    </contour>
  </outline>
</glyph>
<glyph name="cheverticalstroke-cy" format="2">
  <advance width="408"/>
  <unicode hex="04B9"/>
  <outline>
    <contour>
      <point x="106" y="134" type="curve"/>
      <point x="118" y="134" type="line"/>
      <point x="166" y="150"/>
      <point x="210" y="178"/>
      <point x="299" y="250" type="curve"/>
      <point x="312" y="250" type="line"/>
      <point x="317" y="294" type="line"/>
      <point x="230" y="213"/>
      <point x="148" y="159"/>
      <point x="111" y="159" type="curve" smooth="yes"/>
      <point x="90" y="159"/>
      <point x="73" y="179"/>
      <point x="73" y="198" type="curve"/>
      <point x="73" y="209" type="line"/>
      <point x="106" y="456" type="line"/>
      <point x="81" y="452" type="line"/>
      <point x="74" y="362" type="line"/>
      <point x="53" y="206" type="line"/>
      <point x="52" y="197" type="line"/>
      <point x="51" y="167"/>
      <point x="72" y="140"/>
    </contour>
    <contour>
      <point x="270" y="-4" type="line"/>
      <point x="297" y="0" type="line"/>
      <point x="304" y="106" type="line"/>
      <point x="350" y="456" type="line"/>
      <point x="325" y="452" type="line"/>
      <point x="319" y="362" type="line"/>
    </contour>
    <contour>
      <point x="162" y="73" type="line"/>
      <point x="180" y="74" type="line"/>
      <point x="208" y="309" type="line"/>
      <point x="206" y="311" type="line"/>
      <point x="189" y="310" type="line"/>
      <point x="160" y="75" type="line"/>
    </contour>
  </outline>
</glyph>
<glyph name="Shha-cy" format="2">
  <advance width="534"/>
  <unicode hex="04BA"/>
  <outline>
    <contour>
      <point x="417" y="0" type="line"/>
      <point x="437" y="0" type="line"/>
      <point x="464" y="220" type="line" smooth="yes"/>
      <point x="480" y="352"/>
      <point x="439" y="414"/>
      <point x="334" y="414" type="curve"/>
      <point x="272" y="414"/>
      <point x="211" y="388"/>
      <point x="148" y="335" type="curve"/>
      <point x="135" y="335" type="line"/>
      <point x="131" y="298" type="line"/>
      <point x="203" y="365"/>
      <point x="266" y="394"/>
      <point x="336" y="394" type="curve" smooth="yes"/>
      <point x="423" y="394"/>
      <point x="458" y="335"/>
      <point x="443" y="217" type="curve" smooth="yes"/>
    </contour>
    <contour>
      <point x="84" y="0" type="line"/>
      <point x="103" y="0" type="line"/>
      <point x="127" y="195" type="line"/>
      <point x="182" y="637" type="line"/>
      <point x="162" y="637" type="line"/>
      <point x="108" y="195" type="line"/>
    </contour>
  </outline>
</glyph>
<glyph name="Chekhakassian-cy" format="2">
  <advance width="535"/>
  <unicode hex="04CB"/>
  <anchor x="376" y="0" name="bottomright"/>
  <anchor x="296" y="637" name="top"/>
  <outline>
    <contour>
      <point x="228" y="226" type="curve"/>
      <point x="291" y="226"/>
      <point x="352" y="253"/>
      <point x="410" y="305" type="curve"/>
      <point x="423" y="305" type="line"/>
      <point x="428" y="346" type="line"/>
      <point x="359" y="277"/>
      <point x="296" y="246"/>
      <point x="226" y="246" type="curve" smooth="yes"/>
      <point x="136" y="246"/>
      <point x="97" y="290"/>
      <point x="108" y="383" type="curve" smooth="yes"/>
      <point x="140" y="637" type="line"/>
      <point x="120" y="637" type="line"/>
      <point x="89" y="380" type="line" smooth="yes"/>
      <point x="76" y="274"/>
      <point x="120" y="226"/>
    </contour>
    <contour>
      <point x="281" y="-115" type="line"/>
      <point x="301" y="-111" type="line"/>
      <point x="317" y="20" type="line"/>
      <point x="298" y="20" type="line"/>
    </contour>
    <contour>
      <point x="295" y="0" type="line"/>
      <point x="396" y="0" type="line"/>
      <point x="399" y="20" type="line"/>
      <point x="298" y="20" type="line"/>
    </contour>
    <contour>
      <point x="376" y="0" type="line"/>
      <point x="396" y="0" type="line"/>
      <point x="419" y="195" type="line"/>
      <point x="474" y="637" type="line"/>
      <point x="454" y="637" type="line"/>
      <point x="400" y="195" type="line"/>
    </contour>
  </outline>
</glyph>
<glyph name="obarred-cy" format="2">
  <advance width="390"/>
  <unicode hex="04E9"/>
  <outline>
    <contour>
      <point x="327" y="240" type="line"/>
      <point x="63" y="235" type="line"/>
      <point x="59" y="219" type="line"/>
      <point x="62" y="215" type="line"/>
      <point x="327" y="220" type="line"/>
      <point x="330" y="236" type="line"/>
    </contour>
    <component base="o" xOffset="-3"/>
  </outline>
</glyph>
<glyph name="pedescender-cy" format="2">
  <advance width="458"/>
  <unicode hex="0525"/>
  <anchor x="196" y="0" name="bottom"/>
  <anchor x="252" y="452" name="top"/>
  <outline>
    <contour>
      <point x="58" y="-4" type="line"/>
      <point x="83" y="0" type="line"/>
      <point x="92" y="106" type="line"/>
      <point x="138" y="456" type="line"/>
      <point x="113" y="452" type="line"/>
      <point x="106" y="362" type="line"/>
    </contour>
    <contour>
      <point x="390" y="20" type="line"/>
      <point x="352" y="20" type="line" smooth="yes"/>
      <point x="329" y="20"/>
      <point x="323" y="26"/>
      <point x="328" y="53" type="curve" smooth="yes"/>
      <point x="381" y="364" type="line"/>
      <point x="382" y="377" type="line" smooth="yes"/>
      <point x="384" y="419"/>
      <point x="362" y="453"/>
      <point x="331" y="462" type="curve"/>
      <point x="320" y="462" type="line"/>
      <point x="250" y="416"/>
      <point x="185" y="319"/>
      <point x="107" y="184" type="curve"/>
      <point x="94" y="184" type="line"/>
      <point x="82" y="98" type="line"/>
      <point x="196" y="314"/>
      <point x="293" y="436"/>
      <point x="327" y="436" type="curve" smooth="yes"/>
      <point x="344" y="436"/>
      <point x="362" y="410"/>
      <point x="361" y="376" type="curve"/>
      <point x="360" y="361" type="line"/>
      <point x="307" y="52" type="line" smooth="yes"/>
      <point x="300" y="13"/>
      <point x="311" y="0"/>
      <point x="345" y="0" type="curve" smooth="yes"/>
      <point x="373" y="0" type="line"/>
      <point x="365" y="-40" type="line" smooth="yes"/>
      <point x="355" y="-88"/>
      <point x="340" y="-111"/>
      <point x="299" y="-135" type="curve"/>
      <point x="300" y="-141" type="line"/>
      <point x="317" y="-144" type="line"/>
      <point x="358" y="-119"/>
      <point x="372" y="-97"/>
      <point x="384" y="-43" type="curve" smooth="yes"/>
      <point x="396" y="13" type="line"/>
    </contour>
  </outline>
</glyph>
<glyph name="perispomeni" format="2">
  <advance width="344"/>
  <unicode hex="1FC0"/>
  <anchor x="200" y="452" name="_top"/>
  <outline>
    <contour>
      <point x="328" y="630" type="line"/>
      <point x="325" y="630" type="line"/>
      <point x="302" y="606"/>
      <point x="291" y="589"/>
      <point x="281" y="589" type="curve"/>
      <point x="260" y="589"/>
      <point x="181" y="623"/>
      <point x="149" y="627" type="curve"/>
      <point x="144" y="625" type="line"/>
      <point x="99" y="579" type="line"/>
      <point x="99" y="575" type="line"/>
      <point x="108" y="564" type="line"/>
      <point x="111" y="564" type="line"/>
      <point x="134" y="588"/>
      <point x="145" y="605"/>
      <point x="155" y="605" type="curve"/>
      <point x="176" y="605"/>
      <point x="255" y="571"/>
      <point x="287" y="567" type="curve"/>
      <point x="291" y="569" type="line"/>
      <point x="336" y="616" type="line"/>
      <point x="336" y="620" type="line"/>
    </contour>
  </outline>
</glyph>
<glyph name="dialytikaperispomeni" format="2">
  <advance width="317"/>
  <unicode hex="1FC1"/>
  <anchor x="185" y="452" name="top"/>
  <outline>
    <contour>
      <point x="120" y="520" type="curve" smooth="yes"/>
      <point x="132" y="520"/>
      <point x="140" y="528"/>
      <point x="140" y="540" type="curve" smooth="yes"/>
      <point x="140" y="552"/>
      <point x="132" y="560"/>
      <point x="120" y="560" type="curve" smooth="yes"/>
      <point x="108" y="560"/>
      <point x="100" y="552"/>
      <point x="100" y="540" type="curve" smooth="yes"/>
      <point x="100" y="528"/>
      <point x="108" y="520"/>
    </contour>
    <contour>
      <point x="260" y="520" type="curve" smooth="yes"/>
      <point x="272" y="520"/>
      <point x="280" y="528"/>
      <point x="280" y="540" type="curve" smooth="yes"/>
      <point x="280" y="552"/>
      <point x="272" y="560"/>
      <point x="260" y="560" type="curve" smooth="yes"/>
      <point x="248" y="560"/>
      <point x="240" y="552"/>
      <point x="240" y="540" type="curve" smooth="yes"/>
      <point x="240" y="528"/>
      <point x="248" y="520"/>
    </contour>
    <contour>
      <point x="302" y="659" type="line"/>
      <point x="299" y="659" type="line"/>
      <point x="279" y="638"/>
      <point x="269" y="623"/>
      <point x="261" y="623" type="curve"/>
      <point x="243" y="623"/>
      <point x="175" y="653"/>
      <point x="147" y="656" type="curve"/>
      <point x="142" y="655" type="line"/>
      <point x="103" y="614" type="line"/>
      <point x="103" y="610" type="line"/>
      <point x="112" y="601" type="line"/>
      <point x="115" y="601" type="line"/>
      <point x="135" y="622"/>
      <point x="144" y="636"/>
      <point x="153" y="636" type="curve"/>
      <point x="171" y="636"/>
      <point x="239" y="607"/>
      <point x="267" y="603" type="curve"/>
      <point x="270" y="605" type="line"/>
      <point x="309" y="647" type="line"/>
      <point x="309" y="650" type="line"/>
    </contour>
  </outline>
</glyph>
<glyph name="psiliperispomeni" format="2">
  <advance width="266"/>
  <unicode hex="1FCF"/>
  <anchor x="189" y="664" name="top"/>
  <outline>
    <contour>
      <point x="151" y="501" type="line"/>
      <point x="213" y="540"/>
      <point x="213" y="588"/>
      <point x="153" y="593" type="curve"/>
      <point x="149" y="588"/>
      <point x="146" y="584"/>
      <point x="145" y="582" type="curve"/>
      <point x="145" y="578" type="line"/>
      <point x="190" y="571"/>
      <point x="188" y="548"/>
      <point x="141" y="513" type="curve"/>
      <point x="141" y="510" type="line"/>
    </contour>
    <contour>
      <point x="280" y="659" type="line"/>
      <point x="277" y="659" type="line"/>
      <point x="257" y="638"/>
      <point x="247" y="623"/>
      <point x="239" y="623" type="curve"/>
      <point x="221" y="623"/>
      <point x="153" y="653"/>
      <point x="125" y="656" type="curve"/>
      <point x="120" y="655" type="line"/>
      <point x="81" y="614" type="line"/>
      <point x="81" y="610" type="line"/>
      <point x="89" y="601" type="line"/>
      <point x="93" y="601" type="line"/>
      <point x="113" y="622"/>
      <point x="122" y="636"/>
      <point x="131" y="636" type="curve"/>
      <point x="149" y="636"/>
      <point x="217" y="607"/>
      <point x="245" y="603" type="curve"/>
      <point x="248" y="605" type="line"/>
      <point x="287" y="647" type="line"/>
      <point x="287" y="650" type="line"/>
    </contour>
  </outline>
</glyph>
<glyph name="dasiavaria" format="2">
  <advance width="258"/>
  <unicode hex="1FDD"/>
  <anchor x="172" y="452" name="_top"/>
  <anchor x="264" y="660" name="_topleft"/>
  <anchor x="199" y="674" name="top"/>
  <outline>
    <contour>
      <point x="153" y="664" type="curve"/>
      <point x="114" y="656"/>
      <point x="97" y="634"/>
      <point x="97" y="603" type="curve" smooth="yes"/>
      <point x="97" y="576"/>
      <point x="109" y="544"/>
      <point x="137" y="511" type="curve"/>
      <point x="151" y="521" type="line"/>
      <point x="151" y="525" type="line"/>
      <point x="129" y="554"/>
      <point x="118" y="580"/>
      <point x="118" y="601" type="curve" smooth="yes"/>
      <point x="118" y="623"/>
      <point x="132" y="638"/>
      <point x="160" y="645" type="curve"/>
      <point x="160" y="649" type="line"/>
      <point x="160" y="653"/>
      <point x="157" y="658"/>
    </contour>
    <contour>
      <point x="233" y="519" type="line"/>
      <point x="247" y="525" type="line"/>
      <point x="233" y="568"/>
      <point x="221" y="615"/>
      <point x="207" y="673" type="curve"/>
      <point x="202" y="674" type="line"/>
      <point x="189" y="670" type="line"/>
      <point x="186" y="664" type="line"/>
      <point x="200" y="614"/>
      <point x="213" y="569"/>
      <point x="228" y="520" type="curve"/>
    </contour>
  </outline>
</glyph>
<glyph name="varia" format="2">
  <advance width="177"/>
  <unicode hex="1FEF"/>
  <anchor x="139" y="452" name="top"/>
  <anchor x="168" y="661" name="topleft"/>
  <outline>
    <contour>
      <point x="150" y="520" type="line"/>
      <point x="164" y="526" type="line"/>
      <point x="150" y="569"/>
      <point x="138" y="616"/>
      <point x="124" y="674" type="curve"/>
      <point x="119" y="675" type="line"/>
      <point x="106" y="671" type="line"/>
      <point x="103" y="665" type="line"/>
      <point x="117" y="615"/>
      <point x="130" y="570"/>
      <point x="145" y="521" type="curve"/>
    </contour>
  </outline>
</glyph>
<glyph name="dasia" format="2">
  <advance width="178"/>
  <unicode hex="1FFE"/>
  <anchor x="181" y="661" name="topleft"/>
  <anchor x="140" y="572" name="top"/>
  <outline>
    <contour>
      <point x="156" y="672" type="curve"/>
      <point x="117" y="664"/>
      <point x="100" y="642"/>
      <point x="100" y="611" type="curve" smooth="yes"/>
      <point x="100" y="584"/>
      <point x="112" y="552"/>
      <point x="140" y="519" type="curve"/>
      <point x="154" y="529" type="line"/>
      <point x="154" y="533" type="line"/>
      <point x="132" y="562"/>
      <point x="121" y="588"/>
      <point x="121" y="609" type="curve" smooth="yes"/>
      <point x="121" y="631"/>
      <point x="135" y="646"/>
      <point x="163" y="653" type="curve"/>
      <point x="163" y="657" type="line"/>
      <point x="163" y="661"/>
      <point x="160" y="666"/>
    </contour>
  </outline>
</glyph>
<glyph name="figuredash" format="2">
  <advance width="475"/>
  <unicode hex="2012"/>
  <outline>
    <contour>
      <point x="489" y="264" type="line"/>
      <point x="-12" y="264" type="line"/>
      <point x="-16" y="247" type="line"/>
      <point x="-13" y="244" type="line"/>
      <point x="488" y="244" type="line"/>
      <point x="492" y="261" type="line"/>
    </contour>
  </outline>
</glyph>
<glyph name="quoteright" format="2">
  <advance width="124.17"/>
  <unicode hex="2019"/>
  <outline>
    <contour>
      <point x="83" y="634" type="curve"/>
      <point x="78" y="627"/>
      <point x="74" y="622"/>
      <point x="73" y="618" type="curve"/>
      <point x="73" y="614" type="line"/>
      <point x="99" y="608"/>
      <point x="111" y="594"/>
      <point x="111" y="575" type="curve" smooth="yes"/>
      <point x="111" y="552"/>
      <point x="97" y="524"/>
      <point x="67" y="492" type="curve"/>
      <point x="67" y="488" type="line"/>
      <point x="80" y="477" type="line"/>
      <point x="116" y="515"/>
      <point x="133" y="550"/>
      <point x="133" y="579" type="curve" smooth="yes"/>
      <point x="133" y="607"/>
      <point x="117" y="626"/>
    </contour>
  </outline>
</glyph>
<glyph name="bullet" format="2">
  <advance width="230"/>
  <unicode hex="2022"/>
  <outline>
    <contour>
      <point x="116" y="257" type="curve" smooth="yes"/>
      <point x="104" y="257"/>
      <point x="96" y="249"/>
      <point x="96" y="237" type="curve" smooth="yes"/>
      <point x="96" y="225"/>
      <point x="104" y="217"/>
      <point x="116" y="217" type="curve" smooth="yes"/>
      <point x="128" y="217"/>
      <point x="136" y="225"/>
      <point x="136" y="237" type="curve" smooth="yes"/>
      <point x="136" y="249"/>
      <point x="128" y="257"/>
    </contour>
  </outline>
</glyph>
<glyph name="guilsinglright" format="2">
  <advance width="214"/>
  <unicode hex="203A"/>
  <outline>
    <contour>
      <point x="26" y="396" type="line"/>
      <point x="13" y="387" type="line"/>
      <point x="12" y="381" type="line"/>
      <point x="138" y="223" type="line"/>
      <point x="-26" y="65" type="line"/>
      <point x="-27" y="59" type="line"/>
      <point x="-16" y="50" type="line"/>
      <point x="159" y="215" type="line"/>
      <point x="161" y="226" type="line"/>
    </contour>
  </outline>
</glyph>
<glyph name="commercialMinusSign" format="2">
  <advance width="693"/>
  <unicode hex="2052"/>
  <outline>
    <contour>
      <point x="606" y="669" type="line"/>
      <point x="75" y="-17" type="line"/>
      <point x="78" y="-26" type="line"/>
      <point x="87" y="-30" type="line"/>
      <point x="617" y="656" type="line"/>
      <point x="615" y="664" type="line"/>
    </contour>
    <contour>
      <point x="181" y="638" type="curve" smooth="yes"/>
      <point x="163" y="638"/>
      <point x="150" y="626"/>
      <point x="150" y="607" type="curve" smooth="yes"/>
      <point x="150" y="593"/>
      <point x="159" y="583"/>
      <point x="174" y="583" type="curve" smooth="yes"/>
      <point x="192" y="583"/>
      <point x="205" y="596"/>
      <point x="205" y="614" type="curve" smooth="yes"/>
      <point x="205" y="629"/>
      <point x="196" y="638"/>
    </contour>
    <contour>
      <point x="516" y="53" type="curve" smooth="yes"/>
      <point x="498" y="53"/>
      <point x="485" y="41"/>
      <point x="485" y="22" type="curve" smooth="yes"/>
      <point x="485" y="8"/>
      <point x="494" y="-2"/>
      <point x="509" y="-2" type="curve" smooth="yes"/>
      <point x="527" y="-2"/>
      <point x="540" y="11"/>
      <point x="540" y="29" type="curve" smooth="yes"/>
      <point x="540" y="44"/>
      <point x="531" y="53"/>
    </contour>
  </outline>
</glyph>
<glyph name="franc" format="2">
  <advance width="374.953"/>
  <unicode hex="20A3"/>
  <outline>
    <contour>
      <point x="158" y="491" type="line"/>
      <point x="137" y="491" type="line"/>
      <point x="95" y="150" type="line"/>
      <point x="77" y="0" type="line"/>
      <point x="98" y="0" type="line"/>
      <point x="115" y="151" type="line"/>
    </contour>
    <contour>
      <point x="232" y="136" type="line"/>
      <point x="23" y="136" type="line"/>
      <point x="19" y="119" type="line"/>
      <point x="22" y="116" type="line"/>
      <point x="231" y="116" type="line"/>
      <point x="235" y="133" type="line"/>
    </contour>
    <contour>
      <point x="315" y="256" type="line"/>
      <point x="232" y="256" type="line"/>
      <point x="123" y="256" type="line"/>
      <point x="117" y="239" type="line"/>
      <point x="121" y="236" type="line"/>
      <point x="227" y="236" type="line"/>
      <point x="312" y="236" type="line"/>
      <point x="317" y="252" type="line"/>
    </contour>
    <contour>
      <point x="387" y="491" type="line"/>
      <point x="151" y="491" type="line"/>
      <point x="146" y="475" type="line"/>
      <point x="148" y="471" type="line"/>
      <point x="268" y="471" type="line"/>
      <point x="383" y="471" type="line"/>
      <point x="389" y="487" type="line"/>
    </contour>
  </outline>
</glyph>
<glyph name="lira" format="2">
  <advance width="384"/>
  <unicode hex="20A4"/>
  <outline>
    <contour>
      <point x="274" y="591" type="curve" smooth="yes"/>
      <point x="192" y="591"/>
      <point x="143" y="540"/>
      <point x="132" y="447" type="curve" smooth="yes"/>
      <point x="93" y="130" type="line" smooth="yes"/>
      <point x="85" y="64"/>
      <point x="55" y="24"/>
      <point x="10" y="18" type="curve"/>
      <point x="5" y="4" type="line"/>
      <point x="9" y="0" type="line"/>
      <point x="244" y="0" type="line"/>
      <point x="316" y="0" type="line"/>
      <point x="320" y="16" type="line"/>
      <point x="317" y="21" type="line"/>
      <point x="248" y="20" type="line"/>
      <point x="60" y="20" type="line"/>
      <point x="60" y="22" type="line"/>
      <point x="90" y="45"/>
      <point x="107" y="79"/>
      <point x="113" y="130" type="curve" smooth="yes"/>
      <point x="152" y="447" type="line" smooth="yes"/>
      <point x="162" y="527"/>
      <point x="201" y="571"/>
      <point x="275" y="571" type="curve" smooth="yes"/>
      <point x="303" y="571"/>
      <point x="336" y="565"/>
      <point x="363" y="551" type="curve"/>
      <point x="366" y="553" type="line"/>
      <point x="371" y="572" type="line"/>
      <point x="335" y="585"/>
      <point x="302" y="591"/>
    </contour>
    <contour>
      <point x="278" y="362" type="line"/>
      <point x="54" y="362" type="line"/>
      <point x="49" y="346" type="line"/>
      <point x="53" y="342" type="line"/>
      <point x="276" y="342" type="line"/>
      <point x="280" y="358" type="line"/>
    </contour>
    <contour>
      <point x="264" y="246" type="line"/>
      <point x="40" y="246" type="line"/>
      <point x="35" y="230" type="line"/>
      <point x="38" y="226" type="line"/>
      <point x="261" y="226" type="line"/>
      <point x="266" y="242" type="line"/>
    </contour>
  </outline>
</glyph>
<glyph name="naira" format="2">
  <advance width="656"/>
  <unicode hex="20A6"/>
  <anchor x="297" y="0" name="bottom"/>
  <anchor x="359" y="491" name="top"/>
  <outline>
    <contour>
      <point x="60" y="294" type="line"/>
      <point x="615" y="294" type="line"/>
      <point x="619" y="311" type="line"/>
      <point x="617" y="314" type="line"/>
      <point x="61" y="314" type="line"/>
      <point x="57" y="297" type="line"/>
    </contour>
    <contour>
      <point x="45" y="175" type="line"/>
      <point x="601" y="175" type="line"/>
      <point x="605" y="192" type="line"/>
      <point x="602" y="195" type="line"/>
      <point x="46" y="195" type="line"/>
      <point x="42" y="178" type="line"/>
    </contour>
    <contour>
      <point x="547" y="492" type="line"/>
      <point x="526" y="490" type="line"/>
      <point x="470" y="40" type="line"/>
      <point x="466" y="40" type="line"/>
      <point x="195" y="491" type="line"/>
      <point x="176" y="491" type="line"/>
      <point x="132" y="146" type="line"/>
      <point x="114" y="0" type="line"/>
      <point x="134" y="0" type="line"/>
      <point x="153" y="154" type="line"/>
      <point x="191" y="451" type="line"/>
      <point x="194" y="451" type="line"/>
      <point x="464" y="0" type="line"/>
      <point x="484" y="0" type="line"/>
      <point x="502" y="137" type="line"/>
    </contour>
  </outline>
</glyph>
<glyph name="peseta" format="2">
  <advance width="1067"/>
  <unicode hex="20A7"/>
  <anchor x="890" y="0" name="bottom"/>
  <anchor x="601" y="226" name="center"/>
  <anchor x="949" y="452" name="top"/>
  <anchor x="729" y="452" name="topright"/>
  <outline>
    <contour>
      <point x="293" y="639" type="curve"/>
      <point x="160" y="637" type="line"/>
      <point x="165" y="618" type="line"/>
      <point x="298" y="619" type="line"/>
      <point x="380" y="615"/>
      <point x="424" y="567"/>
      <point x="424" y="485" type="curve" smooth="yes"/>
      <point x="424" y="365"/>
      <point x="358" y="280"/>
      <point x="246" y="269" type="curve"/>
      <point x="124" y="269" type="line"/>
      <point x="121" y="249" type="line"/>
      <point x="214" y="249" type="line"/>
      <point x="362" y="249"/>
      <point x="444" y="339"/>
      <point x="444" y="489" type="curve" smooth="yes"/>
      <point x="444" y="584"/>
      <point x="390" y="639"/>
    </contour>
    <contour>
      <point x="180" y="637" type="line"/>
      <point x="160" y="637" type="line"/>
      <point x="105" y="195" type="line"/>
      <point x="80" y="0" type="line"/>
      <point x="100" y="0" type="line"/>
      <point x="125" y="195" type="line"/>
    </contour>
    <contour>
      <point x="593" y="-5" type="curve"/>
      <point x="634" y="4"/>
      <point x="660" y="31"/>
      <point x="708" y="108" type="curve"/>
      <point x="699" y="120" type="line"/>
      <point x="692" y="120" type="line"/>
      <point x="656" y="54"/>
      <point x="617" y="15"/>
      <point x="589" y="15" type="curve" smooth="yes"/>
      <point x="564" y="15"/>
      <point x="549" y="34"/>
      <point x="549" y="67" type="curve"/>
      <point x="551" y="87" type="line"/>
      <point x="635" y="587" type="line"/>
      <point x="632" y="590" type="line"/>
      <point x="610" y="580" type="line"/>
      <point x="578" y="362" type="line"/>
      <point x="531" y="86" type="line"/>
      <point x="529" y="64" type="line"/>
      <point x="529" y="19"/>
      <point x="551" y="-5"/>
    </contour>
    <contour>
      <point x="517" y="429" type="line"/>
      <point x="756" y="429" type="line"/>
      <point x="759" y="445" type="line"/>
      <point x="756" y="449" type="line"/>
      <point x="516" y="449" type="line"/>
      <point x="513" y="433" type="line"/>
    </contour>
    <contour>
      <point x="968" y="455" type="curve"/>
      <point x="887" y="456"/>
      <point x="827" y="404"/>
      <point x="827" y="336" type="curve" smooth="yes"/>
      <point x="827" y="231"/>
      <point x="985" y="217"/>
      <point x="985" y="117" type="curve" smooth="yes"/>
      <point x="985" y="63"/>
      <point x="937" y="15"/>
      <point x="869" y="15" type="curve" smooth="yes"/>
      <point x="830" y="15"/>
      <point x="803" y="31"/>
      <point x="781" y="50" type="curve"/>
      <point x="774" y="46" type="line"/>
      <point x="771" y="28" type="line"/>
      <point x="793" y="12"/>
      <point x="820" y="-1"/>
      <point x="857" y="-6" type="curve"/>
      <point x="947" y="-5"/>
      <point x="1006" y="52"/>
      <point x="1006" y="120" type="curve" smooth="yes"/>
      <point x="1006" y="228"/>
      <point x="847" y="249"/>
      <point x="847" y="338" type="curve" smooth="yes"/>
      <point x="847" y="385"/>
      <point x="893" y="435"/>
      <point x="958" y="435" type="curve" smooth="yes"/>
      <point x="980" y="435"/>
      <point x="1003" y="429"/>
      <point x="1027" y="415" type="curve"/>
      <point x="1033" y="416" type="line"/>
      <point x="1040" y="435" type="line"/>
      <point x="1021" y="445"/>
      <point x="997" y="452"/>
    </contour>
  </outline>
</glyph>
<glyph name="dong" format="2">
  <advance width="421"/>
  <unicode hex="20AB"/>
  <anchor x="162.586" y="42" name="bottom"/>
  <anchor x="211.642" y="255.208" name="center"/>
  <anchor x="294.662" y="468.417" name="top"/>
  <anchor x="419.19" y="468.417" name="topright"/>
  <outline>
    <contour>
      <point x="427" y="596" type="line"/>
      <point x="218" y="596" type="line"/>
      <point x="214" y="579" type="line"/>
      <point x="216" y="576" type="line"/>
      <point x="425" y="576" type="line"/>
      <point x="429" y="593" type="line"/>
    </contour>
    <contour>
      <point x="270" y="-53" type="line"/>
      <point x="31" y="-53" type="line"/>
      <point x="27" y="-70" type="line"/>
      <point x="30" y="-73" type="line"/>
      <point x="269" y="-73" type="line"/>
      <point x="273" y="-56" type="line"/>
    </contour>
    <contour>
      <point x="253.152" y="470.304" type="line"/>
      <point x="249.378" y="470.304" type="line"/>
      <point x="109.755" y="461.813"/>
      <point x="31.453" y="327.85"/>
      <point x="31.453" y="167.472" type="curve" smooth="yes"/>
      <point x="31.453" y="95.774"/>
      <point x="47.491" y="61.811"/>
      <point x="79.566" y="38.226" type="curve"/>
      <point x="89.944" y="38.226" type="line"/>
      <point x="158.812" y="98.604"/>
      <point x="227.68" y="192"/>
      <point x="284.284" y="297.661" type="curve"/>
      <point x="289.001" y="297.661" type="line"/>
      <point x="305.982" y="376.907" type="line"/>
      <point x="209.756" y="179.736"/>
      <point x="100.321" y="64.642"/>
      <point x="87.114" y="64.642" type="curve" smooth="yes"/>
      <point x="76.736" y="64.642"/>
      <point x="50.321" y="90.113"/>
      <point x="50.321" y="172.189" type="curve" smooth="yes"/>
      <point x="50.321" y="316.529"/>
      <point x="125.793" y="451.436"/>
      <point x="251.265" y="451.436" type="curve"/>
      <point x="319.19" y="448.605" type="line"/>
      <point x="322.964" y="467.473" type="line"/>
    </contour>
    <contour>
      <point x="360.7" y="704.267" type="line"/>
      <point x="337.115" y="700.493" type="line"/>
      <point x="331.454" y="615.587" type="line"/>
      <point x="254.095" y="38.226" type="line"/>
      <point x="277.68" y="42" type="line"/>
      <point x="286.171" y="142" type="line"/>
    </contour>
  </outline>
</glyph>
<glyph name="tugrik" format="2">
  <advance width="507"/>
  <unicode hex="20AE"/>
  <outline>
    <contour>
      <point x="144" y="232" type="line"/>
      <point x="258" y="285" type="line"/>
      <point x="269" y="289" type="line"/>
      <point x="401" y="352" type="line"/>
      <point x="398" y="366" type="line"/>
      <point x="394" y="369" type="line"/>
      <point x="271" y="312" type="line"/>
      <point x="260" y="308" type="line"/>
      <point x="137" y="250" type="line"/>
      <point x="139" y="236" type="line"/>
    </contour>
    <contour>
      <point x="130" y="120" type="line"/>
      <point x="244" y="173" type="line"/>
      <point x="255" y="177" type="line"/>
      <point x="387" y="240" type="line"/>
      <point x="384" y="254" type="line"/>
      <point x="380" y="257" type="line"/>
      <point x="258" y="200" type="line"/>
      <point x="246" y="196" type="line"/>
      <point x="123" y="138" type="line"/>
      <point x="125" y="124" type="line"/>
    </contour>
    <contour>
      <point x="219" y="0" type="line"/>
      <point x="238" y="0" type="line"/>
      <point x="257" y="151" type="line"/>
      <point x="297" y="483" type="line"/>
      <point x="278" y="483" type="line"/>
      <point x="237" y="150" type="line"/>
    </contour>
    <contour>
      <point x="121" y="471" type="line"/>
      <point x="205" y="472" type="line"/>
      <point x="370" y="472" type="line"/>
      <point x="450" y="471" type="line"/>
      <point x="455" y="487" type="line"/>
      <point x="453" y="491" type="line"/>
      <point x="124" y="491" type="line"/>
      <point x="119" y="475" type="line"/>
    </contour>
  </outline>
</glyph>
<glyph name="hryvnia" format="2">
  <advance width="557"/>
  <unicode hex="20B4"/>
  <outline>
    <contour>
      <point x="257" y="-3" type="curve" smooth="yes"/>
      <point x="303" y="-3"/>
      <point x="356" y="11"/>
      <point x="393" y="33" type="curve"/>
      <point x="394" y="52" type="line"/>
      <point x="389" y="53" type="line"/>
      <point x="354" y="31"/>
      <point x="302" y="16"/>
      <point x="257" y="16" type="curve" smooth="yes"/>
      <point x="185" y="16"/>
      <point x="143" y="56"/>
      <point x="150" y="114" type="curve" smooth="yes"/>
      <point x="166" y="240"/>
      <point x="406" y="238"/>
      <point x="423" y="373" type="curve" smooth="yes"/>
      <point x="431" y="446"/>
      <point x="385" y="493"/>
      <point x="303" y="493" type="curve" smooth="yes"/>
      <point x="268" y="493"/>
      <point x="223" y="484"/>
      <point x="191" y="471" type="curve"/>
      <point x="193" y="453" type="line"/>
      <point x="199" y="452" type="line"/>
      <point x="228" y="464"/>
      <point x="271" y="474"/>
      <point x="305" y="474" type="curve" smooth="yes"/>
      <point x="371" y="474"/>
      <point x="410" y="432"/>
      <point x="403" y="373" type="curve" smooth="yes"/>
      <point x="389" y="255"/>
      <point x="148" y="257"/>
      <point x="131" y="117" type="curve" smooth="yes"/>
      <point x="122" y="45"/>
      <point x="172" y="-3"/>
    </contour>
    <contour>
      <point x="101" y="178" type="line"/>
      <point x="425" y="178" type="line"/>
      <point x="429" y="195" type="line"/>
      <point x="426" y="198" type="line"/>
      <point x="102" y="198" type="line"/>
      <point x="98" y="181" type="line"/>
    </contour>
    <contour>
      <point x="129" y="297" type="line"/>
      <point x="453" y="297" type="line"/>
      <point x="457" y="314" type="line"/>
      <point x="454" y="317" type="line"/>
      <point x="130" y="317" type="line"/>
      <point x="127" y="300" type="line"/>
    </contour>
  </outline>
</glyph>
<glyph name="cedi" format="2">
  <advance width="419"/>
  <unicode hex="20B5"/>
  <anchor x="211" y="0" name="bottom"/>
  <anchor x="267" y="491" name="top"/>
  <outline>
    <contour>
      <point x="298" y="482" type="line"/>
      <point x="277" y="482" type="line"/>
      <point x="178" y="7" type="line"/>
      <point x="198" y="7" type="line"/>
    </contour>
    <contour>
      <point x="198" y="7" type="line"/>
      <point x="178" y="7" type="line"/>
      <point x="152" y="-120" type="line"/>
      <point x="155" y="-124" type="line"/>
      <point x="170" y="-124" type="line"/>
    </contour>
    <contour>
      <point x="326" y="640" type="line"/>
      <point x="310" y="640" type="line"/>
      <point x="277" y="482" type="line"/>
      <point x="298" y="482" type="line"/>
      <point x="329" y="635" type="line"/>
    </contour>
    <contour>
      <point x="287" y="494" type="curve" smooth="yes"/>
      <point x="127" y="494"/>
      <point x="34" y="384"/>
      <point x="34" y="200" type="curve" smooth="yes"/>
      <point x="34" y="70"/>
      <point x="97" y="-4"/>
      <point x="217" y="-4" type="curve" smooth="yes"/>
      <point x="268" y="-4"/>
      <point x="325" y="14"/>
      <point x="375" y="46" type="curve"/>
      <point x="379" y="64" type="line"/>
      <point x="374" y="66" type="line"/>
      <point x="327" y="34"/>
      <point x="270" y="15"/>
      <point x="218" y="15" type="curve" smooth="yes"/>
      <point x="112" y="15"/>
      <point x="55" y="82"/>
      <point x="55" y="202" type="curve" smooth="yes"/>
      <point x="55" y="373"/>
      <point x="137" y="475"/>
      <point x="285" y="475" type="curve" smooth="yes"/>
      <point x="333" y="475"/>
      <point x="378" y="459"/>
      <point x="412" y="432" type="curve"/>
      <point x="418" y="432" type="line"/>
      <point x="426" y="450" type="line"/>
      <point x="389" y="478"/>
      <point x="338" y="494"/>
    </contour>
  </outline>
</glyph>
<glyph name="rupeeIndian" format="2">
  <advance width="353"/>
  <unicode hex="20B9"/>
  <outline>
    <contour>
      <point x="213" y="-5" type="curve"/>
      <point x="231" y="11" type="line"/>
      <point x="232" y="14" type="line"/>
      <point x="186" y="66"/>
      <point x="147" y="131"/>
      <point x="115" y="206" type="curve"/>
      <point x="152" y="232" type="line"/>
      <point x="132" y="241"/>
      <point x="118" y="245"/>
      <point x="95" y="248" type="curve"/>
      <point x="84" y="236" type="line"/>
      <point x="113" y="146"/>
      <point x="156" y="66"/>
    </contour>
    <contour>
      <point x="106" y="193" type="line"/>
      <point x="249" y="287"/>
      <point x="289" y="350"/>
      <point x="270" y="457" type="curve"/>
      <point x="250" y="451" type="line"/>
      <point x="268" y="354"/>
      <point x="233" y="299"/>
      <point x="96" y="209" type="curve"/>
    </contour>
    <contour>
      <point x="60" y="439" type="line"/>
      <point x="355" y="439" type="line"/>
      <point x="360" y="444" type="line"/>
      <point x="357" y="460" type="line"/>
      <point x="62" y="460" type="line"/>
      <point x="57" y="455" type="line"/>
    </contour>
    <contour>
      <point x="73" y="548" type="line"/>
      <point x="368" y="548" type="line"/>
      <point x="373" y="553" type="line"/>
      <point x="370" y="569" type="line"/>
      <point x="75" y="569" type="line"/>
      <point x="70" y="564" type="line"/>
    </contour>
  </outline>
</glyph>
<glyph name="liraTurkish" format="2">
  <advance width="425"/>
  <unicode hex="20BA"/>
  <outline>
    <contour>
      <point x="116" y="0" type="line"/>
      <point x="252" y="26"/>
      <point x="342" y="98"/>
      <point x="407" y="233" type="curve"/>
      <point x="406" y="237" type="line"/>
      <point x="390" y="239" type="line"/>
      <point x="330" y="117"/>
      <point x="250" y="50"/>
      <point x="125" y="20" type="curve"/>
    </contour>
    <contour>
      <point x="46" y="141" type="line"/>
      <point x="147" y="199" type="line"/>
      <point x="159" y="204" type="line"/>
      <point x="300" y="289" type="line"/>
      <point x="296" y="303" type="line"/>
      <point x="291" y="305" type="line"/>
      <point x="159" y="227" type="line"/>
      <point x="148" y="222" type="line"/>
      <point x="37" y="158" type="line"/>
      <point x="41" y="144" type="line"/>
    </contour>
    <contour>
      <point x="116" y="0" type="line"/>
      <point x="137" y="12" type="line"/>
      <point x="154" y="151" type="line"/>
      <point x="196" y="491" type="line"/>
      <point x="176" y="491" type="line"/>
      <point x="134" y="150" type="line"/>
    </contour>
    <contour>
      <point x="63" y="281" type="line"/>
      <point x="164" y="339" type="line"/>
      <point x="176" y="344" type="line"/>
      <point x="317" y="429" type="line"/>
      <point x="313" y="443" type="line"/>
      <point x="308" y="445" type="line"/>
      <point x="177" y="367" type="line"/>
      <point x="165" y="362" type="line"/>
      <point x="54" y="298" type="line"/>
      <point x="58" y="284" type="line"/>
    </contour>
  </outline>
</glyph>
<glyph name="numero" format="2">
  <advance width="830"/>
  <unicode hex="2116"/>
  <anchor x="254" y="0" name="bottom"/>
  <anchor x="314" y="491" name="top"/>
  <outline>
    <contour>
      <point x="494" y="492" type="line"/>
      <point x="474" y="490" type="line"/>
      <point x="417" y="40" type="line"/>
      <point x="413" y="40" type="line"/>
      <point x="161" y="491" type="line"/>
      <point x="141" y="491" type="line"/>
      <point x="97" y="146" type="line"/>
      <point x="78" y="0" type="line"/>
      <point x="98" y="0" type="line"/>
      <point x="117" y="154" type="line"/>
      <point x="156" y="451" type="line"/>
      <point x="158" y="451" type="line"/>
      <point x="410" y="0" type="line"/>
      <point x="430" y="0" type="line"/>
      <point x="449" y="137" type="line"/>
    </contour>
    <contour>
      <point x="739" y="511" type="line"/>
      <point x="739" y="511" type="line"/>
      <point x="654" y="509"/>
      <point x="603" y="422"/>
      <point x="603" y="306" type="curve" smooth="yes"/>
      <point x="603" y="245"/>
      <point x="624" y="216"/>
      <point x="670" y="213" type="curve"/>
      <point x="674" y="213" type="line"/>
      <point x="758" y="218"/>
      <point x="808" y="303"/>
      <point x="808" y="420" type="curve" smooth="yes"/>
      <point x="808" y="479"/>
      <point x="788" y="507"/>
      <point x="742" y="511" type="curve"/>
    </contour>
    <contour>
      <point x="737" y="493" type="curve" smooth="yes"/>
      <point x="773" y="493"/>
      <point x="788" y="469"/>
      <point x="788" y="417" type="curve" smooth="yes"/>
      <point x="788" y="310"/>
      <point x="743" y="231"/>
      <point x="675" y="231" type="curve" smooth="yes"/>
      <point x="639" y="231"/>
      <point x="623" y="255"/>
      <point x="623" y="308" type="curve" smooth="yes"/>
      <point x="623" y="414"/>
      <point x="668" y="493"/>
    </contour>
  </outline>
</glyph>
<glyph name="leftRightArrow" format="2">
  <advance width="644"/>
  <unicode hex="2194"/>
  <outline>
    <contour>
      <point x="225" y="41" type="line"/>
      <point x="225" y="47" type="line"/>
      <point x="48" y="227" type="line"/>
      <point x="225" y="407" type="line"/>
      <point x="225" y="413" type="line"/>
      <point x="211" y="421" type="line"/>
      <point x="21" y="229" type="line"/>
      <point x="21" y="225" type="line"/>
      <point x="211" y="33" type="line"/>
    </contour>
    <contour>
      <point x="623" y="225" type="line"/>
      <point x="623" y="229" type="line"/>
      <point x="433" y="421" type="line"/>
      <point x="419" y="413" type="line"/>
      <point x="419" y="407" type="line"/>
      <point x="596" y="227" type="line"/>
      <point x="419" y="47" type="line"/>
      <point x="419" y="41" type="line"/>
      <point x="433" y="33" type="line"/>
    </contour>
    <contour>
      <point x="606" y="217" type="line"/>
      <point x="606" y="237" type="line"/>
      <point x="38" y="237" type="line"/>
      <point x="38" y="217" type="line"/>
    </contour>
  </outline>
</glyph>
<glyph name="emptyset" format="2">
  <advance width="672"/>
  <unicode hex="2205"/>
  <outline>
    <contour>
      <point x="303" y="-5" type="curve" smooth="yes"/>
      <point x="504" y="-5"/>
      <point x="620" y="144"/>
      <point x="620" y="385" type="curve" smooth="yes"/>
      <point x="620" y="549"/>
      <point x="540" y="642"/>
      <point x="393" y="642" type="curve"/>
      <point x="193" y="642"/>
      <point x="78" y="498"/>
      <point x="78" y="258" type="curve" smooth="yes"/>
      <point x="78" y="90"/>
      <point x="157" y="-5"/>
    </contour>
    <contour>
      <point x="116" y="-87" type="line"/>
      <point x="577" y="701" type="line"/>
      <point x="575" y="706" type="line"/>
      <point x="560" y="709" type="line"/>
      <point x="99" y="-80" type="line"/>
      <point x="100" y="-84" type="line"/>
    </contour>
    <contour>
      <point x="306" y="15" type="curve" smooth="yes"/>
      <point x="171" y="15"/>
      <point x="98" y="104"/>
      <point x="98" y="261" type="curve" smooth="yes"/>
      <point x="98" y="486"/>
      <point x="205" y="622"/>
      <point x="390" y="622" type="curve" smooth="yes"/>
      <point x="526" y="622"/>
      <point x="599" y="535"/>
      <point x="599" y="382" type="curve" smooth="yes"/>
      <point x="599" y="155"/>
      <point x="491" y="15"/>
    </contour>
  </outline>
</glyph>
<glyph name="summation" format="2">
  <advance width="458.027"/>
  <unicode hex="2211"/>
  <outline>
    <contour>
      <point x="494" y="638" type="line"/>
      <point x="433" y="637" type="line"/>
      <point x="165" y="637" type="line"/>
      <point x="91" y="637" type="line"/>
      <point x="89" y="619" type="line"/>
      <point x="266" y="324" type="line"/>
      <point x="10" y="18" type="line"/>
      <point x="8" y="0" type="line"/>
      <point x="73" y="0" type="line"/>
      <point x="335" y="0" type="line"/>
      <point x="409" y="0" type="line"/>
      <point x="414" y="16" type="line"/>
      <point x="410" y="21" type="line"/>
      <point x="341" y="20" type="line"/>
      <point x="36" y="20" type="line"/>
      <point x="289" y="320" type="line"/>
      <point x="290" y="327" type="line"/>
      <point x="114" y="617" type="line"/>
      <point x="430" y="617" type="line"/>
      <point x="492" y="616" type="line"/>
      <point x="497" y="633" type="line"/>
    </contour>
  </outline>
</glyph>
<glyph name="minus" format="2">
  <advance width="478.825"/>
  <unicode hex="2212"/>
  <outline>
    <contour>
      <point x="443" y="280" type="line"/>
      <point x="46" y="280" type="line"/>
      <point x="44" y="263" type="line"/>
      <point x="47" y="260" type="line"/>
      <point x="444" y="260" type="line"/>
      <point x="446" y="277" type="line"/>
    </contour>
  </outline>
</glyph>
<glyph name="infinity" format="2">
  <advance width="521"/>
  <unicode hex="221E"/>
  <outline>
    <contour>
      <point x="408" y="392" type="curve" smooth="yes"/>
      <point x="336" y="392"/>
      <point x="293" y="337"/>
      <point x="270" y="295" type="curve"/>
      <point x="253" y="344"/>
      <point x="224" y="392"/>
      <point x="154" y="392" type="curve" smooth="yes"/>
      <point x="75" y="392"/>
      <point x="23" y="335"/>
      <point x="23" y="251" type="curve" smooth="yes"/>
      <point x="23" y="187"/>
      <point x="60" y="143"/>
      <point x="123" y="143" type="curve" smooth="yes"/>
      <point x="189" y="143"/>
      <point x="229" y="189"/>
      <point x="263" y="249" type="curve"/>
      <point x="283" y="192"/>
      <point x="310" y="143"/>
      <point x="379" y="143" type="curve" smooth="yes"/>
      <point x="454" y="143"/>
      <point x="508" y="197"/>
      <point x="508" y="283" type="curve" smooth="yes"/>
      <point x="508" y="346"/>
      <point x="473" y="392"/>
    </contour>
    <contour>
      <point x="153" y="373" type="curve" smooth="yes"/>
      <point x="219" y="373"/>
      <point x="241" y="324"/>
      <point x="256" y="270" type="curve"/>
      <point x="225" y="216"/>
      <point x="189" y="162"/>
      <point x="125" y="162" type="curve" smooth="yes"/>
      <point x="73" y="162"/>
      <point x="43" y="199"/>
      <point x="43" y="254" type="curve" smooth="yes"/>
      <point x="43" y="326"/>
      <point x="86" y="373"/>
    </contour>
    <contour>
      <point x="405" y="373" type="curve" smooth="yes"/>
      <point x="460" y="373"/>
      <point x="489" y="334"/>
      <point x="489" y="281" type="curve" smooth="yes"/>
      <point x="489" y="206"/>
      <point x="444" y="162"/>
      <point x="383" y="162" type="curve" smooth="yes"/>
      <point x="318" y="162"/>
      <point x="295" y="213"/>
      <point x="276" y="270" type="curve"/>
      <point x="303" y="319"/>
      <point x="338" y="373"/>
    </contour>
  </outline>
</glyph>
<glyph name="notequal" format="2">
  <advance width="478.985"/>
  <unicode hex="2260"/>
  <outline>
    <contour>
      <point x="325" y="496" type="line"/>
      <point x="308" y="496" type="line"/>
      <point x="141" y="36" type="line"/>
      <point x="144" y="33" type="line"/>
      <point x="161" y="33" type="line"/>
      <point x="328" y="492" type="line"/>
    </contour>
    <contour>
      <point x="452" y="352" type="line"/>
      <point x="55" y="352" type="line"/>
      <point x="53" y="335" type="line"/>
      <point x="56" y="332" type="line"/>
      <point x="453" y="332" type="line"/>
      <point x="455" y="349" type="line"/>
    </contour>
    <contour>
      <point x="434" y="208" type="line"/>
      <point x="37" y="208" type="line"/>
      <point x="35" y="191" type="line"/>
      <point x="38" y="188" type="line"/>
      <point x="435" y="188" type="line"/>
      <point x="437" y="205" type="line"/>
    </contour>
  </outline>
</glyph>
<glyph name="upWhiteTriangle" format="2">
  <advance width="449"/>
  <unicode hex="25B3"/>
  <outline>
    <contour>
      <point x="64" y="91" type="line"/>
      <point x="381" y="91" type="line"/>
      <point x="223" y="410" type="line"/>
    </contour>
    <contour>
      <point x="111" y="121" type="line"/>
      <point x="223" y="342" type="line"/>
      <point x="335" y="121" type="line"/>
    </contour>
  </outline>
</glyph>
<glyph name="leftBlackTriangle" format="2">
  <advance width="402"/>
  <unicode hex="25C0"/>
  <outline>
    <contour>
      <point x="301" y="86" type="line"/>
      <point x="301" y="356" type="line"/>
      <point x="31" y="221" type="line"/>
    </contour>
  </outline>
</glyph>
<glyph name="lozenge" format="2">
  <advance width="480.265"/>
  <unicode hex="25CA"/>
  <outline>
    <contour>
      <point x="290" y="640" type="line"/>
      <point x="275" y="640" type="line"/>
      <point x="71" y="289" type="line"/>
      <point x="69" y="275" type="line"/>
      <point x="189" y="-74" type="line"/>
      <point x="191" y="-76" type="line"/>
      <point x="206" y="-76" type="line"/>
      <point x="410" y="275" type="line"/>
      <point x="412" y="289" type="line"/>
      <point x="292" y="638" type="line"/>
    </contour>
    <contour>
      <point x="281" y="606" type="line"/>
      <point x="392" y="282" type="line"/>
      <point x="204" y="-43" type="line"/>
      <point x="200" y="-43" type="line"/>
      <point x="89" y="282" type="line"/>
      <point x="277" y="606" type="line"/>
    </contour>
  </outline>
</glyph>
<glyph name="blackLargeCircle" format="2">
  <advance width="632"/>
  <unicode hex="2B24"/>
  <outline>
    <contour>
      <point x="315" y="-14" type="curve" smooth="yes"/>
      <point x="498" y="-14"/>
      <point x="647" y="134"/>
      <point x="647" y="317" type="curve" smooth="yes"/>
      <point x="647" y="500"/>
      <point x="498" y="649"/>
      <point x="315" y="649" type="curve" smooth="yes"/>
      <point x="132" y="649"/>
      <point x="-16" y="500"/>
      <point x="-16" y="317" type="curve" smooth="yes"/>
      <point x="-16" y="134"/>
      <point x="132" y="-14"/>
    </contour>
  </outline>
</glyph>
<glyph name="Saltillo" format="2">
  <advance width="81.9633"/>
  <unicode hex="A78B"/>
  <outline>
    <contour>
      <point x="93" y="605" type="line"/>
      <point x="75" y="602" type="line"/>
      <point x="46" y="379" type="line"/>
      <point x="48" y="373" type="line"/>
      <point x="65" y="376" type="line"/>
      <point x="95" y="599" type="line"/>
    </contour>
    <contour>
      <point x="35" y="153" type="move"/>
    </contour>
  </outline>
</glyph>
<glyph name="C.ss01" format="2">
  <advance width="568"/>
  <anchor x="292" y="0" name="bottom"/>
  <anchor x="381" y="637" name="top"/>
  <outline>
    <contour>
      <point x="293" y="0" type="curve" smooth="yes"/>
      <point x="355" y="0"/>
      <point x="426" y="24"/>
      <point x="487" y="67" type="curve"/>
      <point x="491" y="85" type="line"/>
      <point x="484" y="87" type="line"/>
      <point x="426" y="44"/>
      <point x="357" y="20"/>
      <point x="292" y="20" type="curve" smooth="yes"/>
      <point x="144" y="20"/>
      <point x="74" y="125"/>
      <point x="98" y="315" type="curve" smooth="yes"/>
      <point x="121" y="509"/>
      <point x="221" y="617"/>
      <point x="380" y="617" type="curve" smooth="yes"/>
      <point x="439" y="617"/>
      <point x="494" y="597"/>
      <point x="534" y="561" type="curve"/>
      <point x="541" y="561" type="line"/>
      <point x="550" y="578" type="line"/>
      <point x="505" y="616"/>
      <point x="444" y="637"/>
      <point x="380" y="637" type="curve" smooth="yes"/>
      <point x="211" y="637"/>
      <point x="103" y="522"/>
      <point x="78" y="318" type="curve" smooth="yes"/>
      <point x="53" y="113"/>
      <point x="129" y="0"/>
    </contour>
    <contour>
      <point x="-79" y="0" type="line"/>
      <point x="569" y="0" type="line"/>
      <point x="571" y="20" type="line"/>
      <point x="-77" y="20" type="line"/>
    </contour>
    <contour>
      <point x="-3" y="617" type="line"/>
      <point x="645" y="617" type="line"/>
      <point x="647" y="637" type="line"/>
      <point x="-1" y="637" type="line"/>
    </contour>
  </outline>
</glyph>
<glyph name="Gamma.sups" format="2">
  <advance width="272"/>
  <anchor x="94" y="348" name="bottomright"/>
  <outline>
    <contour>
      <point x="165" y="756" type="line"/>
      <point x="144" y="756" type="line"/>
      <point x="110" y="473" type="line"/>
      <point x="94" y="348" type="line"/>
      <point x="115" y="348" type="line"/>
      <point x="130" y="473" type="line"/>
    </contour>
    <contour>
      <point x="333" y="756" type="line"/>
      <point x="158" y="756" type="line"/>
      <point x="153" y="740" type="line"/>
      <point x="156" y="737" type="line"/>
      <point x="244" y="737" type="line"/>
      <point x="330" y="737" type="line"/>
      <point x="335" y="753" type="line"/>
    </contour>
  </outline>
</glyph>
<glyph name="Lambda.sups" format="2">
  <advance width="359"/>
  <outline>
    <contour>
      <point x="32" y="348" type="line"/>
      <point x="56" y="348" type="line"/>
      <point x="69" y="379" type="line"/>
      <point x="246" y="728" type="line"/>
      <point x="249" y="728" type="line"/>
      <point x="327" y="378" type="line"/>
      <point x="331" y="348" type="line"/>
      <point x="354" y="348" type="line"/>
      <point x="262" y="756" type="line"/>
      <point x="238" y="756" type="line"/>
    </contour>
  </outline>
</glyph>
